<svg xmlns="http://www.w3.org/2000/svg" xmlns:xlink="http://www.w3.org/1999/xlink" width="1366" zoomAndPan="magnify" viewBox="0 0 1024.5 576" height="768" preserveAspectRatio="xMidYMid meet" version="1.0"><defs><clipPath id="ad85559595"><path d="M 20 30.214844 L 57.441406 30.214844 L 57.441406 56.453125 L 20 56.453125 Z M 20 30.214844 " clip-rule="nonzero"/></clipPath><clipPath id="750963a1fd"><path d="M 431 56.542969 L 509 56.542969 L 509 123 L 431 123 Z M 431 56.542969 " clip-rule="nonzero"/></clipPath><clipPath id="484eeb52b4"><path d="M 687 347 L 764.957031 347 L 764.957031 413 L 687 413 Z M 687 347 " clip-rule="nonzero"/></clipPath><clipPath id="5d6f89339f"><path d="M 689 348 L 764.957031 348 L 764.957031 413 L 689 413 Z M 689 348 " clip-rule="nonzero"/></clipPath><clipPath id="537df8e2b7"><path d="M 687 347 L 764.957031 347 L 764.957031 414 L 687 414 Z M 687 347 " clip-rule="nonzero"/></clipPath><clipPath id="e9f4002274"><path d="M 510 377 L 696 377 L 696 497.328125 L 510 497.328125 Z M 510 377 " clip-rule="nonzero"/></clipPath><clipPath id="9920c7fa67"><path d="M 552 432 L 654 432 L 654 497.328125 L 552 497.328125 Z M 552 432 " clip-rule="nonzero"/></clipPath><clipPath id="0e4e0eae02"><path d="M 501 496 L 518 496 L 518 497.328125 L 501 497.328125 Z M 501 496 " clip-rule="nonzero"/></clipPath><clipPath id="6e476a8919"><path d="M 526 496 L 544 496 L 544 497.328125 L 526 497.328125 Z M 526 496 " clip-rule="nonzero"/></clipPath><clipPath id="ab4431d0fc"><path d="M 678 496 L 707 496 L 707 497.328125 L 678 497.328125 Z M 678 496 " clip-rule="nonzero"/></clipPath><clipPath id="5d4ec49ede"><path d="M 715 496 L 728 496 L 728 497.328125 L 715 497.328125 Z M 715 496 " clip-rule="nonzero"/></clipPath></defs><g clip-path="url(#ad85559595)"><path fill="#ffffff" d="M 22.019531 30.277344 C 21.769531 30.273438 21.527344 30.316406 21.292969 30.410156 C 21.0625 30.503906 20.855469 30.636719 20.679688 30.8125 C 20.5 30.988281 20.363281 31.195312 20.265625 31.425781 C 20.167969 31.65625 20.121094 31.894531 20.121094 32.148438 C 20.121094 32.398438 20.167969 32.636719 20.265625 32.867188 C 20.363281 33.101562 20.5 33.304688 20.679688 33.480469 C 20.855469 33.65625 21.0625 33.789062 21.292969 33.882812 C 21.527344 33.976562 21.769531 34.023438 22.019531 34.019531 L 55.699219 34.019531 C 55.949219 34.023438 56.191406 33.976562 56.421875 33.882812 C 56.65625 33.789062 56.863281 33.65625 57.039062 33.480469 C 57.21875 33.304688 57.355469 33.101562 57.453125 32.867188 C 57.550781 32.636719 57.597656 32.398438 57.597656 32.148438 C 57.597656 31.894531 57.550781 31.65625 57.453125 31.425781 C 57.355469 31.195312 57.21875 30.988281 57.039062 30.8125 C 56.863281 30.636719 56.65625 30.503906 56.421875 30.410156 C 56.191406 30.316406 55.949219 30.273438 55.699219 30.277344 Z M 22.019531 41.503906 C 21.769531 41.5 21.527344 41.542969 21.292969 41.636719 C 21.0625 41.730469 20.855469 41.867188 20.679688 42.042969 C 20.5 42.21875 20.363281 42.421875 20.265625 42.652344 C 20.167969 42.882812 20.121094 43.125 20.121094 43.375 C 20.121094 43.625 20.167969 43.863281 20.265625 44.097656 C 20.363281 44.328125 20.5 44.53125 20.679688 44.707031 C 20.855469 44.882812 21.0625 45.015625 21.292969 45.109375 C 21.527344 45.203125 21.769531 45.25 22.019531 45.246094 L 55.699219 45.246094 C 55.949219 45.25 56.191406 45.203125 56.421875 45.109375 C 56.65625 45.015625 56.863281 44.882812 57.039062 44.707031 C 57.21875 44.53125 57.355469 44.328125 57.453125 44.097656 C 57.550781 43.863281 57.597656 43.625 57.597656 43.375 C 57.597656 43.125 57.550781 42.882812 57.453125 42.652344 C 57.355469 42.421875 57.21875 42.21875 57.039062 42.042969 C 56.863281 41.867188 56.65625 41.730469 56.421875 41.636719 C 56.191406 41.542969 55.949219 41.5 55.699219 41.503906 Z M 22.019531 52.730469 C 21.769531 52.726562 21.527344 52.769531 21.292969 52.863281 C 21.0625 52.957031 20.855469 53.09375 20.679688 53.269531 C 20.5 53.445312 20.363281 53.648438 20.265625 53.878906 C 20.167969 54.109375 20.121094 54.351562 20.121094 54.601562 C 20.121094 54.851562 20.167969 55.09375 20.265625 55.324219 C 20.363281 55.554688 20.5 55.757812 20.679688 55.933594 C 20.855469 56.109375 21.0625 56.242188 21.292969 56.335938 C 21.527344 56.429688 21.769531 56.476562 22.019531 56.472656 L 55.699219 56.472656 C 55.949219 56.476562 56.191406 56.429688 56.421875 56.335938 C 56.65625 56.242188 56.863281 56.109375 57.039062 55.933594 C 57.21875 55.757812 57.355469 55.554688 57.453125 55.324219 C 57.550781 55.09375 57.597656 54.851562 57.597656 54.601562 C 57.597656 54.351562 57.550781 54.109375 57.453125 53.878906 C 57.355469 53.648438 57.21875 53.445312 57.039062 53.269531 C 56.863281 53.09375 56.65625 52.957031 56.421875 52.863281 C 56.191406 52.769531 55.949219 52.726562 55.699219 52.730469 Z M 22.019531 52.730469 " fill-opacity="1" fill-rule="nonzero"/></g><path fill="#eef4ff" d="M 744.898438 323.988281 C 740.949219 349.253906 729.277344 374.863281 707.386719 388.097656 C 691.421875 397.808594 671.933594 399.699219 653.222656 399.699219 C 634.507812 399.699219 615.710938 397.980469 597.253906 401.332031 C 584.894531 403.566406 570.472656 406.660156 562.917969 416.628906 C 550.300781 433.300781 533.90625 448.597656 513.390625 452.378906 C 492.875 456.164062 471.671875 453.152344 451.15625 449.457031 C 431.585938 446.019531 411.582031 441.808594 394.757812 431.238281 C 377.933594 420.667969 364.542969 402.363281 365.230469 382.511719 C 366.089844 355.269531 391.925781 333.355469 392.097656 306.113281 C 392.355469 278.523438 367.203125 258.414062 353.640625 234.4375 C 338.449219 207.367188 338.449219 172.648438 353.46875 145.660156 C 368.492188 118.675781 398.105469 100.542969 428.921875 99.339844 C 475.878906 97.535156 516.480469 131.566406 562.402344 141.792969 C 582.40625 146.261719 603.09375 146.089844 623.179688 149.957031 C 661.546875 157.4375 696.65625 180.296875 719.148438 212.351562 C 741.550781 244.40625 750.992188 285.3125 744.898438 323.988281 Z M 744.898438 323.988281 " fill-opacity="1" fill-rule="nonzero"/><path stroke-linecap="round" transform="matrix(0.858395, 0, 0, 0.859397, 244.025143, -23.811195)" fill-opacity="1" fill="#ffffff" fill-rule="nonzero" stroke-linejoin="round" d="M 368.399742 381.302248 C 354.797874 381.302248 343.798974 370.19799 343.798974 356.698339 L 343.798974 157.198958 C 343.798974 143.59931 354.897988 132.599595 368.399742 132.599595 L 567.799748 132.599595 C 581.401615 132.599595 592.400516 143.699307 592.400516 157.198958 L 592.400516 356.598342 C 592.400516 370.19799 581.301501 381.20225 567.799748 381.20225 L 368.399742 381.20225 Z M 368.399742 381.302248 " stroke="#112544" stroke-width="1.5" stroke-opacity="1" stroke-miterlimit="10"/><path stroke-linecap="round" transform="matrix(0.858395, 0, 0, 0.859397, 244.025143, -23.811195)" fill-opacity="1" fill="#e1e5ff" fill-rule="nonzero" stroke-linejoin="round" d="M 580.400474 157.198958 L 580.400474 356.598342 C 580.400474 363.598161 574.698521 369.198016 567.799748 369.198016 L 368.399742 369.198016 C 361.400855 369.198016 355.799015 363.498163 355.799015 356.598342 L 355.799015 157.198958 C 355.799015 150.199139 361.500969 144.599284 368.399742 144.599284 L 567.799748 144.599284 C 574.798635 144.499287 580.400474 150.199139 580.400474 157.198958 Z M 580.400474 157.198958 " stroke="#112544" stroke-width="1.5" stroke-opacity="1" stroke-miterlimit="10"/><path fill="#ccd2ff" d="M 723.953125 248.960938 L 723.953125 274.570312 C 723.953125 276.976562 721.980469 278.953125 719.578125 278.953125 L 567.898438 278.953125 C 565.496094 278.953125 563.519531 276.976562 563.519531 274.570312 L 563.519531 248.960938 C 563.519531 246.554688 565.496094 244.578125 567.898438 244.578125 L 719.578125 244.578125 C 721.980469 244.664062 723.953125 246.554688 723.953125 248.960938 Z M 723.953125 248.960938 " fill-opacity="1" fill-rule="nonzero"/><path stroke-linecap="round" transform="matrix(0.858395, 0, 0, 0.859397, 244.025143, -23.811195)" fill-opacity="1" fill="#ffffff" fill-rule="nonzero" stroke-linejoin="round" d="M 562.898707 313.299463 L 562.898707 343.098691 C 562.898707 345.898619 560.600633 348.198559 557.801989 348.198559 L 381.100582 348.198559 C 378.301937 348.198559 375.999313 345.898619 375.999313 343.098691 L 375.999313 313.299463 C 375.999313 310.499535 378.301937 308.199595 381.100582 308.199595 L 557.801989 308.199595 C 560.600633 308.199595 562.898707 310.499535 562.898707 313.299463 Z M 562.898707 313.299463 " stroke="#112544" stroke-width="1.5" stroke-opacity="1" stroke-miterlimit="10"/><path fill="#ccd2ff" d="M 723.953125 198.601562 L 723.953125 224.210938 C 723.953125 226.617188 721.980469 228.59375 719.578125 228.59375 L 567.898438 228.59375 C 565.496094 228.59375 563.519531 226.617188 563.519531 224.210938 L 563.519531 198.601562 C 563.519531 196.195312 565.496094 194.21875 567.898438 194.21875 L 719.578125 194.21875 C 721.980469 194.21875 723.953125 196.109375 723.953125 198.601562 Z M 723.953125 198.601562 " fill-opacity="1" fill-rule="nonzero"/><path stroke-linecap="round" transform="matrix(0.858395, 0, 0, 0.859397, 244.025143, -23.811195)" fill-opacity="1" fill="#ffffff" fill-rule="nonzero" stroke-linejoin="round" d="M 562.898707 254.600982 L 562.898707 284.400211 C 562.898707 287.200138 560.600633 289.500079 557.801989 289.500079 L 381.100582 289.500079 C 378.301937 289.500079 375.999313 287.200138 375.999313 284.400211 L 375.999313 254.600982 C 375.999313 251.801055 378.301937 249.501114 381.100582 249.501114 L 557.801989 249.501114 C 560.600633 249.501114 562.898707 251.801055 562.898707 254.600982 Z M 562.898707 254.600982 " stroke="#112544" stroke-width="1.5" stroke-opacity="1" stroke-miterlimit="10"/><path fill="#ccd2ff" d="M 674.082031 148.324219 C 674.082031 165.945312 659.832031 180.296875 642.148438 180.296875 C 624.550781 180.296875 610.214844 166.03125 610.214844 148.324219 C 610.214844 130.621094 624.464844 116.355469 642.148438 116.355469 C 659.746094 116.355469 674.082031 130.707031 674.082031 148.324219 Z M 674.082031 148.324219 " fill-opacity="1" fill-rule="nonzero"/><path stroke-linecap="round" transform="matrix(0.858395, 0, 0, 0.859397, 244.025143, -23.811195)" fill-opacity="1" fill="#ffffff" fill-rule="nonzero" stroke-linejoin="round" d="M 505.301239 196.197949 C 505.301239 216.701963 488.700499 233.401531 468.099745 233.401531 C 447.498991 233.401531 430.898251 216.801961 430.898251 196.197949 C 430.898251 175.598482 447.498991 158.998911 468.099745 158.998911 C 488.700499 158.998911 505.301239 175.598482 505.301239 196.197949 Z M 505.301239 196.197949 " stroke="#112544" stroke-width="1.5" stroke-opacity="1" stroke-miterlimit="10"/><path fill="#efa130" d="M 653.136719 132.769531 C 653.136719 136.808594 649.875 140.074219 645.839844 140.074219 C 643.523438 140.074219 641.460938 138.957031 640.089844 137.324219 C 639.058594 136.121094 638.457031 134.488281 638.457031 132.769531 C 638.457031 128.730469 641.71875 125.464844 645.753906 125.464844 C 646.527344 125.464844 647.300781 125.550781 647.984375 125.808594 C 650.992188 126.753906 653.136719 129.503906 653.136719 132.769531 Z M 653.136719 132.769531 " fill-opacity="1" fill-rule="nonzero"/><path fill="#ffc25e" d="M 649.617188 130.363281 C 649.617188 134.402344 646.355469 137.667969 642.320312 137.667969 C 641.546875 137.667969 640.777344 137.582031 640.089844 137.324219 C 639.058594 136.121094 638.457031 134.488281 638.457031 132.769531 C 638.457031 128.730469 641.71875 125.464844 645.753906 125.464844 C 646.527344 125.464844 647.300781 125.550781 647.984375 125.808594 C 649.015625 127.097656 649.617188 128.644531 649.617188 130.363281 Z M 649.617188 130.363281 " fill-opacity="1" fill-rule="nonzero"/><path stroke-linecap="round" transform="matrix(0.858395, 0, 0, 0.859397, 244.025143, -23.811195)" fill="none" stroke-linejoin="round" d="M 476.600343 182.198311 C 476.600343 186.898189 472.800557 190.698091 468.099745 190.698091 C 463.398932 190.698091 459.599147 186.898189 459.599147 182.198311 C 459.599147 177.498433 463.398932 173.698531 468.099745 173.698531 C 472.800557 173.698531 476.600343 177.498433 476.600343 182.198311 Z M 476.600343 182.198311 " stroke="#112544" stroke-width="1.5" stroke-opacity="1" stroke-miterlimit="10"/><path fill="#efa130" d="M 662.148438 161.476562 L 629.445312 161.476562 C 628.328125 161.476562 627.46875 160.53125 627.554688 159.414062 C 627.554688 159.070312 627.640625 158.726562 627.726562 158.46875 C 629.1875 149.871094 636.742188 143.253906 645.753906 143.253906 C 647.984375 143.253906 650.132812 143.683594 652.105469 144.371094 C 658.457031 146.691406 663.179688 152.453125 663.953125 159.414062 C 664.125 160.445312 663.265625 161.476562 662.148438 161.476562 Z M 662.148438 161.476562 " fill-opacity="1" fill-rule="nonzero"/><path fill="#ffc25e" d="M 656.828125 158.382812 L 627.726562 158.382812 C 629.1875 149.785156 636.742188 143.167969 645.753906 143.167969 C 647.984375 143.167969 650.132812 143.597656 652.105469 144.285156 C 655.625 147.207031 658.027344 151.417969 658.628906 156.234375 C 658.800781 157.4375 657.945312 158.382812 656.828125 158.382812 Z M 656.828125 158.382812 " fill-opacity="1" fill-rule="nonzero"/><path stroke-linecap="round" transform="matrix(0.858395, 0, 0, 0.859397, 244.025143, -23.811195)" fill="none" stroke-linejoin="round" d="M 487.098673 215.601992 C 488.400156 215.601992 489.401297 214.50202 489.301183 213.202054 C 487.9997 202.597783 478.998531 194.397995 468.099745 194.397995 C 457.200959 194.397995 448.19979 202.597783 446.898306 213.202054 C 446.698078 214.50202 447.799333 215.601992 449.100817 215.601992 Z M 487.098673 215.601992 " stroke="#112544" stroke-width="1.5" stroke-opacity="1" stroke-miterlimit="10"/><path fill="#757bff" d="M 592.707031 207.796875 C 592.707031 211.921875 589.359375 215.1875 585.324219 215.1875 C 583.003906 215.1875 580.859375 214.070312 579.484375 212.351562 C 578.457031 211.0625 577.855469 209.429688 577.855469 207.710938 C 577.855469 203.585938 581.203125 200.234375 585.324219 200.234375 C 586.097656 200.234375 586.867188 200.320312 587.554688 200.578125 C 590.558594 201.695312 592.707031 204.53125 592.707031 207.796875 Z M 592.707031 207.796875 " fill-opacity="1" fill-rule="nonzero"/><path fill="#8d95ff" d="M 589.1875 205.390625 C 589.1875 209.515625 585.839844 212.867188 581.804688 212.867188 C 581.03125 212.867188 580.257812 212.78125 579.570312 212.523438 C 578.542969 211.234375 577.941406 209.601562 577.941406 207.882812 C 577.941406 203.757812 581.289062 200.40625 585.410156 200.40625 C 586.179688 200.40625 586.953125 200.492188 587.640625 200.75 C 588.585938 201.953125 589.1875 203.585938 589.1875 205.390625 Z M 589.1875 205.390625 " fill-opacity="1" fill-rule="nonzero"/><path stroke-linecap="round" transform="matrix(0.858395, 0, 0, 0.859397, 244.025143, -23.811195)" fill="none" stroke-linejoin="round" d="M 406.20192 269.500596 C 406.20192 274.300472 402.30202 278.200371 397.601208 278.200371 C 392.800281 278.200371 389.000495 274.300472 389.000495 269.500596 C 389.000495 264.700721 392.900395 260.900819 397.601208 260.900819 C 402.30202 260.900819 406.20192 264.700721 406.20192 269.500596 Z M 406.20192 269.500596 " stroke="#112544" stroke-width="1.5" stroke-opacity="1" stroke-miterlimit="10"/><path fill="#757bff" d="M 617.425781 207.796875 C 617.425781 211.921875 614.078125 215.1875 610.046875 215.1875 C 607.726562 215.1875 605.582031 214.070312 604.207031 212.351562 C 603.179688 211.0625 602.578125 209.429688 602.578125 207.710938 C 602.578125 203.585938 605.925781 200.234375 610.046875 200.234375 C 610.816406 200.234375 611.589844 200.320312 612.277344 200.578125 C 615.28125 201.695312 617.425781 204.53125 617.425781 207.796875 Z M 617.425781 207.796875 " fill-opacity="1" fill-rule="nonzero"/><path fill="#8d95ff" d="M 613.90625 205.390625 C 613.90625 209.515625 610.558594 212.867188 606.527344 212.867188 C 605.753906 212.867188 604.980469 212.78125 604.292969 212.523438 C 603.261719 211.234375 602.664062 209.601562 602.664062 207.882812 C 602.664062 203.757812 606.011719 200.40625 610.128906 200.40625 C 610.902344 200.40625 611.675781 200.492188 612.363281 200.75 C 613.308594 201.953125 613.90625 203.585938 613.90625 205.390625 Z M 613.90625 205.390625 " fill-opacity="1" fill-rule="nonzero"/><path stroke-linecap="round" transform="matrix(0.858395, 0, 0, 0.859397, 244.025143, -23.811195)" fill="none" stroke-linejoin="round" d="M 434.998379 269.500596 C 434.998379 274.300472 431.098479 278.200371 426.402217 278.200371 C 421.601291 278.200371 417.801505 274.300472 417.801505 269.500596 C 417.801505 264.700721 421.701405 260.900819 426.402217 260.900819 C 431.198593 260.900819 434.998379 264.700721 434.998379 269.500596 Z M 434.998379 269.500596 " stroke="#112544" stroke-width="1.5" stroke-opacity="1" stroke-miterlimit="10"/><path fill="#757bff" d="M 642.234375 207.796875 C 642.234375 211.921875 638.886719 215.1875 634.851562 215.1875 C 632.535156 215.1875 630.390625 214.070312 629.015625 212.351562 C 627.984375 211.0625 627.382812 209.429688 627.382812 207.710938 C 627.382812 203.585938 630.730469 200.234375 634.851562 200.234375 C 635.625 200.234375 636.398438 200.320312 637.085938 200.578125 C 640.089844 201.695312 642.234375 204.53125 642.234375 207.796875 Z M 642.234375 207.796875 " fill-opacity="1" fill-rule="nonzero"/><path fill="#8d95ff" d="M 638.628906 205.390625 C 638.628906 209.515625 635.28125 212.867188 631.246094 212.867188 C 630.476562 212.867188 629.703125 212.78125 629.015625 212.523438 C 627.984375 211.234375 627.382812 209.601562 627.382812 207.882812 C 627.382812 203.757812 630.730469 200.40625 634.851562 200.40625 C 635.625 200.40625 636.398438 200.492188 637.085938 200.75 C 638.027344 201.953125 638.628906 203.585938 638.628906 205.390625 Z M 638.628906 205.390625 " fill-opacity="1" fill-rule="nonzero"/><path stroke-linecap="round" transform="matrix(0.858395, 0, 0, 0.859397, 244.025143, -23.811195)" fill="none" stroke-linejoin="round" d="M 463.899503 269.500596 C 463.899503 274.300472 459.999603 278.200371 455.29879 278.200371 C 450.497864 278.200371 446.698078 274.300472 446.698078 269.500596 C 446.698078 264.700721 450.597978 260.900819 455.29879 260.900819 C 459.999603 260.900819 463.899503 264.700721 463.899503 269.500596 Z M 463.899503 269.500596 " stroke="#112544" stroke-width="1.5" stroke-opacity="1" stroke-miterlimit="10"/><path fill="#757bff" d="M 666.957031 207.796875 C 666.957031 211.921875 663.609375 215.1875 659.574219 215.1875 C 657.257812 215.1875 655.109375 214.070312 653.738281 212.351562 C 652.707031 211.0625 652.105469 209.429688 652.105469 207.710938 C 652.105469 203.585938 655.453125 200.234375 659.574219 200.234375 C 660.347656 200.234375 661.121094 200.320312 661.804688 200.578125 C 664.8125 201.695312 666.957031 204.53125 666.957031 207.796875 Z M 666.957031 207.796875 " fill-opacity="1" fill-rule="nonzero"/><path fill="#8d95ff" d="M 663.4375 205.390625 C 663.4375 209.515625 660.089844 212.867188 656.054688 212.867188 C 655.28125 212.867188 654.511719 212.78125 653.824219 212.523438 C 652.792969 211.234375 652.191406 209.601562 652.191406 207.882812 C 652.191406 203.757812 655.539062 200.40625 659.660156 200.40625 C 660.433594 200.40625 661.207031 200.492188 661.890625 200.75 C 662.835938 201.953125 663.4375 203.585938 663.4375 205.390625 Z M 663.4375 205.390625 " fill-opacity="1" fill-rule="nonzero"/><path stroke-linecap="round" transform="matrix(0.858395, 0, 0, 0.859397, 244.025143, -23.811195)" fill="none" stroke-linejoin="round" d="M 492.700512 269.500596 C 492.700512 274.300472 488.800613 278.200371 484.0998 278.200371 C 479.298873 278.200371 475.499088 274.300472 475.499088 269.500596 C 475.499088 264.700721 479.398988 260.900819 484.0998 260.900819 C 488.900727 260.900819 492.700512 264.700721 492.700512 269.500596 Z M 492.700512 269.500596 " stroke="#112544" stroke-width="1.5" stroke-opacity="1" stroke-miterlimit="10"/><path fill="#757bff" d="M 691.765625 207.796875 C 691.765625 211.921875 688.417969 215.1875 684.382812 215.1875 C 682.0625 215.1875 679.917969 214.070312 678.546875 212.351562 C 677.515625 211.0625 676.914062 209.429688 676.914062 207.710938 C 676.914062 203.585938 680.261719 200.234375 684.382812 200.234375 C 685.15625 200.234375 685.925781 200.320312 686.613281 200.578125 C 689.53125 201.695312 691.765625 204.53125 691.765625 207.796875 Z M 691.765625 207.796875 " fill-opacity="1" fill-rule="nonzero"/><path fill="#8d95ff" d="M 688.160156 205.390625 C 688.160156 209.515625 684.8125 212.867188 680.777344 212.867188 C 680.003906 212.867188 679.230469 212.78125 678.546875 212.523438 C 677.515625 211.234375 676.914062 209.601562 676.914062 207.882812 C 676.914062 203.757812 680.261719 200.40625 684.382812 200.40625 C 685.15625 200.40625 685.925781 200.492188 686.613281 200.75 C 687.558594 201.953125 688.160156 203.585938 688.160156 205.390625 Z M 688.160156 205.390625 " fill-opacity="1" fill-rule="nonzero"/><path stroke-linecap="round" transform="matrix(0.858395, 0, 0, 0.859397, 244.025143, -23.811195)" fill="none" stroke-linejoin="round" d="M 521.601636 269.500596 C 521.601636 274.300472 517.701737 278.200371 513.000924 278.200371 C 508.199997 278.200371 504.400212 274.300472 504.400212 269.500596 C 504.400212 264.700721 508.300111 260.900819 513.000924 260.900819 C 517.701737 260.900819 521.601636 264.700721 521.601636 269.500596 Z M 521.601636 269.500596 " stroke="#112544" stroke-width="1.5" stroke-opacity="1" stroke-miterlimit="10"/><path fill="#757bff" d="M 592.707031 258.242188 C 592.707031 262.367188 589.359375 265.632812 585.324219 265.632812 C 583.003906 265.632812 580.859375 264.515625 579.484375 262.796875 C 578.457031 261.507812 577.855469 259.875 577.855469 258.15625 C 577.855469 254.03125 581.203125 250.679688 585.324219 250.679688 C 586.097656 250.679688 586.867188 250.765625 587.554688 251.023438 C 590.558594 252.140625 592.707031 254.890625 592.707031 258.242188 Z M 592.707031 258.242188 " fill-opacity="1" fill-rule="nonzero"/><path fill="#8d95ff" d="M 589.1875 255.75 C 589.1875 259.875 585.839844 263.226562 581.804688 263.226562 C 581.03125 263.226562 580.257812 263.140625 579.570312 262.882812 C 578.542969 261.59375 577.941406 259.960938 577.941406 258.242188 C 577.941406 254.117188 581.289062 250.765625 585.410156 250.765625 C 586.179688 250.765625 586.953125 250.851562 587.640625 251.109375 C 588.585938 252.398438 589.1875 254.03125 589.1875 255.75 Z M 589.1875 255.75 " fill-opacity="1" fill-rule="nonzero"/><path stroke-linecap="round" transform="matrix(0.858395, 0, 0, 0.859397, 244.025143, -23.811195)" fill="none" stroke-linejoin="round" d="M 406.20192 328.199077 C 406.20192 332.998953 402.30202 336.898852 397.601208 336.898852 C 392.800281 336.898852 389.000495 332.998953 389.000495 328.199077 C 389.000495 323.399201 392.900395 319.5993 397.601208 319.5993 C 402.30202 319.5993 406.20192 323.399201 406.20192 328.199077 Z M 406.20192 328.199077 " stroke="#112544" stroke-width="1.5" stroke-opacity="1" stroke-miterlimit="10"/><path fill="#757bff" d="M 617.425781 258.242188 C 617.425781 262.367188 614.078125 265.632812 610.046875 265.632812 C 607.726562 265.632812 605.582031 264.515625 604.207031 262.796875 C 603.179688 261.507812 602.578125 259.875 602.578125 258.15625 C 602.578125 254.03125 605.925781 250.679688 610.046875 250.679688 C 610.816406 250.679688 611.589844 250.765625 612.277344 251.023438 C 615.28125 252.140625 617.425781 254.890625 617.425781 258.242188 Z M 617.425781 258.242188 " fill-opacity="1" fill-rule="nonzero"/><path fill="#8d95ff" d="M 613.90625 255.75 C 613.90625 259.875 610.558594 263.226562 606.527344 263.226562 C 605.753906 263.226562 604.980469 263.140625 604.292969 262.882812 C 603.261719 261.59375 602.664062 259.960938 602.664062 258.242188 C 602.664062 254.117188 606.011719 250.765625 610.128906 250.765625 C 610.902344 250.765625 611.675781 250.851562 612.363281 251.109375 C 613.308594 252.398438 613.90625 254.03125 613.90625 255.75 Z M 613.90625 255.75 " fill-opacity="1" fill-rule="nonzero"/><path stroke-linecap="round" transform="matrix(0.858395, 0, 0, 0.859397, 244.025143, -23.811195)" fill="none" stroke-linejoin="round" d="M 434.998379 328.199077 C 434.998379 332.998953 431.098479 336.898852 426.402217 336.898852 C 421.601291 336.898852 417.801505 332.998953 417.801505 328.199077 C 417.801505 323.399201 421.701405 319.5993 426.402217 319.5993 C 431.198593 319.5993 434.998379 323.399201 434.998379 328.199077 Z M 434.998379 328.199077 " stroke="#112544" stroke-width="1.5" stroke-opacity="1" stroke-miterlimit="10"/><path fill="#757bff" d="M 642.234375 258.242188 C 642.234375 262.367188 638.886719 265.632812 634.851562 265.632812 C 632.535156 265.632812 630.390625 264.515625 629.015625 262.796875 C 627.984375 261.507812 627.382812 259.875 627.382812 258.15625 C 627.382812 254.03125 630.730469 250.679688 634.851562 250.679688 C 635.625 250.679688 636.398438 250.765625 637.085938 251.023438 C 640.089844 252.140625 642.234375 254.890625 642.234375 258.242188 Z M 642.234375 258.242188 " fill-opacity="1" fill-rule="nonzero"/><path fill="#8d95ff" d="M 638.628906 255.75 C 638.628906 259.875 635.28125 263.226562 631.246094 263.226562 C 630.476562 263.226562 629.703125 263.140625 629.015625 262.882812 C 627.984375 261.59375 627.382812 259.960938 627.382812 258.242188 C 627.382812 254.117188 630.730469 250.765625 634.851562 250.765625 C 635.625 250.765625 636.398438 250.851562 637.085938 251.109375 C 638.027344 252.398438 638.628906 254.03125 638.628906 255.75 Z M 638.628906 255.75 " fill-opacity="1" fill-rule="nonzero"/><path stroke-linecap="round" transform="matrix(0.858395, 0, 0, 0.859397, 244.025143, -23.811195)" fill="none" stroke-linejoin="round" d="M 463.899503 328.199077 C 463.899503 332.998953 459.999603 336.898852 455.29879 336.898852 C 450.497864 336.898852 446.698078 332.998953 446.698078 328.199077 C 446.698078 323.399201 450.597978 319.5993 455.29879 319.5993 C 459.999603 319.5993 463.899503 323.399201 463.899503 328.199077 Z M 463.899503 328.199077 " stroke="#112544" stroke-width="1.5" stroke-opacity="1" stroke-miterlimit="10"/><path fill="#757bff" d="M 666.957031 258.242188 C 666.957031 262.367188 663.609375 265.632812 659.574219 265.632812 C 657.257812 265.632812 655.109375 264.515625 653.738281 262.796875 C 652.707031 261.507812 652.105469 259.875 652.105469 258.15625 C 652.105469 254.03125 655.453125 250.679688 659.574219 250.679688 C 660.347656 250.679688 661.121094 250.765625 661.804688 251.023438 C 664.8125 252.140625 666.957031 254.890625 666.957031 258.242188 Z M 666.957031 258.242188 " fill-opacity="1" fill-rule="nonzero"/><path fill="#8d95ff" d="M 663.4375 255.75 C 663.4375 259.875 660.089844 263.226562 656.054688 263.226562 C 655.28125 263.226562 654.511719 263.140625 653.824219 262.882812 C 652.792969 261.59375 652.191406 259.960938 652.191406 258.242188 C 652.191406 254.117188 655.539062 250.765625 659.660156 250.765625 C 660.433594 250.765625 661.207031 250.851562 661.890625 251.109375 C 662.835938 252.398438 663.4375 254.03125 663.4375 255.75 Z M 663.4375 255.75 " fill-opacity="1" fill-rule="nonzero"/><path stroke-linecap="round" transform="matrix(0.858395, 0, 0, 0.859397, 244.025143, -23.811195)" fill="none" stroke-linejoin="round" d="M 492.700512 328.199077 C 492.700512 332.998953 488.800613 336.898852 484.0998 336.898852 C 479.298873 336.898852 475.499088 332.998953 475.499088 328.199077 C 475.499088 323.399201 479.398988 319.5993 484.0998 319.5993 C 488.900727 319.5993 492.700512 323.399201 492.700512 328.199077 Z M 492.700512 328.199077 " stroke="#112544" stroke-width="1.5" stroke-opacity="1" stroke-miterlimit="10"/><path fill="#757bff" d="M 691.765625 258.242188 C 691.765625 262.367188 688.417969 265.632812 684.382812 265.632812 C 682.0625 265.632812 679.917969 264.515625 678.546875 262.796875 C 677.515625 261.507812 676.914062 259.875 676.914062 258.15625 C 676.914062 254.03125 680.261719 250.679688 684.382812 250.679688 C 685.15625 250.679688 685.925781 250.765625 686.613281 251.023438 C 689.53125 252.140625 691.765625 254.890625 691.765625 258.242188 Z M 691.765625 258.242188 " fill-opacity="1" fill-rule="nonzero"/><path fill="#8d95ff" d="M 688.160156 255.75 C 688.160156 259.875 684.8125 263.226562 680.777344 263.226562 C 680.003906 263.226562 679.230469 263.140625 678.546875 262.882812 C 677.515625 261.59375 676.914062 259.960938 676.914062 258.242188 C 676.914062 254.117188 680.261719 250.765625 684.382812 250.765625 C 685.15625 250.765625 685.925781 250.851562 686.613281 251.109375 C 687.558594 252.398438 688.160156 254.03125 688.160156 255.75 Z M 688.160156 255.75 " fill-opacity="1" fill-rule="nonzero"/><path stroke-linecap="round" transform="matrix(0.858395, 0, 0, 0.859397, 244.025143, -23.811195)" fill="none" stroke-linejoin="round" d="M 521.601636 328.199077 C 521.601636 332.998953 517.701737 336.898852 513.000924 336.898852 C 508.199997 336.898852 504.400212 332.998953 504.400212 328.199077 C 504.400212 323.399201 508.300111 319.5993 513.000924 319.5993 C 517.701737 319.5993 521.601636 323.399201 521.601636 328.199077 Z M 521.601636 328.199077 " stroke="#112544" stroke-width="1.5" stroke-opacity="1" stroke-miterlimit="10"/><path fill="#ffffff" d="M 508.066406 65.652344 L 508.066406 113.691406 C 508.066406 118.332031 504.289062 122.113281 499.65625 122.113281 L 440.253906 122.113281 C 435.617188 122.113281 431.84375 118.332031 431.84375 113.691406 L 431.84375 65.652344 C 431.84375 61.011719 435.617188 57.230469 440.253906 57.230469 L 499.65625 57.230469 C 504.375 57.230469 508.066406 61.011719 508.066406 65.652344 Z M 508.066406 65.652344 " fill-opacity="1" fill-rule="nonzero"/><path fill="#ccd2ff" d="M 508.066406 65.652344 L 508.066406 113.691406 C 508.066406 118.332031 504.289062 122.113281 499.65625 122.113281 L 440.253906 122.113281 C 437.078125 122.113281 434.246094 120.308594 432.871094 117.644531 C 433.988281 118.160156 435.191406 118.417969 436.390625 118.417969 L 495.792969 118.417969 C 500.429688 118.417969 504.203125 114.636719 504.203125 109.996094 L 504.203125 62.042969 C 504.203125 60.582031 503.863281 59.292969 503.175781 58.089844 C 506.09375 59.378906 508.066406 62.300781 508.066406 65.652344 Z M 508.066406 65.652344 " fill-opacity="1" fill-rule="nonzero"/><g clip-path="url(#750963a1fd)"><path stroke-linecap="round" transform="matrix(0.858395, 0, 0, 0.859397, 244.025143, -23.811195)" fill="none" stroke-linejoin="round" d="M 307.598621 104.100333 L 307.598621 159.998886 C 307.598621 165.398746 303.198151 169.798632 297.80109 169.798632 L 228.599486 169.798632 C 223.197874 169.798632 218.801955 165.398746 218.801955 159.998886 L 218.801955 104.100333 C 218.801955 98.700472 223.197874 94.300586 228.599486 94.300586 L 297.80109 94.300586 C 303.298265 94.300586 307.598621 98.700472 307.598621 104.100333 Z M 307.598621 104.100333 " stroke="#112544" stroke-width="1.5" stroke-opacity="1" stroke-miterlimit="10"/></g><g clip-path="url(#484eeb52b4)"><path fill="#ffffff" d="M 764.210938 356.128906 L 764.210938 404.167969 C 764.210938 408.808594 760.4375 412.589844 755.800781 412.589844 L 696.398438 412.589844 C 691.765625 412.589844 687.988281 408.808594 687.988281 404.167969 L 687.988281 356.128906 C 687.988281 351.488281 691.765625 347.707031 696.398438 347.707031 L 755.800781 347.707031 C 760.4375 347.792969 764.210938 351.488281 764.210938 356.128906 Z M 764.210938 356.128906 " fill-opacity="1" fill-rule="nonzero"/></g><g clip-path="url(#5d6f89339f)"><path fill="#ccd2ff" d="M 764.210938 356.128906 L 764.210938 404.167969 C 764.210938 408.808594 760.4375 412.589844 755.800781 412.589844 L 696.398438 412.589844 C 693.222656 412.589844 690.390625 410.785156 689.015625 408.121094 C 690.132812 408.636719 691.335938 408.894531 692.535156 408.894531 L 751.9375 408.894531 C 756.574219 408.894531 760.351562 405.113281 760.351562 400.472656 L 760.351562 352.433594 C 760.351562 350.972656 760.007812 349.683594 759.320312 348.480469 C 762.238281 349.855469 764.210938 352.777344 764.210938 356.128906 Z M 764.210938 356.128906 " fill-opacity="1" fill-rule="nonzero"/></g><g clip-path="url(#537df8e2b7)"><path stroke-linecap="round" transform="matrix(0.858395, 0, 0, 0.859397, 244.025143, -23.811195)" fill="none" stroke-linejoin="round" d="M 605.997832 442.100674 L 605.997832 497.999227 C 605.997832 503.399087 601.601913 507.798973 596.200301 507.798973 L 526.998697 507.798973 C 521.601636 507.798973 517.201166 503.399087 517.201166 497.999227 L 517.201166 442.100674 C 517.201166 436.700814 521.601636 432.300928 526.998697 432.300928 L 596.200301 432.300928 C 601.601913 432.400925 605.997832 436.700814 605.997832 442.100674 Z M 605.997832 442.100674 " stroke="#112544" stroke-width="1.5" stroke-opacity="1" stroke-miterlimit="10"/></g><path stroke-linecap="round" transform="matrix(0.858395, 0, 0, 0.859397, 244.025143, -23.811195)" fill="none" stroke-linejoin="round" d="M 263.298127 169.798632 L 263.298127 227.301689 L 343.69886 227.301689 " stroke="#112544" stroke-width="1.5" stroke-opacity="1" stroke-miterlimit="10"/><path stroke-linecap="round" transform="matrix(0.858395, 0, 0, 0.859397, 244.025143, -23.811195)" fill="none" stroke-linejoin="round" d="M 517.30128 470.499939 L 461.801657 470.499939 L 461.801657 382.00223 " stroke="#112544" stroke-width="1.5" stroke-opacity="1" stroke-miterlimit="10"/><path fill="#e1e5ff" d="M 460.769531 105.011719 C 458.367188 103.550781 456.5625 101.660156 455.191406 99.339844 C 453.902344 96.933594 453.214844 94.441406 453.214844 91.691406 C 453.214844 88.339844 454.074219 85.160156 455.792969 82.238281 C 457.507812 79.316406 459.824219 76.996094 462.746094 75.191406 C 465.664062 73.472656 468.839844 72.527344 472.1875 72.527344 C 475.277344 72.527344 478.109375 73.214844 480.683594 74.503906 C 483.261719 75.792969 485.40625 77.683594 486.949219 80.003906 C 488.496094 82.324219 489.269531 84.988281 489.269531 87.996094 C 489.269531 89.886719 489.011719 91.691406 488.410156 93.324219 C 487.808594 95.042969 486.949219 96.417969 485.664062 97.449219 C 484.460938 98.566406 482.832031 99.082031 480.941406 99.082031 C 479.484375 99.082031 478.28125 98.738281 477.421875 98.136719 C 476.5625 97.449219 476.050781 96.675781 475.878906 95.816406 C 474.933594 96.933594 473.816406 97.792969 472.53125 98.394531 C 471.242188 98.910156 469.867188 99.253906 468.410156 99.253906 C 466.007812 99.253906 464.117188 98.480469 462.832031 97.019531 C 461.457031 95.558594 460.769531 93.667969 460.769531 91.347656 C 460.769531 89.113281 461.285156 87.136719 462.316406 85.503906 C 463.34375 83.871094 464.632812 82.582031 466.265625 81.722656 C 467.894531 80.863281 469.613281 80.433594 471.414062 80.433594 C 473.644531 80.433594 475.535156 81.207031 477.164062 82.753906 L 477.335938 81.980469 C 477.421875 81.550781 477.59375 81.292969 477.9375 81.035156 C 478.28125 80.777344 478.625 80.605469 479.054688 80.605469 C 479.484375 80.605469 479.914062 80.777344 480.167969 81.035156 C 480.511719 81.378906 480.597656 81.722656 480.597656 82.238281 L 480.511719 82.753906 L 479.054688 91.261719 C 478.882812 92.378906 478.710938 93.324219 478.710938 94.183594 C 478.710938 95.042969 478.882812 95.730469 479.3125 96.246094 C 479.65625 96.761719 480.253906 97.105469 481.027344 97.105469 C 482.917969 97.105469 484.289062 96.332031 485.320312 94.699219 C 486.351562 93.066406 486.863281 90.917969 486.863281 88.167969 C 486.863281 85.417969 486.179688 83.011719 484.71875 81.035156 C 483.347656 79.058594 481.457031 77.511719 479.226562 76.566406 C 476.992188 75.535156 474.589844 75.019531 472.1875 75.019531 C 469.269531 75.019531 466.433594 75.792969 463.945312 77.339844 C 461.371094 78.886719 459.3125 80.949219 457.851562 83.527344 C 456.304688 86.105469 455.535156 88.855469 455.535156 91.863281 C 455.535156 94.097656 456.046875 96.160156 457.164062 98.222656 C 458.195312 100.285156 459.738281 101.917969 461.800781 103.121094 C 463.859375 104.410156 466.179688 105.011719 469.011719 105.011719 C 470.8125 105.011719 472.445312 104.839844 473.730469 104.496094 C 475.105469 104.152344 476.648438 103.636719 478.367188 102.949219 C 478.539062 102.863281 478.710938 102.863281 478.882812 102.863281 C 479.226562 102.863281 479.484375 102.949219 479.65625 103.207031 C 479.828125 103.378906 479.996094 103.636719 479.996094 103.980469 C 479.996094 104.152344 479.914062 104.410156 479.828125 104.582031 C 479.742188 104.753906 479.570312 104.925781 479.398438 105.011719 C 476.222656 106.558594 472.789062 107.417969 469.011719 107.417969 C 465.921875 107.160156 463.171875 106.472656 460.769531 105.011719 Z M 476.136719 89.886719 L 476.820312 85.675781 C 475.535156 84.300781 473.816406 83.613281 471.757812 83.613281 C 470.46875 83.613281 469.269531 83.871094 468.152344 84.472656 C 467.035156 85.074219 466.09375 85.847656 465.40625 86.964844 C 464.71875 88.082031 464.375 89.371094 464.375 90.917969 C 464.375 92.636719 464.890625 93.925781 465.835938 94.871094 C 466.777344 95.730469 468.066406 96.160156 469.527344 96.160156 C 473.300781 96.160156 475.449219 94.011719 476.136719 89.886719 Z M 476.136719 89.886719 " fill-opacity="1" fill-rule="nonzero"/><path fill="#8d95ff" d="M 459.566406 103.894531 C 457.164062 102.433594 455.363281 100.542969 453.988281 98.222656 C 452.699219 95.816406 452.015625 93.324219 452.015625 90.574219 C 452.015625 87.222656 452.871094 84.042969 454.589844 81.121094 C 456.304688 78.199219 458.625 75.878906 461.542969 74.074219 C 464.460938 72.355469 467.636719 71.410156 470.984375 71.410156 C 474.074219 71.410156 476.90625 72.097656 479.484375 73.386719 C 482.058594 74.675781 484.203125 76.566406 485.75 78.886719 C 487.292969 81.207031 488.066406 83.871094 488.066406 86.878906 C 488.066406 88.769531 487.808594 90.574219 487.207031 92.207031 C 486.609375 93.925781 485.75 95.300781 484.460938 96.332031 C 483.261719 97.449219 481.628906 97.964844 479.742188 97.964844 C 478.28125 97.964844 477.078125 97.621094 476.222656 97.019531 C 475.363281 96.332031 474.847656 95.558594 474.675781 94.699219 C 473.730469 95.816406 472.617188 96.675781 471.328125 97.277344 C 470.039062 97.792969 468.667969 98.136719 467.207031 98.136719 C 464.804688 98.136719 462.914062 97.363281 461.628906 95.902344 C 460.253906 94.441406 459.566406 92.550781 459.566406 90.230469 C 459.566406 87.996094 460.082031 86.019531 461.113281 84.386719 C 462.144531 82.753906 463.429688 81.464844 465.0625 80.605469 C 466.691406 79.746094 468.410156 79.316406 470.210938 79.316406 C 472.445312 79.316406 474.332031 80.089844 475.964844 81.636719 L 476.136719 80.863281 C 476.222656 80.433594 476.394531 80.175781 476.734375 79.917969 C 477.078125 79.660156 477.421875 79.488281 477.851562 79.488281 C 478.28125 79.488281 478.710938 79.660156 478.96875 79.917969 C 479.3125 80.261719 479.398438 80.605469 479.398438 81.121094 L 479.3125 81.636719 L 477.851562 90.144531 C 477.679688 91.261719 477.507812 92.207031 477.507812 93.066406 C 477.507812 93.925781 477.679688 94.613281 478.109375 95.128906 C 478.453125 95.644531 479.054688 95.988281 479.828125 95.988281 C 481.714844 95.988281 483.089844 95.214844 484.117188 93.582031 C 485.148438 91.949219 485.664062 89.800781 485.664062 87.050781 C 485.664062 84.300781 484.976562 81.894531 483.515625 79.917969 C 482.144531 77.941406 480.253906 76.394531 478.023438 75.449219 C 475.792969 74.417969 473.386719 73.902344 470.984375 73.902344 C 468.066406 73.902344 465.234375 74.675781 462.746094 76.222656 C 460.167969 77.769531 458.109375 79.832031 456.648438 82.410156 C 455.105469 84.988281 454.332031 87.738281 454.332031 90.746094 C 454.332031 92.980469 454.847656 95.042969 455.964844 97.105469 C 456.992188 99.167969 458.539062 100.800781 460.597656 102.003906 C 462.660156 103.292969 464.976562 103.894531 467.808594 103.894531 C 469.613281 103.894531 471.242188 103.722656 472.53125 103.378906 C 473.902344 103.035156 475.449219 102.519531 477.164062 101.832031 C 477.335938 101.746094 477.507812 101.746094 477.679688 101.746094 C 478.023438 101.746094 478.28125 101.832031 478.453125 102.089844 C 478.625 102.261719 478.796875 102.519531 478.796875 102.863281 C 478.796875 103.035156 478.710938 103.292969 478.625 103.464844 C 478.539062 103.636719 478.367188 103.808594 478.195312 103.894531 C 475.019531 105.441406 471.585938 106.300781 467.808594 106.300781 C 464.71875 106.042969 461.972656 105.355469 459.566406 103.894531 Z M 474.933594 88.683594 L 475.621094 84.472656 C 474.332031 83.097656 472.617188 82.410156 470.554688 82.410156 C 469.269531 82.410156 468.066406 82.667969 466.949219 83.269531 C 465.835938 83.871094 464.890625 84.644531 464.203125 85.761719 C 463.515625 86.878906 463.171875 88.167969 463.171875 89.714844 C 463.171875 91.433594 463.6875 92.722656 464.632812 93.667969 C 465.578125 94.527344 466.863281 94.957031 468.324219 94.957031 C 472.101562 94.957031 474.246094 92.894531 474.933594 88.683594 Z M 474.933594 88.683594 " fill-opacity="1" fill-rule="nonzero"/><path fill="#e1e5ff" d="M 739.835938 376.582031 L 736.828125 376.582031 L 736.828125 372.972656 C 736.828125 367.902344 732.710938 363.691406 727.558594 363.691406 C 722.496094 363.691406 718.289062 367.816406 718.289062 372.972656 L 718.289062 376.582031 L 716.058594 376.582031 C 714.941406 376.582031 714.082031 377.441406 714.082031 378.558594 L 714.082031 398.496094 C 714.082031 399.613281 714.941406 400.472656 716.058594 400.472656 L 739.835938 400.472656 C 740.949219 400.472656 741.808594 399.613281 741.808594 398.496094 L 741.808594 378.558594 C 741.808594 377.441406 740.949219 376.582031 739.835938 376.582031 Z M 733.652344 376.582031 L 721.464844 376.582031 L 721.464844 372.972656 C 721.464844 369.621094 724.210938 366.871094 727.558594 366.871094 C 730.90625 366.871094 733.652344 369.621094 733.652344 372.972656 Z M 733.652344 376.582031 " fill-opacity="1" fill-rule="nonzero"/><path fill="#fc6054" d="M 738.03125 374.605469 L 735.027344 374.605469 L 735.027344 370.996094 C 735.027344 365.925781 730.90625 361.714844 725.757812 361.714844 C 720.691406 361.714844 716.484375 365.839844 716.484375 370.996094 L 716.484375 374.605469 L 714.253906 374.605469 C 713.136719 374.605469 712.28125 375.464844 712.28125 376.582031 L 712.28125 396.519531 C 712.28125 397.636719 713.136719 398.496094 714.253906 398.496094 L 738.03125 398.496094 C 739.148438 398.496094 740.007812 397.636719 740.007812 396.519531 L 740.007812 376.582031 C 740.007812 375.550781 739.148438 374.605469 738.03125 374.605469 Z M 731.851562 374.605469 L 719.660156 374.605469 L 719.660156 370.996094 C 719.660156 367.644531 722.410156 364.894531 725.757812 364.894531 C 729.105469 364.894531 731.851562 367.644531 731.851562 370.996094 Z M 731.851562 374.605469 " fill-opacity="1" fill-rule="nonzero"/><path fill="#ffffff" d="M 728.246094 391.105469 L 724.039062 391.105469 C 723.78125 391.105469 723.609375 390.847656 723.695312 390.675781 L 724.8125 386.378906 C 724.210938 385.949219 723.867188 385.261719 723.867188 384.488281 C 723.867188 383.199219 724.898438 382.167969 726.1875 382.167969 C 727.472656 382.167969 728.503906 383.199219 728.503906 384.488281 C 728.503906 385.261719 728.074219 385.949219 727.558594 386.378906 L 728.675781 390.675781 C 728.675781 390.847656 728.503906 391.105469 728.246094 391.105469 Z M 728.246094 391.105469 " fill-opacity="1" fill-rule="nonzero"/><path fill="#fcbba4" d="M 441.714844 475.929688 C 441.714844 475.929688 435.449219 485.554688 419.996094 477.390625 L 419.910156 476.1875 L 419.136719 465.960938 L 440.769531 465.960938 L 441.199219 470.085938 Z M 441.714844 475.929688 " fill-opacity="1" fill-rule="nonzero"/><path fill="#f2a07c" d="M 441.199219 470.085938 C 440.941406 470 440.597656 470 440.339844 469.914062 C 438.453125 469.484375 436.5625 468.796875 434.589844 468.710938 C 432.613281 468.625 430.46875 469.3125 429.523438 471.03125 C 428.921875 472.148438 428.921875 473.523438 428.238281 474.554688 C 427.378906 476.101562 425.402344 476.789062 423.601562 476.875 C 422.3125 476.875 421.113281 476.617188 419.910156 476.1875 L 419.136719 465.960938 L 440.769531 465.960938 Z M 441.199219 470.085938 " fill-opacity="1" fill-rule="nonzero"/><path fill="#fcbba4" d="M 360.082031 461.40625 L 359.222656 469.484375 L 359.050781 471.375 C 359.050781 471.375 352.011719 478.421875 340.164062 470.429688 C 339.308594 469.828125 338.363281 469.140625 337.503906 468.453125 L 339.050781 457.109375 Z M 360.082031 461.40625 " fill-opacity="1" fill-rule="nonzero"/><path fill="#f2a07c" d="M 360.082031 461.40625 L 359.222656 469.484375 C 357.074219 469.226562 355.015625 468.367188 352.957031 467.59375 C 350.121094 466.648438 346.945312 465.875 344.285156 467.25 C 342.742188 468.023438 341.539062 469.398438 340.164062 470.34375 C 339.308594 469.742188 338.363281 469.054688 337.503906 468.367188 L 339.050781 457.023438 Z M 360.082031 461.40625 " fill-opacity="1" fill-rule="nonzero"/><path stroke-linecap="round" transform="matrix(0.858395, 0, 0, 0.859397, 244.025143, -23.811195)" fill="none" stroke-linejoin="round" d="M 230.301426 581.501611 C 230.301426 581.501611 223.002197 592.701321 204.999859 583.201567 L 203.998718 569.901911 L 229.200171 569.901911 Z M 230.301426 581.501611 " stroke="#112544" stroke-width="1.5" stroke-opacity="1" stroke-miterlimit="10"/><path fill="#112544" d="M 467.550781 495.179688 L 467.550781 495.265625 C 467.550781 496.039062 466.949219 496.640625 466.179688 496.640625 L 416.992188 496.640625 C 416.21875 496.640625 415.617188 496.039062 415.617188 495.265625 C 415.703125 493.976562 415.703125 491.65625 415.445312 487.445312 C 415.015625 479.539062 419.910156 477.390625 419.910156 477.390625 C 435.363281 485.554688 441.628906 475.929688 441.628906 475.929688 L 448.066406 482.203125 L 460.167969 485.726562 C 464.546875 486.84375 467.550781 490.796875 467.550781 495.179688 Z M 467.550781 495.179688 " fill-opacity="1" fill-rule="nonzero"/><path fill="#66d3d8" d="M 461.886719 387.839844 L 454.589844 458.914062 C 454.160156 462.78125 451.5 465.875 447.894531 466.992188 C 447.035156 467.25 446.175781 467.335938 445.234375 467.335938 L 415.101562 467.335938 C 409.09375 467.335938 404.546875 461.664062 406.003906 455.820312 L 423 383.714844 C 423.859375 380.191406 423.601562 376.496094 422.3125 373.144531 C 408.921875 338.425781 402.914062 307.917969 404.714844 281.960938 L 447.121094 281.960938 L 449.523438 297 L 461.542969 371.082031 C 462.488281 376.582031 462.574219 382.167969 461.886719 387.839844 Z M 461.886719 387.839844 " fill-opacity="1" fill-rule="nonzero"/><path fill="#47b6c3" d="M 445.832031 463.726562 C 446.777344 464.585938 447.464844 465.703125 447.894531 466.820312 C 447.035156 467.078125 446.175781 467.164062 445.234375 467.164062 L 415.101562 467.164062 C 409.09375 467.164062 404.546875 461.492188 406.003906 455.648438 L 423 383.542969 C 423.859375 380.019531 423.601562 376.324219 422.3125 372.972656 C 408.921875 338.253906 402.914062 307.746094 404.714844 281.789062 L 447.121094 281.789062 L 449.523438 296.828125 C 441.972656 301.984375 432.957031 305.167969 427.207031 312.300781 C 418.367188 323.128906 420.425781 339.285156 425.832031 352.261719 C 431.242188 365.152344 439.394531 377.183594 441.972656 390.933594 C 444.375 404.253906 440.941406 418.605469 432.699219 429.347656 C 429.523438 433.558594 425.574219 437.253906 423.34375 441.980469 C 421.027344 446.707031 420.855469 453.066406 424.71875 456.679688 C 430.210938 461.835938 440.339844 458.484375 445.832031 463.726562 Z M 445.832031 463.726562 " fill-opacity="1" fill-rule="nonzero"/><path stroke-linecap="round" transform="matrix(0.858395, 0, 0, 0.859397, 244.025143, -23.811195)" fill="none" stroke-linejoin="round" d="M 208.499303 474.099846 L 188.699462 558.002219 C 187.102187 564.902041 192.299019 571.401873 199.297906 571.401873 L 234.401554 571.401873 C 239.998843 571.401873 244.699655 567.201981 245.30034 561.602126 L 253.800938 478.899722 C 254.601851 472.39989 254.501737 465.800061 253.500596 459.300229 L 236.699628 355.598368 L 187.297864 355.598368 C 185.099904 385.802131 192.198905 421.301213 207.798504 461.700167 C 209.200101 465.700063 209.500444 469.999952 208.499303 474.099846 Z M 208.499303 474.099846 " stroke="#112544" stroke-width="1.5" stroke-opacity="1" stroke-miterlimit="10"/><path stroke-linecap="round" transform="matrix(0.858395, 0, 0, 0.859397, 244.025143, -23.811195)" fill="none" stroke-linejoin="round" d="M 133.900637 576.201748 C 133.900637 576.201748 124.499012 585.701502 108.799299 572.701839 L 110.601353 559.402183 L 135.202121 564.502051 Z M 133.900637 576.201748 " stroke="#112544" stroke-width="1.5" stroke-opacity="1" stroke-miterlimit="10"/><path fill="#112544" d="M 380.253906 495.523438 L 380.253906 495.609375 C 380.082031 496.296875 379.394531 496.8125 378.707031 496.640625 L 330.550781 486.671875 C 329.777344 486.5 329.351562 485.726562 329.519531 485.039062 C 329.863281 483.835938 330.378906 481.515625 330.980469 477.390625 C 332.097656 469.570312 337.417969 468.453125 337.417969 468.453125 C 350.894531 479.625 358.964844 471.460938 358.964844 471.460938 L 364.027344 478.9375 L 375.1875 484.867188 C 379.050781 486.757812 381.195312 491.140625 380.253906 495.523438 Z M 380.253906 495.523438 " fill-opacity="1" fill-rule="nonzero"/><path fill="#66d3d8" d="M 423.34375 281.875 L 422.226562 290.984375 L 412.097656 372.800781 C 411.242188 379.417969 409.523438 385.949219 406.949219 392.136719 L 378.707031 457.796875 C 377.332031 460.976562 374.328125 463.125 370.808594 463.46875 C 370.550781 463.46875 370.296875 463.46875 370.039062 463.46875 L 334.070312 463.46875 C 326.859375 463.46875 322.398438 455.648438 325.917969 449.457031 L 364.285156 382.425781 C 366.261719 378.902344 367.203125 374.863281 367.117188 370.738281 C 366.175781 343.324219 367.890625 316.082031 381.539062 281.960938 L 423.34375 281.960938 Z M 423.34375 281.875 " fill-opacity="1" fill-rule="nonzero"/><path fill="#47b6c3" d="M 423.34375 281.875 L 422.226562 290.984375 C 416.476562 288.40625 410.382812 287.460938 403.34375 289.4375 C 393.042969 292.1875 384.542969 300.695312 381.625 311.011719 C 378.019531 323.988281 383.171875 337.566406 385.316406 350.886719 C 389.867188 379.160156 379.738281 409.324219 359.050781 429.089844 C 352.785156 435.105469 339.308594 444.386719 345.660156 450.316406 C 349.523438 453.929688 356.390625 450.746094 361.28125 452.894531 C 365.832031 454.875 369.78125 458.742188 370.894531 463.554688 C 370.636719 463.554688 370.382812 463.554688 370.125 463.554688 L 334.15625 463.554688 C 326.945312 463.554688 322.484375 455.734375 326 449.542969 L 364.371094 382.511719 C 366.347656 378.988281 367.289062 374.949219 367.203125 370.824219 C 366.261719 343.410156 367.976562 316.167969 381.625 282.046875 L 423.34375 282.046875 Z M 423.34375 281.875 " fill-opacity="1" fill-rule="nonzero"/><path stroke-linecap="round" transform="matrix(0.858395, 0, 0, 0.859397, 244.025143, -23.811195)" fill="none" stroke-linejoin="round" d="M 104.8994 567.001986 L 146.801706 567.001986 C 151.202176 567.001986 155.102076 564.402054 156.799465 560.402157 L 189.700603 483.99959 C 192.699476 476.799776 194.701758 469.29997 195.698348 461.500172 L 208.799645 355.698365 L 160.09868 355.698365 C 144.198739 395.401883 142.201007 427.20106 143.302263 459.000237 C 143.49794 463.700115 142.301122 468.399993 139.998497 472.599885 L 95.302097 550.597866 C 91.302083 557.902222 96.59903 567.001986 104.8994 567.001986 Z M 104.8994 567.001986 " stroke="#112544" stroke-width="1.5" stroke-opacity="1" stroke-miterlimit="10"/><path fill="#8d95ff" d="M 483.089844 286.34375 L 482.402344 286.773438 C 479.140625 288.578125 474.933594 287.546875 472.960938 284.367188 L 447.550781 244.148438 L 447.378906 265.546875 L 447.207031 281.960938 L 381.539062 281.960938 C 380.597656 274.140625 379.308594 263.226562 378.878906 252.3125 C 378.277344 236.671875 379.308594 220.945312 385.574219 213.984375 C 387.207031 212.179688 389.007812 210.546875 390.8125 209.257812 C 403.429688 199.976562 419.652344 200.75 419.652344 200.75 L 432.183594 203.671875 L 435.019531 204.359375 C 441.714844 205.90625 447.980469 208.742188 453.558594 212.695312 C 456.050781 214.5 459.738281 219.054688 463.945312 225.15625 C 472.359375 237.101562 482.660156 254.71875 488.925781 266.835938 C 492.703125 273.710938 490.042969 282.476562 483.089844 286.34375 Z M 483.089844 286.34375 " fill-opacity="1" fill-rule="nonzero"/><path fill="#757bff" d="M 464.03125 224.984375 C 461.199219 222.75 458.28125 220.601562 455.191406 218.625 C 450.296875 215.53125 444.976562 212.953125 439.394531 211.0625 C 429.4375 207.710938 418.878906 206.335938 408.40625 207.195312 C 403.429688 207.625 398.707031 209.085938 393.816406 209.6875 C 392.355469 209.859375 391.496094 209.601562 390.898438 209.085938 C 403.515625 199.804688 419.738281 200.578125 419.738281 200.578125 L 432.269531 203.5 L 435.105469 204.1875 C 441.800781 205.734375 448.066406 208.570312 453.644531 212.523438 C 456.132812 214.328125 459.824219 218.96875 464.03125 224.984375 Z M 464.03125 224.984375 " fill-opacity="1" fill-rule="nonzero"/><path stroke-linecap="round" transform="matrix(0.858395, 0, 0, 0.859397, 244.025143, -23.811195)" fill-opacity="1" fill="#ffffff" fill-rule="nonzero" stroke-linejoin="round" d="M 220.499344 264.800718 L 220.39923 265.300705 C 218.701841 271.30055 213.100001 275.500441 206.801913 275.500441 C 205.50043 275.500441 204.098832 275.300446 202.8019 274.900457 C 199.197791 273.900483 196.198919 271.500545 194.401415 268.20063 C 193.400274 266.400677 192.79959 264.400729 192.699476 262.40078 C 199.498134 261.200811 204.699517 261.200811 204.699517 261.200811 L 219.297975 264.600723 Z M 220.499344 264.800718 " stroke="#112544" stroke-width="1.5" stroke-opacity="1" stroke-miterlimit="10"/><path fill="#757bff" d="M 447.292969 265.460938 L 447.121094 281.875 L 381.453125 281.875 C 380.511719 274.054688 379.222656 263.140625 378.792969 252.226562 C 381.023438 250.679688 383.773438 249.820312 386.433594 249.304688 C 390.46875 248.445312 394.757812 247.84375 397.933594 245.179688 C 400.425781 243.117188 400.855469 242.171875 402.226562 239.25 C 402.914062 237.703125 398.707031 232.632812 400.941406 232.976562 C 403.085938 233.320312 408.148438 239.9375 408.492188 241.484375 C 409.695312 246.898438 412.871094 248.101562 416.476562 252.398438 C 421.882812 258.929688 429.867188 263.398438 438.28125 264.515625 C 441.285156 264.945312 444.375 265.03125 447.292969 265.460938 Z M 447.292969 265.460938 " fill-opacity="1" fill-rule="nonzero"/><path stroke-linecap="round" transform="matrix(0.858395, 0, 0, 0.859397, 244.025143, -23.811195)" fill-opacity="1" fill="#fcbba4" fill-rule="nonzero" stroke-linejoin="round" d="M 285.400592 337.998823 C 279.598524 326.899111 271.298154 312.199491 263.097899 299.49982 C 254.001166 300.199802 245.30034 304.399693 236.99997 311.799502 L 266.501778 358.59829 C 268.799852 362.298194 273.700893 363.598161 277.500679 361.398218 L 278.401706 360.898231 C 286.601962 356.398347 289.700948 346.198611 285.400592 337.998823 Z M 285.400592 337.998823 " stroke="#112544" stroke-width="1.5" stroke-opacity="1" stroke-miterlimit="10"/><path stroke-linecap="round" transform="matrix(0.858395, 0, 0, 0.859397, 244.025143, -23.811195)" fill="none" stroke-linejoin="round" d="M 278.50182 360.898231 L 277.700907 361.398218 C 273.901121 363.498163 269.000081 362.298194 266.702007 358.59829 L 237.100084 311.799502 L 236.699628 355.798363 L 160.198794 355.798363 C 157.600378 333.598937 153.800592 291.600024 164.999721 276.70041 C 171.598151 267.900638 183.598193 264.100736 192.699476 262.500778 C 199.498134 261.300809 204.699517 261.300809 204.699517 261.300809 L 219.297975 264.700721 L 220.499344 265.000713 L 222.60174 265.5007 C 230.40154 267.300653 237.700769 270.600568 244.199085 275.200449 C 252.799797 281.400288 274.401692 316.999367 285.400592 338.098821 C 289.700948 346.198611 286.601962 356.398347 278.50182 360.898231 Z M 278.50182 360.898231 " stroke="#112544" stroke-width="1.5" stroke-opacity="1" stroke-miterlimit="10"/><path fill="#efa130" d="M 534.164062 242.515625 C 534.078125 242.34375 533.992188 242.171875 533.992188 242.085938 C 531.332031 236.585938 524.71875 234.351562 519.3125 237.015625 L 399.222656 295.539062 C 387.550781 282.21875 367.460938 278.007812 350.035156 286.515625 C 336.472656 293.132812 327.976562 305.855469 326.429688 319.433594 C 325.660156 326.480469 326.773438 333.785156 330.035156 340.574219 C 339.648438 360.339844 364.285156 368.246094 384.886719 358.191406 C 401.367188 350.199219 410.382812 333.183594 408.492188 316.597656 C 408.492188 316.253906 408.40625 315.910156 408.40625 315.566406 L 408.664062 315.480469 L 450.8125 294.9375 L 458.367188 310.410156 C 459.3125 312.386719 461.714844 313.246094 463.773438 312.300781 L 474.847656 306.886719 C 476.820312 305.941406 477.679688 303.449219 476.734375 301.46875 L 475.105469 298.03125 L 469.269531 285.914062 L 472.703125 284.28125 L 496.824219 272.507812 L 510.386719 300.265625 C 511.328125 302.242188 513.734375 303.101562 515.707031 302.15625 L 526.78125 296.742188 C 528.753906 295.796875 529.613281 293.390625 528.667969 291.328125 L 527.039062 287.890625 L 515.191406 263.484375 L 518.625 261.851562 L 529.183594 256.695312 C 534.164062 254.289062 536.480469 247.929688 534.164062 242.515625 Z M 344.714844 316.082031 C 345.230469 315.566406 345.832031 315.136719 346.515625 314.792969 C 347.976562 314.105469 349.609375 314.019531 351.066406 314.535156 C 352.527344 315.050781 353.726562 316.082031 354.5 317.542969 L 362.484375 334.042969 L 363.515625 336.105469 C 364.972656 339.113281 363.683594 342.636719 360.765625 344.097656 C 357.761719 345.558594 354.242188 344.269531 352.785156 341.347656 L 343.769531 322.871094 C 342.570312 320.464844 343.082031 317.800781 344.714844 316.082031 Z M 344.714844 316.082031 " fill-opacity="1" fill-rule="nonzero"/><path fill="#ffc25e" d="M 533.992188 242.085938 C 531.332031 236.585938 524.71875 234.351562 519.3125 237.015625 L 399.222656 295.539062 C 387.550781 282.21875 367.460938 278.007812 350.035156 286.515625 C 336.472656 293.132812 327.976562 305.855469 326.429688 319.433594 C 326.945312 323.644531 328.0625 327.855469 330.035156 331.894531 C 339.648438 351.660156 364.285156 359.566406 384.886719 349.511719 C 398.449219 342.894531 407.035156 330.175781 408.492188 316.597656 C 408.578125 316.253906 408.578125 315.824219 408.578125 315.480469 C 408.835938 312.644531 408.75 309.722656 408.320312 306.886719 L 450.726562 286.171875 L 458.28125 301.640625 C 459.226562 303.621094 461.628906 304.480469 463.6875 303.535156 L 474.761719 298.117188 C 474.847656 298.117188 474.847656 298.03125 474.933594 298.03125 L 469.097656 285.914062 L 465.664062 278.867188 L 496.566406 263.742188 L 510.128906 291.5 C 511.070312 293.476562 513.476562 294.335938 515.449219 293.390625 L 526.523438 287.976562 C 526.609375 287.976562 526.609375 287.890625 526.695312 287.890625 L 514.847656 263.484375 L 511.414062 256.4375 L 528.839844 247.929688 C 531.332031 246.726562 533.132812 244.75 534.164062 242.34375 C 534.078125 242.429688 533.992188 242.257812 533.992188 242.085938 Z M 362.398438 342.636719 C 361.882812 343.152344 361.367188 343.582031 360.679688 343.925781 C 357.675781 345.386719 354.15625 344.097656 352.699219 341.175781 L 344.714844 324.675781 L 343.683594 322.613281 C 342.226562 319.691406 343.425781 316.082031 346.433594 314.621094 C 347.890625 313.933594 349.523438 313.847656 350.980469 314.363281 C 352.441406 314.878906 353.640625 315.910156 354.414062 317.371094 L 363.429688 335.847656 C 364.542969 338.253906 364.027344 340.917969 362.398438 342.636719 Z M 362.398438 342.636719 " fill-opacity="1" fill-rule="nonzero"/><path stroke-linecap="round" transform="matrix(0.858395, 0, 0, 0.859397, 244.025143, -23.811195)" fill="none" stroke-linejoin="round" d="M 331.298362 366.798078 L 315.498535 334.498914 L 331.798932 326.599118 C 338.101571 323.499199 340.800101 315.799398 337.701114 309.499561 C 334.602128 303.099727 326.897892 300.499794 320.599804 303.599714 L 180.699434 371.697951 C 167.102117 356.198352 143.698168 351.298479 123.397757 361.198223 C 99.402225 372.797923 88.999458 401.001738 100.198587 424.001143 C 111.402266 447.000547 140.098611 456.200309 164.098694 444.500612 C 183.698307 435.000858 194.201187 414.601386 191.498106 394.901896 L 240.89987 370.797974 L 249.70081 388.802054 C 250.802065 391.101994 253.60071 392.101968 255.998898 391.001997 L 268.899966 384.70216 C 271.19804 383.602188 272.199181 380.702263 271.097926 378.397778 L 262.301536 360.398244 L 294.301647 344.798647 L 310.101474 377.097811 C 311.198179 379.397752 314.001374 380.397726 316.299448 379.297754 L 329.200516 372.997917 C 331.49859 371.997943 332.499731 369.198016 331.298362 366.798078 Z M 135.898369 428.001039 C 132.398926 429.700995 128.298798 428.201034 126.601409 424.801122 L 116.098528 403.301678 C 114.401139 399.901766 115.8983 395.701875 119.30218 394.001919 C 120.999569 393.20194 122.901737 393.101942 124.599126 393.701927 C 126.301066 394.301911 127.698113 395.50188 128.59914 397.201836 L 139.102021 418.70128 C 140.79941 422.101192 139.302249 426.301083 135.898369 428.001039 Z M 135.898369 428.001039 " stroke="#112544" stroke-width="1.5" stroke-opacity="1" stroke-miterlimit="10"/><path fill="#fc6054" d="M 441.714844 178.664062 C 437.679688 179.78125 433.558594 177.460938 432.441406 173.421875 C 432.183594 172.476562 432.097656 171.445312 432.183594 170.5 C 431.5 170.414062 430.898438 170.328125 430.210938 170.15625 C 429.007812 173.851562 426.261719 176.945312 422.570312 178.320312 C 422.914062 181.929688 420.683594 185.367188 417.078125 186.398438 C 413.042969 187.515625 408.921875 185.195312 407.808594 181.15625 C 407.207031 179.09375 407.550781 177.03125 408.578125 175.3125 C 407.121094 173.765625 406.003906 171.875 405.402344 169.726562 C 403.515625 162.765625 407.550781 155.632812 414.417969 153.742188 C 418.023438 152.710938 421.628906 153.3125 424.546875 155.117188 C 425.832031 153.054688 427.894531 151.417969 430.46875 150.644531 C 435.875 149.183594 441.457031 152.277344 442.914062 157.695312 C 443.515625 160.015625 443.34375 162.335938 442.484375 164.398438 C 444.632812 165.257812 446.261719 167.0625 446.949219 169.382812 C 448.066406 173.421875 445.75 177.546875 441.714844 178.664062 Z M 441.714844 178.664062 " fill-opacity="1" fill-rule="nonzero"/><path fill="#e64b38" d="M 425.660156 167.148438 C 425.660156 167.148438 425.574219 171.359375 430.296875 173.851562 L 431.585938 170.15625 C 429.09375 169.984375 427.292969 168.78125 425.660156 167.148438 Z M 425.660156 167.148438 " fill-opacity="1" fill-rule="nonzero"/><path fill="#e64b38" d="M 442.828125 157.265625 C 440.339844 154.34375 436.304688 152.96875 432.355469 154.085938 C 429.78125 154.773438 427.722656 156.40625 426.433594 158.554688 C 423.515625 156.75 419.824219 156.148438 416.304688 157.179688 C 409.351562 159.070312 405.316406 166.203125 407.292969 173.164062 C 407.378906 173.507812 407.464844 173.851562 407.636719 174.195312 C 406.605469 172.90625 405.832031 171.359375 405.402344 169.726562 C 403.515625 162.765625 407.550781 155.632812 414.417969 153.742188 C 418.023438 152.710938 421.628906 153.3125 424.546875 155.117188 C 425.832031 153.054688 427.894531 151.417969 430.46875 150.644531 C 435.703125 149.183594 441.113281 152.105469 442.828125 157.265625 Z M 442.828125 157.265625 " fill-opacity="1" fill-rule="nonzero"/><path stroke-linecap="round" transform="matrix(0.858395, 0, 0, 0.859397, 244.025143, -23.811195)" fill="none" stroke-linejoin="round" d="M 230.301426 235.601474 C 225.600613 236.90144 220.799686 234.20151 219.498203 229.501632 C 219.197861 228.40166 219.097747 227.201691 219.197861 226.10172 C 218.401498 226.001722 217.7007 225.901725 216.899787 225.70173 C 215.498189 230.001619 212.299088 233.601526 207.998732 235.201484 C 208.399188 239.401376 205.800772 243.401272 201.60053 244.601241 C 196.899718 245.901207 192.098791 243.201277 190.801858 238.501399 C 190.101059 236.101461 190.501516 233.701523 191.698334 231.701575 C 190.000945 229.901622 188.699462 227.701678 187.998663 225.201743 C 185.800703 217.101953 190.501516 208.802168 198.501543 206.602225 C 202.701785 205.402256 206.902027 206.102238 210.301357 208.202183 C 211.798518 205.802245 214.201256 203.897749 217.200129 202.997773 C 223.498217 201.297817 230.001083 204.897723 231.698473 211.202106 C 232.399271 213.902036 232.199043 216.601966 231.197902 219.001904 C 233.700755 220.001878 235.598372 222.101823 236.399285 224.801754 C 237.700769 229.501632 235.002238 234.301508 230.301426 235.601474 Z M 230.301426 235.601474 " stroke="#112544" stroke-width="1.5" stroke-opacity="1" stroke-miterlimit="10"/><path fill="#fcbba4" d="M 447.035156 179.78125 C 446.347656 180.8125 445.234375 181.414062 444.03125 181.328125 C 445.40625 188.460938 441.113281 195.507812 433.988281 197.484375 C 432.785156 197.828125 431.585938 198 430.382812 198 L 430.296875 198 L 429.867188 199.375 L 429.179688 201.78125 L 428.835938 202.8125 C 427.636719 206.851562 423.429688 209.257812 419.308594 208.054688 C 417.25 207.453125 415.703125 206.078125 414.675781 204.359375 C 413.730469 202.640625 413.472656 200.578125 414.074219 198.515625 L 415.875 192.15625 L 416.304688 190.78125 L 416.90625 188.804688 C 415.960938 189.40625 414.761719 189.492188 413.730469 188.976562 C 412.097656 188.117188 411.414062 186.140625 412.183594 184.421875 C 412.785156 183.21875 413.988281 182.53125 415.273438 182.53125 L 414.933594 181.328125 C 414.675781 180.46875 414.503906 179.523438 414.503906 178.664062 C 416.648438 179.265625 419.050781 179.265625 421.371094 178.664062 C 425.746094 177.460938 429.007812 174.109375 430.296875 170.070312 C 432.097656 170.585938 433.988281 170.671875 435.875 170.15625 C 437.078125 169.8125 438.195312 169.296875 439.222656 168.523438 C 440.167969 169.640625 441.027344 171.015625 441.542969 172.476562 C 441.714844 172.90625 441.886719 173.421875 442.058594 173.9375 L 442.316406 175.226562 C 443.429688 174.539062 444.890625 174.453125 446.003906 175.226562 C 447.550781 176.171875 447.980469 178.234375 447.035156 179.78125 Z M 447.035156 179.78125 " fill-opacity="1" fill-rule="nonzero"/><path fill="#f2a07c" d="M 430.382812 198 L 429.953125 199.375 L 429.265625 201.78125 C 425.917969 200.921875 424.375 196.625 424.375 196.625 C 426.691406 197.398438 428.75 197.914062 430.382812 198 Z M 430.382812 198 " fill-opacity="1" fill-rule="nonzero"/><path fill="#f2a07c" d="M 441.542969 172.476562 C 440.855469 173.59375 439.738281 174.453125 438.710938 175.140625 C 436.390625 176.429688 433.644531 176.859375 430.984375 177.117188 C 428.324219 177.375 425.660156 177.546875 423.171875 178.578125 C 421.628906 179.179688 419.996094 180.382812 419.824219 182.101562 C 419.738281 182.960938 420.082031 183.820312 420.253906 184.765625 C 420.769531 187 419.996094 189.578125 418.28125 191.125 C 417.59375 191.726562 416.820312 192.15625 415.960938 192.328125 L 416.390625 190.953125 L 416.992188 188.976562 C 416.046875 189.578125 414.847656 189.664062 413.816406 189.148438 C 412.183594 188.289062 411.5 186.3125 412.269531 184.59375 C 412.871094 183.390625 414.074219 182.703125 415.359375 182.703125 L 415.015625 181.5 C 414.761719 180.640625 414.589844 179.695312 414.589844 178.835938 C 416.734375 179.4375 419.136719 179.4375 421.457031 178.835938 C 425.832031 177.632812 429.09375 174.28125 430.382812 170.242188 C 432.183594 170.757812 434.074219 170.84375 435.960938 170.328125 C 437.164062 169.984375 438.28125 169.46875 439.308594 168.695312 C 440.167969 169.726562 440.941406 171.015625 441.542969 172.476562 Z M 441.542969 172.476562 " fill-opacity="1" fill-rule="nonzero"/><path stroke-linecap="round" transform="matrix(0.858395, 0, 0, 0.859397, 244.025143, -23.811195)" fill="none" stroke-linejoin="round" d="M 236.499399 236.90144 C 235.698486 238.101409 234.401554 238.801391 232.999956 238.701394 C 234.601782 247.001179 229.600627 255.200967 221.300257 257.500907 C 219.898659 257.900897 218.501612 258.100892 217.100015 258.100892 L 216.599444 259.70085 L 215.398075 263.800744 C 214.001028 268.500622 209.099987 271.30055 204.299061 269.900586 C 201.900873 269.200604 200.098818 267.600646 198.902 265.600697 C 197.800745 263.600749 197.500402 261.200811 198.201201 258.800873 L 200.799617 249.801106 L 201.500416 247.501166 C 200.399161 248.201148 199.002114 248.301145 197.800745 247.701161 C 195.898576 246.701187 195.102214 244.401246 195.998691 242.401298 C 196.699489 241.001334 198.101087 240.201355 199.598248 240.201355 L 199.197791 238.801391 C 198.902 237.801417 198.701772 236.701446 198.701772 235.701471 C 201.200074 236.401453 203.998718 236.401453 206.701799 235.701471 C 211.798518 234.301508 215.598303 230.401609 217.100015 225.70173 C 219.197861 226.301715 221.400371 226.401712 223.598331 225.801728 C 224.999928 225.401738 226.301412 224.801754 227.498231 223.901777 C 228.999942 225.70173 230.101198 227.701678 230.801996 230.101616 L 231.097788 231.601578 C 232.399271 230.801598 234.101211 230.701601 235.398144 231.601578 C 237.100084 232.701549 237.600655 235.101487 236.499399 236.90144 Z M 236.499399 236.90144 " stroke="#112544" stroke-width="1.5" stroke-opacity="1" stroke-miterlimit="10"/><path stroke-linecap="round" transform="matrix(0.858395, 0, 0, 0.859397, 244.025143, -23.811195)" fill="none" stroke-linejoin="round" d="M 236.499399 236.90144 C 235.698486 238.101409 234.401554 238.801391 232.999956 238.701394 C 234.601782 247.001179 229.600627 255.200967 221.300257 257.500907 C 219.898659 257.900897 218.501612 258.100892 217.100015 258.100892 L 216.599444 259.70085 L 215.398075 263.800744 C 214.001028 268.500622 209.099987 271.30055 204.299061 269.900586 C 201.900873 269.200604 200.098818 267.600646 198.902 265.600697 C 197.800745 263.600749 197.500402 261.200811 198.201201 258.800873 L 200.799617 249.801106 L 201.500416 247.501166 C 200.399161 248.201148 199.002114 248.301145 197.800745 247.701161 C 195.898576 246.701187 195.102214 244.401246 195.998691 242.401298 C 196.699489 241.001334 198.101087 240.201355 199.598248 240.201355 L 199.197791 238.801391 C 198.902 237.801417 198.701772 236.701446 198.701772 235.701471 C 201.200074 236.401453 203.998718 236.401453 206.701799 235.701471 C 211.798518 234.301508 215.598303 230.401609 217.100015 225.70173 C 219.197861 226.301715 221.400371 226.401712 223.598331 225.801728 C 224.999928 225.401738 226.301412 224.801754 227.498231 223.901777 C 228.999942 225.70173 230.101198 227.701678 230.801996 230.101616 L 231.097788 231.601578 C 232.399271 230.801598 234.101211 230.701601 235.398144 231.601578 C 237.100084 232.701549 237.600655 235.101487 236.499399 236.90144 Z M 236.499399 236.90144 " stroke="#112544" stroke-width="1.5" stroke-opacity="1" stroke-miterlimit="10"/><path stroke-linecap="round" transform="matrix(0.858395, 0, 0, 0.859397, 244.025143, -23.811195)" fill="none" stroke-linejoin="round" d="M 217.100015 258.100892 C 214.201256 258.100892 211.398061 257.40091 208.899759 256.000946 " stroke="#112544" stroke-width="1.5" stroke-opacity="1" stroke-miterlimit="10"/><path stroke-linecap="round" transform="matrix(0.858395, 0, 0, 0.859397, 244.025143, -23.811195)" fill="none" stroke-linejoin="round" d="M 216.999901 225.70173 C 214.30137 224.901751 211.898632 223.101798 210.401471 220.70186 " stroke="#112544" stroke-width="1.5" stroke-opacity="1" stroke-miterlimit="10"/><path fill="#112544" d="M 438.453125 178.835938 C 438.625 179.4375 438.28125 179.953125 437.679688 180.125 C 437.078125 180.296875 436.476562 179.953125 436.390625 179.4375 C 436.21875 178.835938 436.5625 178.234375 437.164062 178.148438 C 437.765625 178.0625 438.28125 178.234375 438.453125 178.835938 Z M 438.453125 178.835938 " fill-opacity="1" fill-rule="nonzero"/><path fill="#112544" d="M 438.453125 174.796875 C 438.625 175.3125 437.25 176 435.960938 176.34375 C 434.675781 176.6875 432.871094 177.03125 432.785156 176.515625 C 432.613281 176 434.246094 174.96875 435.449219 174.625 C 436.734375 174.28125 438.28125 174.367188 438.453125 174.796875 Z M 438.453125 174.796875 " fill-opacity="1" fill-rule="nonzero"/><path fill="#112544" d="M 427.808594 178.0625 C 427.980469 178.578125 426.605469 179.265625 425.316406 179.609375 C 424.03125 179.953125 422.226562 180.296875 422.140625 179.78125 C 421.96875 179.265625 423.601562 178.234375 424.804688 177.890625 C 426.003906 177.546875 427.636719 177.546875 427.808594 178.0625 Z M 427.808594 178.0625 " fill-opacity="1" fill-rule="nonzero"/><path fill="#112544" d="M 427.035156 182.359375 C 427.207031 182.960938 426.863281 183.476562 426.261719 183.648438 C 425.660156 183.820312 425.0625 183.476562 424.976562 182.960938 C 424.804688 182.359375 425.148438 181.757812 425.746094 181.671875 C 426.261719 181.5 426.949219 181.84375 427.035156 182.359375 Z M 427.035156 182.359375 " fill-opacity="1" fill-rule="nonzero"/><path stroke-linecap="round" transform="matrix(0.858395, 0, 0, 0.859397, 244.025143, -23.811195)" fill="none" stroke-linejoin="round" d="M 218.501612 237.001438 C 218.501612 237.001438 223.197874 242.501295 221.600599 242.401298 C 221.100029 242.401298 219.598317 242.601293 219.598317 242.601293 " stroke="#112544" stroke-width="1.5" stroke-opacity="1" stroke-miterlimit="10"/><path stroke-linecap="round" transform="matrix(0.858395, 0, 0, 0.859397, 244.025143, -23.811195)" fill="none" stroke-linejoin="round" d="M 233.200184 234.801495 L 234.001097 234.6015 " stroke="#112544" stroke-width="1.5" stroke-opacity="1" stroke-miterlimit="10"/><path stroke-linecap="round" transform="matrix(0.858395, 0, 0, 0.859397, 244.025143, -23.811195)" fill="none" stroke-linejoin="round" d="M 198.101087 244.501244 L 198.902 244.301249 " stroke="#112544" stroke-width="1.5" stroke-opacity="1" stroke-miterlimit="10"/><path fill="#112544" d="M 429.695312 187.945312 C 429.695312 188.117188 430.125 191.125 431.757812 192.84375 C 432.269531 193.445312 433.042969 193.875 433.902344 194.046875 C 433.988281 194.046875 434.074219 194.046875 434.160156 194.046875 C 435.277344 194.046875 436.132812 193.273438 436.820312 192.328125 C 438.109375 190.4375 438.625 187.773438 438.625 187.515625 C 438.625 187.429688 438.625 187.34375 438.539062 187.34375 C 438.453125 187.34375 438.367188 187.34375 438.367188 187.34375 C 438.367188 187.34375 437.9375 187.601562 437.164062 187.859375 C 435.960938 188.289062 433.816406 188.632812 431.242188 188.117188 C 430.8125 188.03125 430.382812 187.945312 430.039062 187.773438 C 429.953125 187.773438 429.867188 187.773438 429.867188 187.773438 C 429.695312 187.859375 429.695312 187.859375 429.695312 187.945312 Z M 429.695312 187.945312 " fill-opacity="1" fill-rule="nonzero"/><path fill="#fc6054" d="M 432.441406 192.414062 C 432.871094 192.84375 433.386719 193.1875 433.988281 193.273438 C 434.074219 193.273438 434.160156 193.273438 434.160156 193.273438 C 435.019531 193.273438 435.617188 192.757812 436.132812 191.984375 C 435.703125 191.554688 435.191406 191.210938 434.589844 191.125 C 434.503906 191.125 434.417969 191.125 434.417969 191.125 C 433.558594 191.125 432.871094 191.640625 432.441406 192.414062 Z M 432.441406 192.414062 " fill-opacity="1" fill-rule="nonzero"/><path fill="#ffffff" d="M 431.242188 188.03125 C 431.671875 189.234375 432.785156 190.007812 434.160156 190.007812 C 435.53125 190.007812 436.734375 189.0625 437.164062 187.773438 C 435.875 188.203125 433.816406 188.632812 431.242188 188.03125 Z M 431.242188 188.03125 " fill-opacity="1" fill-rule="nonzero"/><path stroke-linecap="round" transform="matrix(0.858395, 0, 0, 0.859397, 244.025143, -23.811195)" fill="none" stroke-linejoin="round" d="M 237.100084 311.699504 L 237.100084 303.899706 " stroke="#112544" stroke-width="1.5" stroke-opacity="1" stroke-miterlimit="10"/><path fill="#fcbba4" d="M 464.203125 276.804688 C 466.433594 278.09375 468.152344 279.296875 468.496094 280.671875 C 469.011719 282.734375 465.40625 280.585938 462.574219 279.640625 C 464.375 280.757812 465.578125 281.617188 465.921875 282.734375 C 466.519531 284.882812 462.746094 282.820312 459.824219 281.789062 C 461.285156 282.734375 462.660156 282.734375 462.914062 283.765625 C 463.601562 286.257812 455.792969 284.28125 452.359375 283.335938 C 451.328125 283.078125 450.726562 282.820312 450.726562 282.820312 L 420.082031 279.46875 C 416.734375 279.125 413.472656 278.523438 410.210938 277.578125 C 403.6875 275.6875 397.679688 272.679688 392.699219 268.382812 C 387.890625 264.257812 384.117188 259.015625 381.882812 252.570312 C 381.796875 252.398438 381.710938 252.140625 381.710938 251.96875 C 379.824219 246.039062 379.136719 239.851562 379.910156 233.664062 C 379.996094 232.71875 380.167969 231.945312 380.339844 231.257812 L 400.167969 228.59375 L 401.96875 237.101562 C 404.632812 249.820312 414.246094 259.875 426.777344 263.054688 L 452.785156 269.671875 C 452.785156 269.671875 458.367188 265.03125 460.167969 266.75 C 461.371094 267.953125 458.28125 271.390625 458.28125 271.390625 C 458.28125 271.390625 468.324219 274.140625 469.183594 277.40625 C 469.527344 279.210938 466.777344 277.578125 464.203125 276.804688 Z M 464.203125 276.804688 " fill-opacity="1" fill-rule="nonzero"/><path fill="#f2a07c" d="M 452.53125 282.734375 C 452.53125 282.992188 452.445312 283.164062 452.273438 283.335938 C 451.242188 283.078125 450.640625 282.820312 450.640625 282.820312 L 419.996094 279.46875 C 416.648438 279.125 413.386719 278.523438 410.125 277.578125 C 403.601562 275.6875 397.59375 272.679688 392.613281 268.382812 C 387.804688 264.257812 384.03125 259.015625 381.796875 252.570312 C 382.054688 250.679688 383 249.046875 385.144531 248.703125 C 387.890625 248.273438 388.234375 251.882812 388.664062 253.773438 C 390.039062 259.445312 393.300781 264.6875 397.851562 268.382812 C 400.425781 270.445312 403.34375 272.078125 406.519531 273.023438 C 413.386719 275 420.683594 274.054688 427.808594 274.484375 C 435.789062 274.914062 443.601562 277.0625 450.726562 280.671875 C 451.757812 281.015625 452.699219 281.789062 452.53125 282.734375 Z M 452.53125 282.734375 " fill-opacity="1" fill-rule="nonzero"/><path stroke-linecap="round" transform="matrix(0.858395, 0, 0, 0.859397, 244.025143, -23.811195)" fill="none" stroke-linejoin="round" d="M 181.800689 293.69997 L 183.898535 303.599714 C 187.002072 318.399331 198.201201 330.099028 212.799659 333.798932 L 243.097829 341.498733 C 243.097829 341.498733 249.600696 336.098873 251.698542 338.098821 C 253.100139 339.498785 249.500582 343.498681 249.500582 343.498681 C 249.500582 343.498681 261.200281 346.698598 262.201422 350.4985 C 262.802107 352.598445 259.598455 350.698495 256.599583 349.798518 C 259.197999 351.298479 261.200281 352.698443 261.600738 354.298401 C 262.201422 356.698339 258.00118 354.198404 254.701965 353.098433 C 256.799811 354.398399 258.201408 355.398373 258.601865 356.698339 C 259.298113 359.198275 254.902193 356.798337 251.498314 355.598368 C 253.200253 356.698339 254.802079 356.698339 255.097871 357.898308 C 256.099012 361.69821 240.89987 356.798337 240.89987 356.798337 L 205.200088 352.898438 C 201.300188 352.498448 197.500402 351.798466 193.700617 350.698495 C 186.101045 348.498552 179.102159 344.998642 173.300091 339.998772 C 167.498023 335.098898 163.102104 328.799062 160.499137 320.899266 C 158.301177 313.999445 157.500264 306.799631 158.401291 299.599817 C 158.501405 298.499846 158.701633 297.599869 158.901862 296.79989 " stroke="#112544" stroke-width="1.5" stroke-opacity="1" stroke-miterlimit="10"/><path stroke-linecap="round" transform="matrix(0.858395, 0, 0, 0.859397, 244.025143, -23.811195)" fill-opacity="1" fill="#8d95ff" fill-rule="nonzero" stroke-linejoin="round" d="M 158.801747 296.79989 C 158.601519 297.599869 158.501405 298.499846 158.301177 299.599817 C 157.40015 306.799631 158.201063 313.999445 160.399023 320.899266 C 160.899593 322.599222 161.600392 324.199181 162.301191 325.699142 C 171.898493 318.699323 183.29785 318.099338 197.099946 325.699142 C 190.501516 320.099287 185.800703 312.399486 183.998649 303.599714 L 181.900803 293.69997 " stroke="#112544" stroke-width="1.5" stroke-opacity="1" stroke-miterlimit="10"/><path stroke-linecap="round" transform="matrix(0.858395, 0, 0, 0.859397, 244.025143, -23.811195)" fill-opacity="1" fill="#fcbba4" fill-rule="nonzero" stroke-linejoin="round" d="M 285.200364 355.098381 C 282.601948 357.598316 275.398282 360.798233 272.699752 358.59829 C 271.298154 357.498319 266.802121 350.09851 269.400537 349.498526 C 270.601906 349.298531 271.698611 351.098484 272.89998 352.598445 C 271.498383 349.498526 269.400537 346.698598 270.902249 345.798621 C 271.998953 345.198637 273.600779 347.498577 274.997826 349.298531 C 273.600779 346.298609 271.598497 343.298686 272.799866 342.998694 C 274.301578 342.598704 276.199195 344.898645 277.801021 347.198585 C 276.699766 344.498655 275.09794 342.098717 276.399424 341.498733 C 278.99784 340.298764 283.097968 350.798492 283.097968 350.798492 C 283.097968 350.798492 286.501848 346.99859 287.898894 348.198559 C 290.001291 349.998513 286.80219 353.59842 285.200364 355.098381 Z M 285.200364 355.098381 " stroke="#112544" stroke-width="1.5" stroke-opacity="1" stroke-miterlimit="10"/><path fill="#8d95ff" d="M 543.347656 496.726562 L 679.316406 496.726562 C 684.640625 488.046875 700.519531 460.460938 693.308594 452.035156 C 684.726562 441.980469 661.71875 467.9375 661.71875 467.9375 C 661.71875 467.9375 679.488281 431.753906 666.785156 424.707031 C 651.847656 416.542969 631.589844 441.207031 631.589844 441.207031 C 631.589844 441.207031 638.542969 384.660156 616.742188 385.089844 C 596.054688 385.433594 592.535156 446.191406 592.535156 446.191406 C 592.535156 446.191406 564.378906 370.738281 545.148438 378.214844 C 524.292969 386.378906 557.253906 467.25 557.253906 467.25 C 557.253906 467.25 529.785156 427.542969 515.449219 439.316406 C 498.195312 453.5 535.449219 489.421875 543.347656 496.726562 Z M 543.347656 496.726562 " fill-opacity="1" fill-rule="nonzero"/><path fill="#757bff" d="M 640.691406 432.183594 C 640.605469 441.722656 639.660156 449.199219 639.660156 449.199219 C 639.660156 449.199219 656.742188 428.316406 671.078125 431.324219 C 670.5625 428.316406 669.1875 425.996094 666.785156 424.707031 C 658.199219 420.066406 647.898438 426.167969 640.691406 432.183594 Z M 640.691406 432.183594 " fill-opacity="1" fill-rule="nonzero"/><path fill="#757bff" d="M 593.390625 436.824219 C 597.769531 446.792969 600.515625 454.1875 600.515625 454.1875 C 600.515625 454.1875 604.035156 393.425781 624.722656 393.082031 C 626.011719 393.082031 627.128906 393.253906 628.242188 393.597656 C 625.839844 388.441406 622.148438 385.003906 616.742188 385.089844 C 601.203125 385.347656 595.367188 419.808594 593.390625 436.824219 Z M 593.390625 436.824219 " fill-opacity="1" fill-rule="nonzero"/><path fill="#757bff" d="M 555.621094 463.210938 C 561.03125 469.398438 564.894531 474.8125 565.238281 475.328125 C 564.464844 473.4375 532.53125 394.371094 553.132812 386.292969 C 556.222656 385.089844 559.484375 386.035156 562.917969 388.355469 C 556.824219 380.707031 550.644531 376.066406 545.148438 378.214844 C 527.125 385.261719 549.269531 446.621094 555.621094 463.210938 Z M 555.621094 463.210938 " fill-opacity="1" fill-rule="nonzero"/><path fill="#757bff" d="M 541.546875 494.921875 C 528.496094 481.085938 510.386719 458.054688 523.433594 447.308594 C 529.785156 442.152344 538.710938 446.964844 546.695312 454.011719 C 537.425781 443.699219 524.035156 432.269531 515.449219 439.316406 C 499.3125 452.550781 530.902344 484.953125 541.546875 494.921875 Z M 541.546875 494.921875 " fill-opacity="1" fill-rule="nonzero"/><g clip-path="url(#e9f4002274)"><path stroke-linecap="round" transform="matrix(0.858395, 0, 0, 0.859397, 244.025143, -23.811195)" fill="none" stroke-linejoin="round" d="M 348.700015 605.700985 L 507.098742 605.700985 C 513.301266 595.601246 531.799624 563.502077 523.39914 553.697785 C 513.40138 541.998088 486.598102 572.201852 486.598102 572.201852 C 486.598102 572.201852 507.29897 530.098396 492.500284 521.898608 C 475.098631 512.398854 451.499005 541.098111 451.499005 541.098111 C 451.499005 541.098111 459.599147 475.299815 434.202017 475.799802 C 410.10182 476.199791 406.001692 546.897961 406.001692 546.897961 C 406.001692 546.897961 373.200668 459.100234 350.79786 467.800009 C 326.501986 477.299763 364.900298 571.401873 364.900298 571.401873 C 364.900298 571.401873 332.900188 525.198523 316.199334 538.898168 C 296.09915 555.402287 339.498618 597.201205 348.700015 605.700985 Z M 348.700015 605.700985 " stroke="#112544" stroke-width="1.5" stroke-opacity="1" stroke-miterlimit="10"/></g><path fill="#b9c3fc" d="M 571.074219 496.726562 L 644.039062 496.726562 C 646.871094 492.085938 655.453125 477.304688 651.589844 472.75 C 646.957031 467.335938 634.59375 481.34375 634.59375 481.34375 C 634.59375 481.34375 644.125 461.921875 637.257812 458.140625 C 629.1875 453.757812 618.371094 466.992188 618.371094 466.992188 C 618.371094 466.992188 622.0625 436.652344 610.386719 436.824219 C 599.316406 436.996094 597.425781 469.65625 597.425781 469.65625 C 597.425781 469.65625 582.320312 429.175781 572.019531 433.214844 C 560.773438 437.597656 578.542969 481 578.542969 481 C 578.542969 481 563.777344 459.6875 556.050781 466.046875 C 546.78125 473.523438 566.78125 492.773438 571.074219 496.726562 Z M 571.074219 496.726562 " fill-opacity="1" fill-rule="nonzero"/><path fill="#e1e5ff" d="M 618.371094 477.476562 C 618.371094 477.476562 629.1875 464.242188 637.257812 468.625 C 637.855469 468.96875 638.371094 469.484375 638.800781 470.085938 C 640.089844 465.101562 640.519531 459.945312 637.257812 458.140625 C 630.304688 454.355469 621.289062 463.726562 618.972656 466.304688 C 619.058594 472.320312 618.371094 477.476562 618.371094 477.476562 Z M 618.371094 477.476562 " fill-opacity="1" fill-rule="nonzero"/><path fill="#e1e5ff" d="M 597.425781 480.054688 C 597.425781 480.054688 599.316406 447.480469 610.386719 447.222656 C 616.226562 447.136719 618.199219 454.613281 618.800781 462.179688 C 619.316406 453.667969 619.230469 436.566406 610.386719 436.738281 C 599.316406 436.910156 597.425781 469.570312 597.425781 469.570312 C 597.425781 469.570312 582.320312 429.003906 572.019531 433.128906 C 568.242188 434.589844 567.726562 440.605469 568.757812 447.910156 C 569.269531 445.847656 570.300781 444.300781 572.019531 443.613281 C 582.320312 439.574219 597.425781 480.054688 597.425781 480.054688 Z M 597.425781 480.054688 " fill-opacity="1" fill-rule="nonzero"/><path fill="#e1e5ff" d="M 555.195312 477.21875 C 555.449219 476.960938 555.707031 476.703125 555.964844 476.445312 C 563.519531 470.257812 577.855469 490.625 578.371094 491.398438 C 578.199219 490.96875 574.851562 482.632812 572.019531 473.09375 C 567.039062 467.765625 560.34375 462.265625 555.878906 465.960938 C 552.703125 468.625 553.132812 472.75 555.195312 477.21875 Z M 555.195312 477.21875 " fill-opacity="1" fill-rule="nonzero"/><g clip-path="url(#9920c7fa67)"><path stroke-linecap="round" transform="matrix(0.858395, 0, 0, 0.859397, 244.025143, -23.811195)" fill="none" stroke-linejoin="round" d="M 381.000468 605.700985 L 466.001899 605.700985 C 469.301114 600.301124 479.298873 583.10157 474.798289 577.801707 C 469.401228 571.50187 454.998448 587.801448 454.998448 587.801448 C 454.998448 587.801448 466.102013 565.202033 458.101986 560.802147 C 448.70036 555.702279 436.099634 571.10188 436.099634 571.10188 C 436.099634 571.10188 440.39999 535.798249 426.798123 535.998244 C 413.901605 536.198238 411.699095 574.2018 411.699095 574.2018 C 411.699095 574.2018 394.101764 527.098474 382.101723 531.798352 C 369.000426 536.89822 389.701294 587.401458 389.701294 587.401458 C 389.701294 587.401458 372.499869 562.6021 363.498701 570.001909 C 352.700029 578.701684 375.999313 601.101104 381.000468 605.700985 Z M 381.000468 605.700985 " stroke="#112544" stroke-width="1.5" stroke-opacity="1" stroke-miterlimit="10"/></g><g clip-path="url(#0e4e0eae02)"><path stroke-linecap="round" transform="matrix(0.858395, 0, 0, 0.859397, 244.025143, -23.811195)" fill="none" stroke-linejoin="round" d="M 317.801159 605.700985 L 300.399506 605.700985 " stroke="#112544" stroke-width="1.5" stroke-opacity="1" stroke-miterlimit="10"/></g><g clip-path="url(#6e476a8919)"><path stroke-linecap="round" transform="matrix(0.858395, 0, 0, 0.859397, 244.025143, -23.811195)" fill="none" stroke-linejoin="round" d="M 348.700015 605.700985 L 329.30063 605.700985 " stroke="#112544" stroke-width="1.5" stroke-opacity="1" stroke-miterlimit="10"/></g><g clip-path="url(#ab4431d0fc)"><path stroke-linecap="round" transform="matrix(0.858395, 0, 0, 0.859397, 244.025143, -23.811195)" fill="none" stroke-linejoin="round" d="M 507.198856 605.700985 L 538.002148 605.700985 " stroke="#112544" stroke-width="1.5" stroke-opacity="1" stroke-miterlimit="10"/></g><g clip-path="url(#5d4ec49ede)"><path stroke-linecap="round" transform="matrix(0.858395, 0, 0, 0.859397, 244.025143, -23.811195)" fill="none" stroke-linejoin="round" d="M 550.097753 605.700985 L 562.598365 605.700985 " stroke="#112544" stroke-width="1.5" stroke-opacity="1" stroke-miterlimit="10"/></g></svg>