<svg xmlns="http://www.w3.org/2000/svg" xmlns:xlink="http://www.w3.org/1999/xlink" width="1366" zoomAndPan="magnify" viewBox="0 0 1024.5 576" height="768" preserveAspectRatio="xMidYMid meet" version="1.0"><defs><clipPath id="c1cce31ab5"><path d="M 20 30.214844 L 57.441406 30.214844 L 57.441406 56.453125 L 20 56.453125 Z M 20 30.214844 " clip-rule="nonzero"/></clipPath><clipPath id="1c04a25e51"><path d="M 394 129 L 644 129 L 644 441.339844 L 394 441.339844 Z M 394 129 " clip-rule="nonzero"/></clipPath><clipPath id="bd96970eff"><path d="M 394 129 L 640 129 L 640 441.339844 L 394 441.339844 Z M 394 129 " clip-rule="nonzero"/></clipPath><clipPath id="06b5c57bef"><path d="M 476 103.253906 L 562 103.253906 L 562 151 L 476 151 Z M 476 103.253906 " clip-rule="nonzero"/></clipPath><clipPath id="93e67e699c"><path d="M 350 421 L 401 421 L 401 441.339844 L 350 441.339844 Z M 350 421 " clip-rule="nonzero"/></clipPath><clipPath id="8356ee80fe"><path d="M 298.527344 421 L 325 421 L 325 441.339844 L 298.527344 441.339844 Z M 298.527344 421 " clip-rule="nonzero"/></clipPath><clipPath id="c67c65f96f"><path d="M 405 190 L 415 190 L 415 208 L 405 208 Z M 405 190 " clip-rule="nonzero"/></clipPath><clipPath id="6c27d7e216"><path d="M 400.03125 194.796875 L 410.746094 189.253906 L 418.226562 203.660156 L 407.507812 209.203125 Z M 400.03125 194.796875 " clip-rule="nonzero"/></clipPath><clipPath id="92537973b6"><path d="M 406 202 L 414 202 L 414 206 L 406 206 Z M 406 202 " clip-rule="nonzero"/></clipPath><clipPath id="c5f7576128"><path d="M 400.03125 194.796875 L 410.746094 189.253906 L 418.226562 203.660156 L 407.507812 209.203125 Z M 400.03125 194.796875 " clip-rule="nonzero"/></clipPath><clipPath id="fd69ed6d33"><path d="M 407 197 L 414 197 L 414 203 L 407 203 Z M 407 197 " clip-rule="nonzero"/></clipPath><clipPath id="5cc2e81dab"><path d="M 400.03125 194.796875 L 410.746094 189.253906 L 418.226562 203.660156 L 407.507812 209.203125 Z M 400.03125 194.796875 " clip-rule="nonzero"/></clipPath><clipPath id="f075141f4d"><path d="M 410 194 L 413 194 L 413 197 L 410 197 Z M 410 194 " clip-rule="nonzero"/></clipPath><clipPath id="cda5c638b7"><path d="M 400.03125 194.796875 L 410.746094 189.253906 L 418.226562 203.660156 L 407.507812 209.203125 Z M 400.03125 194.796875 " clip-rule="nonzero"/></clipPath><clipPath id="d7f0a4ec77"><path d="M 408 191 L 411 191 L 411 195 L 408 195 Z M 408 191 " clip-rule="nonzero"/></clipPath><clipPath id="59ed1031c9"><path d="M 400.03125 194.796875 L 410.746094 189.253906 L 418.226562 203.660156 L 407.507812 209.203125 Z M 400.03125 194.796875 " clip-rule="nonzero"/></clipPath><clipPath id="37e1f54d5d"><path d="M 497 392 L 725.816406 392 L 725.816406 441.339844 L 497 441.339844 Z M 497 392 " clip-rule="nonzero"/></clipPath><clipPath id="3fbb7e05c5"><path d="M 497 391 L 688 391 L 688 441.339844 L 497 441.339844 Z M 497 391 " clip-rule="nonzero"/></clipPath></defs><g clip-path="url(#c1cce31ab5)"><path fill="#ffffff" d="M 22.019531 30.277344 C 21.769531 30.273438 21.527344 30.316406 21.292969 30.410156 C 21.0625 30.503906 20.855469 30.636719 20.679688 30.8125 C 20.5 30.988281 20.363281 31.195312 20.265625 31.425781 C 20.167969 31.65625 20.121094 31.894531 20.121094 32.148438 C 20.121094 32.398438 20.167969 32.636719 20.265625 32.867188 C 20.363281 33.101562 20.5 33.304688 20.679688 33.480469 C 20.855469 33.65625 21.0625 33.789062 21.292969 33.882812 C 21.527344 33.976562 21.769531 34.023438 22.019531 34.019531 L 55.699219 34.019531 C 55.949219 34.023438 56.191406 33.976562 56.421875 33.882812 C 56.65625 33.789062 56.863281 33.65625 57.039062 33.480469 C 57.21875 33.304688 57.355469 33.101562 57.453125 32.867188 C 57.550781 32.636719 57.597656 32.398438 57.597656 32.148438 C 57.597656 31.894531 57.550781 31.65625 57.453125 31.425781 C 57.355469 31.195312 57.21875 30.988281 57.039062 30.8125 C 56.863281 30.636719 56.65625 30.503906 56.421875 30.410156 C 56.191406 30.316406 55.949219 30.273438 55.699219 30.277344 Z M 22.019531 41.503906 C 21.769531 41.5 21.527344 41.542969 21.292969 41.636719 C 21.0625 41.730469 20.855469 41.867188 20.679688 42.042969 C 20.5 42.21875 20.363281 42.421875 20.265625 42.652344 C 20.167969 42.882812 20.121094 43.125 20.121094 43.375 C 20.121094 43.625 20.167969 43.863281 20.265625 44.097656 C 20.363281 44.328125 20.5 44.53125 20.679688 44.707031 C 20.855469 44.882812 21.0625 45.015625 21.292969 45.109375 C 21.527344 45.203125 21.769531 45.25 22.019531 45.246094 L 55.699219 45.246094 C 55.949219 45.25 56.191406 45.203125 56.421875 45.109375 C 56.65625 45.015625 56.863281 44.882812 57.039062 44.707031 C 57.21875 44.53125 57.355469 44.328125 57.453125 44.097656 C 57.550781 43.863281 57.597656 43.625 57.597656 43.375 C 57.597656 43.125 57.550781 42.882812 57.453125 42.652344 C 57.355469 42.421875 57.21875 42.21875 57.039062 42.042969 C 56.863281 41.867188 56.65625 41.730469 56.421875 41.636719 C 56.191406 41.542969 55.949219 41.5 55.699219 41.503906 Z M 22.019531 52.730469 C 21.769531 52.726562 21.527344 52.769531 21.292969 52.863281 C 21.0625 52.957031 20.855469 53.09375 20.679688 53.269531 C 20.5 53.445312 20.363281 53.648438 20.265625 53.878906 C 20.167969 54.109375 20.121094 54.351562 20.121094 54.601562 C 20.121094 54.851562 20.167969 55.09375 20.265625 55.324219 C 20.363281 55.554688 20.5 55.757812 20.679688 55.933594 C 20.855469 56.109375 21.0625 56.242188 21.292969 56.335938 C 21.527344 56.429688 21.769531 56.476562 22.019531 56.472656 L 55.699219 56.472656 C 55.949219 56.476562 56.191406 56.429688 56.421875 56.335938 C 56.65625 56.242188 56.863281 56.109375 57.039062 55.933594 C 57.21875 55.757812 57.355469 55.554688 57.453125 55.324219 C 57.550781 55.09375 57.597656 54.851562 57.597656 54.601562 C 57.597656 54.351562 57.550781 54.109375 57.453125 53.878906 C 57.355469 53.648438 57.21875 53.445312 57.039062 53.269531 C 56.863281 53.09375 56.65625 52.957031 56.421875 52.863281 C 56.191406 52.769531 55.949219 52.726562 55.699219 52.730469 Z M 22.019531 52.730469 " fill-opacity="1" fill-rule="nonzero"/></g><g clip-path="url(#1c04a25e51)"><path fill="#6f8cf3" d="M 407.441406 129.464844 C 400.9375 129.464844 395.585938 134.402344 394.960938 140.726562 C 394.917969 141.136719 394.902344 141.5625 394.902344 141.984375 L 394.902344 428.539062 C 394.902344 435.457031 400.511719 441.058594 407.441406 441.058594 L 630.835938 441.058594 C 630.835938 441.058594 630.882812 441.058594 630.882812 441.058594 C 637.78125 441.027344 643.363281 435.429688 643.363281 428.539062 L 643.363281 142 C 643.363281 135.097656 637.78125 129.511719 630.882812 129.480469 L 627.046875 129.480469 C 627.046875 129.480469 627 129.464844 627 129.464844 Z M 407.441406 129.464844 " fill-opacity="1" fill-rule="nonzero"/><path fill="#22335a" d="M 627.105469 441.257812 L 407.441406 441.257812 C 400.421875 441.257812 394.703125 435.550781 394.703125 428.539062 L 394.703125 141.984375 C 394.703125 141.605469 394.703125 141.214844 394.765625 140.714844 C 395.402344 134.21875 400.832031 129.3125 407.367188 129.285156 C 407.382812 129.285156 407.410156 129.269531 407.425781 129.269531 L 630.867188 129.269531 C 637.859375 129.3125 643.542969 135.019531 643.542969 142 L 643.542969 428.523438 C 643.542969 435.503906 637.859375 441.210938 630.867188 441.242188 L 627.105469 441.242188 Z M 407.503906 129.648438 C 407.503906 129.648438 407.472656 129.664062 407.441406 129.664062 C 401.058594 129.664062 395.78125 134.429688 395.160156 140.757812 C 395.113281 141.242188 395.097656 141.636719 395.097656 142 L 395.097656 428.554688 C 395.097656 435.351562 400.648438 440.894531 407.457031 440.894531 L 630.898438 440.894531 C 637.675781 440.847656 643.195312 435.320312 643.195312 428.539062 L 643.195312 142 C 643.195312 135.234375 637.675781 129.691406 630.898438 129.664062 L 407.503906 129.664062 Z M 407.503906 129.648438 " fill-opacity="1" fill-rule="nonzero"/></g><g clip-path="url(#bd96970eff)"><path fill="#d5e3ff" d="M 627 129.464844 L 407.441406 129.464844 C 400.511719 129.464844 394.902344 135.066406 394.902344 141.984375 L 394.902344 428.539062 C 394.902344 435.457031 400.511719 441.058594 407.441406 441.058594 L 627 441.058594 C 633.929688 441.058594 639.539062 435.457031 639.539062 428.539062 L 639.539062 141.984375 C 639.539062 135.066406 633.929688 129.464844 627 129.464844 Z M 627 129.464844 " fill-opacity="1" fill-rule="nonzero"/><path fill="#22335a" d="M 627 441.257812 L 407.441406 441.257812 C 400.421875 441.257812 394.703125 435.550781 394.703125 428.539062 L 394.703125 141.984375 C 394.703125 134.976562 400.421875 129.269531 407.441406 129.269531 L 627 129.269531 C 634.019531 129.269531 639.738281 134.976562 639.738281 141.984375 L 639.738281 428.539062 C 639.738281 435.5625 634.019531 441.257812 627 441.257812 Z M 407.441406 129.664062 C 400.632812 129.664062 395.082031 135.203125 395.082031 142 L 395.082031 428.554688 C 395.082031 435.351562 400.632812 440.894531 407.441406 440.894531 L 627 440.894531 C 633.808594 440.894531 639.359375 435.351562 639.359375 428.554688 L 639.359375 141.984375 C 639.359375 135.1875 633.808594 129.648438 627 129.648438 L 407.441406 129.648438 Z M 407.441406 129.664062 " fill-opacity="1" fill-rule="nonzero"/></g><path fill="#6f8cf3" d="M 624.484375 143.453125 L 409.957031 143.453125 L 409.957031 425.148438 L 628.320312 425.148438 L 628.320312 143.46875 L 624.484375 143.46875 Z M 624.484375 143.453125 " fill-opacity="1" fill-rule="nonzero"/><path fill="#22335a" d="M 624.484375 425.34375 L 409.957031 425.34375 C 409.851562 425.34375 409.777344 425.253906 409.777344 425.164062 L 409.777344 143.453125 C 409.777344 143.347656 409.867188 143.273438 409.957031 143.273438 L 628.335938 143.273438 C 628.441406 143.285156 628.515625 143.378906 628.515625 143.46875 L 628.515625 425.148438 C 628.515625 425.253906 628.425781 425.332031 628.335938 425.332031 L 624.484375 425.332031 Z M 410.15625 424.980469 L 628.136719 424.980469 L 628.136719 143.648438 L 624.46875 143.648438 C 624.46875 143.648438 410.15625 143.636719 410.15625 143.636719 Z M 410.15625 424.980469 " fill-opacity="1" fill-rule="nonzero"/><path fill="#ffffff" d="M 624.484375 143.453125 L 409.957031 143.453125 L 409.957031 425.164062 L 624.46875 425.164062 L 624.46875 143.453125 Z M 624.484375 143.453125 " fill-opacity="1" fill-rule="nonzero"/><path fill="#22335a" d="M 624.484375 425.34375 L 409.957031 425.34375 C 409.851562 425.34375 409.777344 425.253906 409.777344 425.164062 L 409.777344 143.453125 C 409.777344 143.347656 409.867188 143.273438 409.957031 143.273438 L 624.484375 143.273438 C 624.589844 143.273438 624.664062 143.363281 624.664062 143.453125 L 624.664062 425.164062 C 624.664062 425.253906 624.589844 425.34375 624.484375 425.34375 Z M 410.15625 424.96875 L 624.300781 424.96875 L 624.300781 143.648438 L 410.15625 143.648438 Z M 410.15625 424.96875 " fill-opacity="1" fill-rule="nonzero"/><path fill="#ffffff" d="M 624.484375 143.453125 L 611.019531 355.769531 C 610.808594 359.054688 610.335938 362.171875 609.59375 365.125 C 602.90625 392.222656 574.945312 405.652344 537.84375 406.542969 C 536.523438 406.574219 535.203125 406.589844 533.871094 406.589844 L 374.007812 406.589844 C 405.925781 335.226562 409.957031 143.453125 409.957031 143.453125 Z M 624.484375 143.453125 " fill-opacity="1" fill-rule="nonzero"/><path fill="#22335a" d="M 533.902344 406.785156 L 374.007812 406.785156 C 374.007812 406.785156 373.886719 406.753906 373.855469 406.695312 C 373.824219 406.632812 373.808594 406.574219 373.855469 406.511719 C 390.324219 369.683594 399.222656 300.105469 403.773438 248.242188 C 408.714844 192.03125 409.761719 143.921875 409.777344 143.4375 C 409.777344 143.332031 409.867188 143.257812 409.957031 143.257812 L 624.484375 143.257812 C 624.484375 143.257812 624.589844 143.273438 624.621094 143.316406 C 624.652344 143.363281 624.679688 143.40625 624.679688 143.453125 L 611.214844 355.769531 C 611.003906 359.039062 610.519531 362.203125 609.789062 365.15625 C 606.546875 378.324219 598.28125 388.636719 585.226562 395.8125 C 572.914062 402.59375 556.976562 406.257812 537.859375 406.710938 C 536.449219 406.769531 535.144531 406.785156 533.914062 406.785156 Z M 374.296875 406.40625 L 533.902344 406.40625 C 535.128906 406.40625 536.433594 406.40625 537.859375 406.363281 C 556.902344 405.90625 572.777344 402.257812 585.046875 395.507812 C 597.996094 388.378906 606.199219 378.144531 609.410156 365.09375 C 610.140625 362.15625 610.609375 359.023438 610.820312 355.769531 L 624.273438 143.648438 L 410.140625 143.648438 C 410.066406 146.980469 408.925781 193.835938 404.136719 248.285156 C 399.585938 300.046875 390.71875 369.441406 374.296875 406.40625 Z M 374.296875 406.40625 " fill-opacity="1" fill-rule="nonzero"/><path fill="#d5e3ff" d="M 535.261719 179.929688 C 535.953125 180.683594 536.605469 181.472656 537.210938 182.296875 C 537.820312 183.117188 538.382812 183.972656 538.898438 184.859375 C 539.417969 185.746094 539.886719 186.660156 540.308594 187.597656 C 540.730469 188.539062 541.105469 189.5 541.429688 190.484375 C 541.753906 191.46875 542.027344 192.46875 542.246094 193.488281 C 542.46875 194.507812 542.636719 195.542969 542.753906 196.585938 C 542.875 197.632812 542.9375 198.683594 542.949219 199.746094 C 542.960938 200.804688 542.921875 201.867188 542.828125 202.933594 C 542.734375 204 542.589844 205.0625 542.390625 206.121094 C 542.195312 207.179688 541.945312 208.234375 541.644531 209.277344 C 541.34375 210.324219 540.992188 211.355469 540.59375 212.375 C 540.191406 213.394531 539.746094 214.398438 539.25 215.382812 C 538.753906 216.367188 538.210938 217.328125 537.625 218.265625 C 537.035156 219.207031 536.40625 220.121094 535.734375 221.003906 C 535.058594 221.890625 534.347656 222.746094 533.597656 223.570312 C 532.84375 224.394531 532.058594 225.179688 531.234375 225.933594 C 530.410156 226.6875 529.554688 227.402344 528.667969 228.078125 C 527.78125 228.753906 526.867188 229.386719 525.921875 229.980469 C 524.980469 230.570312 524.015625 231.117188 523.027344 231.621094 C 522.039062 232.125 521.03125 232.578125 520.003906 232.984375 C 518.980469 233.394531 517.941406 233.75 516.890625 234.0625 C 515.835938 234.371094 514.777344 234.628906 513.707031 234.835938 C 512.636719 235.042969 511.566406 235.199219 510.492188 235.304688 C 509.417969 235.410156 508.34375 235.460938 507.273438 235.460938 C 506.199219 235.460938 505.136719 235.410156 504.078125 235.304688 C 503.023438 235.199219 501.976562 235.042969 500.945312 234.835938 C 499.914062 234.628906 498.898438 234.371094 497.898438 234.058594 C 496.902344 233.75 495.925781 233.390625 494.972656 232.984375 C 494.019531 232.578125 493.089844 232.121094 492.191406 231.621094 C 491.289062 231.117188 490.417969 230.570312 489.582031 229.976562 C 488.742188 229.386719 487.9375 228.753906 487.167969 228.078125 C 486.402344 227.402344 485.671875 226.6875 484.980469 225.933594 C 484.289062 225.179688 483.636719 224.390625 483.03125 223.566406 C 482.421875 222.742188 481.859375 221.890625 481.34375 221.003906 C 480.824219 220.117188 480.355469 219.203125 479.933594 218.265625 C 479.511719 217.324219 479.136719 216.363281 478.8125 215.378906 C 478.488281 214.394531 478.21875 213.390625 477.996094 212.371094 C 477.773438 211.351562 477.605469 210.320312 477.488281 209.277344 C 477.367188 208.230469 477.304688 207.179688 477.292969 206.117188 C 477.28125 205.058594 477.320312 203.996094 477.414062 202.929688 C 477.507812 201.863281 477.652344 200.800781 477.851562 199.742188 C 478.046875 198.679688 478.296875 197.628906 478.597656 196.582031 C 478.898438 195.539062 479.25 194.507812 479.648438 193.488281 C 480.050781 192.46875 480.496094 191.464844 480.992188 190.480469 C 481.488281 189.496094 482.03125 188.535156 482.617188 187.59375 C 483.207031 186.65625 483.835938 185.742188 484.507812 184.859375 C 485.183594 183.972656 485.894531 183.117188 486.644531 182.292969 C 487.398438 181.46875 488.183594 180.679688 489.007812 179.929688 C 489.832031 179.175781 490.6875 178.460938 491.574219 177.785156 C 492.460938 177.109375 493.375 176.476562 494.320312 175.882812 C 495.261719 175.289062 496.226562 174.742188 497.214844 174.242188 C 498.203125 173.738281 499.210938 173.285156 500.238281 172.875 C 501.261719 172.46875 502.300781 172.109375 503.351562 171.800781 C 504.40625 171.492188 505.464844 171.234375 506.535156 171.027344 C 507.605469 170.816406 508.675781 170.660156 509.75 170.558594 C 510.824219 170.453125 511.898438 170.402344 512.96875 170.402344 C 514.042969 170.402344 515.105469 170.453125 516.164062 170.558594 C 517.21875 170.664062 518.265625 170.820312 519.296875 171.027344 C 520.328125 171.234375 521.34375 171.492188 522.34375 171.800781 C 523.339844 172.113281 524.316406 172.46875 525.269531 172.878906 C 526.222656 173.285156 527.152344 173.742188 528.050781 174.242188 C 528.953125 174.746094 529.824219 175.292969 530.660156 175.882812 C 531.5 176.476562 532.304688 177.109375 533.074219 177.785156 C 533.839844 178.460938 534.570312 179.175781 535.261719 179.929688 Z M 535.261719 179.929688 " fill-opacity="1" fill-rule="nonzero"/><path fill="#22335a" d="M 507.257812 235.644531 C 498.464844 235.644531 490.503906 232.238281 484.816406 226.046875 C 479.148438 219.855469 476.433594 211.636719 477.207031 202.902344 C 478.785156 184.871094 494.824219 170.1875 512.960938 170.1875 C 521.753906 170.1875 529.714844 173.59375 535.402344 179.785156 C 541.074219 185.976562 543.785156 194.199219 543.011719 202.933594 C 541.4375 220.976562 525.394531 235.644531 507.257812 235.644531 Z M 512.960938 170.582031 C 495.023438 170.582031 479.148438 185.097656 477.585938 202.949219 C 476.828125 211.589844 479.496094 219.707031 485.105469 225.804688 C 490.714844 231.90625 498.570312 235.269531 507.257812 235.269531 C 525.195312 235.269531 541.074219 220.75 542.632812 202.902344 C 543.390625 194.257812 540.722656 186.144531 535.113281 180.042969 C 529.519531 173.941406 521.648438 170.582031 512.960938 170.582031 Z M 512.960938 170.582031 " fill-opacity="1" fill-rule="nonzero"/><path fill="#6f8cf3" d="M 518.085938 211.941406 C 522.238281 209.199219 525.183594 204.671875 525.636719 199.542969 C 526.363281 191.167969 520.148438 184.386719 511.730469 184.386719 C 503.316406 184.386719 495.902344 191.167969 495.175781 199.542969 C 494.71875 204.65625 496.886719 209.183594 500.558594 211.941406 C 493.628906 213.785156 487.378906 217.738281 482.632812 223.050781 C 487.957031 230.621094 496.828125 235.464844 507.257812 235.464844 C 517.691406 235.464844 527.410156 230.605469 534.050781 223.050781 C 530.246094 217.738281 524.695312 213.785156 518.085938 211.941406 Z M 518.085938 211.941406 " fill-opacity="1" fill-rule="nonzero"/><path fill="#22335a" d="M 507.257812 235.644531 C 497.101562 235.644531 488.078125 231.089844 482.484375 223.140625 L 482.390625 223.019531 L 482.5 222.914062 C 487.289062 217.554688 493.386719 213.742188 500.148438 211.847656 C 496.492188 208.957031 494.566406 204.371094 494.992188 199.527344 C 495.734375 191.078125 503.242188 184.207031 511.746094 184.207031 C 515.871094 184.207031 519.601562 185.8125 522.269531 188.703125 C 524.9375 191.609375 526.199219 195.453125 525.847656 199.554688 C 525.425781 204.402344 522.710938 208.972656 518.554688 211.863281 C 524.96875 213.757812 530.398438 217.570312 534.234375 222.929688 L 534.324219 223.050781 L 534.21875 223.15625 C 527.230469 231.105469 517.402344 235.644531 507.257812 235.644531 Z M 482.878906 223.050781 C 488.410156 230.816406 497.28125 235.269531 507.257812 235.269531 C 517.238281 235.269531 526.910156 230.800781 533.808594 223.019531 C 529.941406 217.691406 524.484375 213.921875 518.023438 212.105469 L 517.628906 212 L 517.980469 211.773438 C 522.226562 208.972656 525.015625 204.386719 525.453125 199.527344 C 525.804688 195.53125 524.574219 191.773438 521.984375 188.960938 C 519.390625 186.144531 515.75 184.585938 511.746094 184.585938 C 503.4375 184.585938 496.097656 191.304688 495.371094 199.554688 C 494.945312 204.414062 496.933594 208.988281 500.679688 211.773438 L 500.996094 212 L 500.617188 212.105469 C 493.824219 213.9375 487.699219 217.707031 482.878906 223.050781 Z M 482.878906 223.050781 " fill-opacity="1" fill-rule="nonzero"/><path fill="#d5e3ff" d="M 582.4375 257.75 L 438.890625 257.75 L 437.191406 277.1875 L 580.738281 277.1875 Z M 582.4375 257.75 " fill-opacity="1" fill-rule="nonzero"/><path fill="#22335a" d="M 580.722656 277.367188 L 437.175781 277.367188 C 437.175781 277.367188 437.070312 277.351562 437.039062 277.308594 C 437.007812 277.261719 436.980469 277.214844 436.996094 277.15625 L 438.691406 257.71875 C 438.707031 257.628906 438.785156 257.550781 438.875 257.550781 L 582.421875 257.550781 C 582.421875 257.550781 582.527344 257.566406 582.558594 257.613281 C 582.589844 257.65625 582.617188 257.703125 582.605469 257.761719 L 580.90625 277.203125 C 580.90625 277.292969 580.828125 277.367188 580.722656 277.367188 Z M 437.386719 276.988281 L 580.558594 276.988281 L 582.226562 257.929688 L 439.054688 257.929688 Z M 437.386719 276.988281 " fill-opacity="1" fill-rule="nonzero"/><path fill="#d5e3ff" d="M 579.085938 295.988281 L 435.539062 295.988281 L 433.839844 315.425781 L 577.386719 315.425781 Z M 579.085938 295.988281 " fill-opacity="1" fill-rule="nonzero"/><path fill="#22335a" d="M 577.371094 315.605469 L 433.824219 315.605469 C 433.824219 315.605469 433.71875 315.605469 433.6875 315.546875 C 433.660156 315.484375 433.628906 315.457031 433.644531 315.394531 L 435.339844 295.957031 C 435.355469 295.867188 435.433594 295.792969 435.523438 295.792969 L 579.070312 295.792969 C 579.070312 295.792969 579.175781 295.804688 579.207031 295.851562 C 579.238281 295.898438 579.269531 295.941406 579.253906 296.003906 L 577.554688 315.441406 C 577.554688 315.53125 577.480469 315.605469 577.371094 315.605469 Z M 434.039062 315.230469 L 577.207031 315.230469 L 578.875 296.167969 L 435.707031 296.167969 Z M 434.039062 315.230469 " fill-opacity="1" fill-rule="nonzero"/><path fill="#d5e3ff" d="M 575.628906 336.179688 L 432.097656 336.179688 L 430.398438 355.617188 L 573.945312 355.617188 Z M 575.628906 336.179688 " fill-opacity="1" fill-rule="nonzero"/><path fill="#22335a" d="M 573.929688 355.800781 L 430.382812 355.800781 C 430.382812 355.800781 430.277344 355.800781 430.246094 355.738281 C 430.214844 355.679688 430.1875 355.648438 430.203125 355.585938 L 431.898438 336.148438 C 431.914062 336.058594 431.992188 335.984375 432.082031 335.984375 L 575.628906 335.984375 C 575.628906 335.984375 575.734375 335.984375 575.765625 336.042969 C 575.796875 336.089844 575.824219 336.136719 575.8125 336.195312 L 574.113281 355.632812 C 574.113281 355.722656 574.035156 355.800781 573.929688 355.800781 Z M 430.59375 355.421875 L 573.765625 355.421875 L 575.433594 336.363281 L 432.261719 336.363281 Z M 430.59375 355.421875 " fill-opacity="1" fill-rule="nonzero"/><path fill="#d5e3ff" d="M 609.609375 365.125 C 602.921875 392.222656 574.960938 405.652344 537.859375 406.542969 C 550.988281 402.957031 566.378906 396.6875 573.71875 372.359375 C 592.035156 378.476562 603.148438 375.644531 609.609375 365.125 Z M 609.609375 365.125 " fill-opacity="1" fill-rule="nonzero"/><path fill="#22335a" d="M 537.859375 406.742188 C 537.765625 406.742188 537.691406 406.664062 537.675781 406.574219 C 537.660156 406.484375 537.722656 406.390625 537.8125 406.363281 C 552.21875 402.425781 566.53125 395.566406 573.550781 372.316406 C 573.550781 372.269531 573.597656 372.226562 573.640625 372.210938 C 573.6875 372.179688 573.75 372.179688 573.792969 372.210938 C 591.488281 378.128906 602.816406 375.859375 609.441406 365.050781 C 609.503906 364.941406 609.683594 364.929688 609.761719 365.050781 C 609.789062 365.09375 609.820312 365.15625 609.804688 365.214844 C 606.5625 378.386719 598.296875 388.695312 585.242188 395.871094 C 572.914062 402.636719 556.976562 406.300781 537.859375 406.769531 Z M 573.855469 372.601562 C 567 395.082031 553.355469 402.273438 539.390625 406.316406 C 557.75 405.710938 573.113281 402.078125 585.046875 395.507812 C 597.628906 388.589844 605.726562 378.734375 609.125 366.214844 C 602.347656 376.296875 591.09375 378.324219 573.855469 372.601562 Z M 573.855469 372.601562 " fill-opacity="1" fill-rule="nonzero"/><g clip-path="url(#06b5c57bef)"><path fill="#6f8cf3" d="M 560.132812 126.742188 L 542.390625 126.742188 C 542.390625 113.933594 531.988281 103.546875 519.164062 103.546875 C 506.335938 103.546875 495.933594 113.933594 495.933594 126.742188 L 478.191406 126.742188 C 477.296875 126.742188 476.554688 127.46875 476.554688 128.375 L 476.554688 132.328125 C 476.554688 142.378906 484.710938 150.539062 494.796875 150.539062 L 543.542969 150.539062 C 553.613281 150.539062 561.785156 142.394531 561.785156 132.328125 L 561.785156 128.375 C 561.753906 127.46875 561.027344 126.742188 560.132812 126.742188 Z M 519.148438 112.722656 C 526.910156 112.722656 533.1875 119.003906 533.1875 126.742188 L 505.105469 126.742188 C 505.105469 118.988281 511.382812 112.722656 519.148438 112.722656 Z M 519.148438 112.722656 " fill-opacity="1" fill-rule="nonzero"/><path fill="#22335a" d="M 543.515625 150.71875 L 494.765625 150.71875 C 484.605469 150.71875 476.34375 142.46875 476.34375 132.328125 L 476.34375 128.375 C 476.34375 127.375 477.160156 126.558594 478.160156 126.558594 L 495.71875 126.558594 C 495.828125 113.738281 506.289062 103.351562 519.148438 103.351562 C 532.003906 103.351562 542.46875 113.738281 542.574219 126.542969 L 560.132812 126.542969 C 561.132812 126.542969 561.953125 127.359375 561.953125 128.359375 L 561.953125 132.3125 C 561.953125 142.453125 553.671875 150.71875 543.515625 150.71875 Z M 478.160156 126.921875 C 477.375 126.921875 476.722656 127.574219 476.722656 128.359375 L 476.722656 132.3125 C 476.722656 142.242188 484.816406 150.328125 494.765625 150.328125 L 543.515625 150.328125 C 553.460938 150.328125 561.558594 142.242188 561.558594 132.3125 L 561.558594 128.359375 C 561.558594 127.574219 560.90625 126.921875 560.117188 126.921875 L 542.375 126.921875 C 542.269531 126.921875 542.195312 126.832031 542.195312 126.742188 C 542.195312 114.054688 531.851562 103.730469 519.148438 103.730469 C 506.441406 103.730469 496.097656 114.054688 496.097656 126.742188 C 496.097656 126.847656 496.007812 126.921875 495.917969 126.921875 C 495.917969 126.921875 478.160156 126.921875 478.160156 126.921875 Z M 533.1875 126.921875 L 505.105469 126.921875 C 505 126.921875 504.925781 126.832031 504.925781 126.742188 C 504.925781 118.914062 511.308594 112.539062 519.148438 112.539062 C 526.984375 112.539062 533.371094 118.914062 533.371094 126.742188 C 533.371094 126.847656 533.277344 126.921875 533.171875 126.921875 Z M 505.289062 126.542969 L 532.992188 126.542969 C 532.882812 119.003906 526.714844 112.902344 519.148438 112.902344 C 511.582031 112.902344 505.410156 119.019531 505.304688 126.542969 Z M 505.289062 126.542969 " fill-opacity="1" fill-rule="nonzero"/></g><path fill="#f59dc0" d="M 368.835938 428.449219 L 353.78125 428.449219 L 353.035156 391.285156 L 370.976562 391.285156 Z M 368.835938 428.449219 " fill-opacity="1" fill-rule="nonzero"/><g clip-path="url(#93e67e699c)"><path fill="#d5e3ff" d="M 399.816406 441.300781 L 351.945312 441.300781 C 351.355469 441.300781 350.882812 440.816406 350.898438 440.242188 C 350.898438 439.710938 350.898438 438.941406 350.945312 437.773438 C 351.082031 431.914062 351.613281 423.542969 353.523438 423.636719 C 353.582031 423.636719 353.660156 423.636719 353.71875 423.664062 C 356.570312 424 359.042969 427.980469 364.226562 425.34375 C 369.382812 422.742188 369.414062 419.941406 372.414062 422.183594 C 375.328125 424.332031 379.648438 427.648438 386.273438 429.25 C 386.488281 429.296875 386.714844 429.355469 386.925781 429.402344 C 387.230469 429.464844 387.53125 429.539062 387.820312 429.597656 C 394.492188 431.203125 400.238281 429.597656 400.785156 437.53125 C 400.875 438.832031 400.890625 439.683594 400.890625 440.242188 C 400.890625 440.800781 400.40625 441.285156 399.84375 441.285156 L 399.816406 441.285156 Z M 399.816406 441.300781 " fill-opacity="1" fill-rule="nonzero"/></g><path fill="#22335a" d="M 382.878906 437.636719 L 350.929688 437.773438 C 351.066406 431.914062 351.597656 423.542969 353.507812 423.636719 C 353.582031 423.636719 353.644531 423.636719 353.71875 423.664062 C 356.570312 424 359.042969 427.980469 364.226562 425.34375 C 369.382812 422.742188 369.398438 419.941406 372.414062 422.183594 C 375.328125 424.332031 379.648438 427.648438 386.273438 429.25 C 386.488281 429.296875 386.699219 429.355469 386.925781 429.402344 C 387.230469 429.464844 387.53125 429.539062 387.820312 429.597656 C 382.527344 434.125 382.894531 437.621094 382.878906 437.636719 Z M 382.878906 437.636719 " fill-opacity="1" fill-rule="nonzero"/><path fill="#d5e3ff" d="M 380.648438 431.566406 C 380.648438 431.566406 380.589844 431.566406 380.558594 431.566406 C 380.40625 431.523438 380.332031 431.355469 380.375 431.203125 C 380.375 431.175781 381.40625 428.175781 384.378906 428.464844 C 384.53125 428.464844 384.652344 428.617188 384.636719 428.765625 C 384.636719 428.917969 384.484375 429.054688 384.332031 429.023438 C 381.800781 428.796875 380.9375 431.355469 380.921875 431.386719 C 380.875 431.507812 380.769531 431.582031 380.648438 431.582031 Z M 380.648438 431.566406 " fill-opacity="1" fill-rule="nonzero"/><path fill="#d5e3ff" d="M 377.328125 429.902344 C 377.328125 429.902344 377.265625 429.902344 377.238281 429.902344 C 377.085938 429.855469 377.007812 429.691406 377.054688 429.539062 C 377.054688 429.507812 378.085938 426.511719 381.058594 426.800781 C 381.210938 426.800781 381.332031 426.949219 381.316406 427.101562 C 381.300781 427.253906 381.164062 427.390625 381.011719 427.359375 C 378.480469 427.148438 377.632812 429.613281 377.601562 429.71875 C 377.554688 429.839844 377.449219 429.917969 377.328125 429.917969 Z M 377.328125 429.902344 " fill-opacity="1" fill-rule="nonzero"/><path fill="#22335a" d="M 351.1875 438.046875 C 351.035156 438.046875 350.898438 437.925781 350.898438 437.757812 C 350.898438 437.609375 351.019531 437.472656 351.1875 437.472656 L 400.527344 437.257812 C 400.679688 437.257812 400.816406 437.378906 400.816406 437.546875 C 400.816406 437.699219 400.695312 437.835938 400.527344 437.835938 Z M 351.1875 438.046875 " fill-opacity="1" fill-rule="nonzero"/><path fill="#d5e3ff" d="M 378.191406 425.816406 C 377.902344 425.816406 377.660156 425.816406 377.539062 425.816406 C 377.402344 425.816406 377.28125 425.695312 377.265625 425.542969 C 377.238281 425.042969 377.175781 422.546875 378.207031 422.015625 C 378.617188 421.804688 379.085938 421.910156 379.617188 422.332031 C 380.921875 423.347656 381.4375 424.164062 381.195312 424.816406 C 380.875 425.695312 379.191406 425.828125 378.191406 425.828125 Z M 377.84375 425.238281 C 378.980469 425.285156 380.480469 425.101562 380.679688 424.589844 C 380.738281 424.421875 380.738281 423.890625 379.285156 422.757812 C 379.042969 422.574219 378.707031 422.378906 378.480469 422.5 C 377.996094 422.757812 377.828125 424.179688 377.84375 425.238281 Z M 377.84375 425.238281 " fill-opacity="1" fill-rule="nonzero"/><path fill="#d5e3ff" d="M 373.386719 427.085938 C 372.945312 427.085938 372.535156 427.011719 372.234375 426.800781 C 371.777344 426.511719 371.566406 426.011719 371.613281 425.316406 C 371.65625 424.617188 371.914062 424.132812 372.414062 423.878906 C 374.007812 423.042969 377.34375 425.027344 377.707031 425.253906 C 377.796875 425.316406 377.84375 425.40625 377.84375 425.511719 C 377.84375 425.617188 377.78125 425.707031 377.691406 425.753906 C 377.375 425.9375 375.070312 427.085938 373.386719 427.085938 Z M 373.355469 424.253906 C 373.097656 424.253906 372.855469 424.300781 372.671875 424.390625 C 372.371094 424.558594 372.203125 424.875 372.171875 425.359375 C 372.140625 425.828125 372.261719 426.148438 372.535156 426.328125 C 373.429688 426.90625 375.707031 426.058594 376.949219 425.496094 C 376.023438 424.980469 374.445312 424.253906 373.355469 424.253906 Z M 373.355469 424.253906 " fill-opacity="1" fill-rule="nonzero"/><path fill="#f59dc0" d="M 321.074219 426.617188 L 307.972656 424.890625 L 312.019531 392.707031 L 327.609375 394.75 Z M 321.074219 426.617188 " fill-opacity="1" fill-rule="nonzero"/><g clip-path="url(#8356ee80fe)"><path fill="#d5e3ff" d="M 300.027344 437.078125 C 303.425781 431.902344 303.546875 430.992188 307.988281 423.273438 C 309.230469 420.820312 321.40625 420.320312 321.921875 423.695312 L 324.578125 437.59375 L 324.578125 440.636719 C 324.578125 440.96875 324.304688 441.242188 323.96875 441.242188 L 298.527344 441.242188 " fill-opacity="1" fill-rule="nonzero"/></g><path fill="#22335a" d="M 300.011719 437.078125 C 303.410156 431.914062 303.53125 431.007812 307.988281 423.273438 C 309.214844 420.820312 321.40625 420.320312 321.921875 423.679688 L 324.578125 437.578125 C 324.578125 437.578125 321.210938 432.386719 313.808594 432.082031 C 304.152344 431.671875 300.753906 436.53125 300.011719 437.078125 Z M 300.011719 437.078125 " fill-opacity="1" fill-rule="nonzero"/><path fill="#22335a" d="M 324.046875 437.910156 L 300.058594 437.910156 C 299.90625 437.910156 299.769531 437.789062 299.769531 437.621094 C 299.769531 437.457031 299.890625 437.335938 300.058594 437.335938 L 324.03125 437.335938 C 324.183594 437.335938 324.320312 437.457031 324.320312 437.621094 C 324.320312 437.789062 324.195312 437.910156 324.046875 437.910156 Z M 324.046875 437.910156 " fill-opacity="1" fill-rule="nonzero"/><path fill="#d5e3ff" d="M 308.398438 430.070312 C 308.320312 430.070312 308.230469 430.039062 308.183594 429.960938 C 308.078125 429.839844 308.09375 429.660156 308.214844 429.570312 C 309.914062 428.117188 312.976562 427.617188 315.113281 427.875 C 316.523438 428.039062 317.570312 428.523438 318.054688 429.222656 C 318.148438 429.34375 318.117188 429.523438 317.996094 429.613281 C 317.875 429.707031 317.691406 429.675781 317.601562 429.554688 C 317.207031 428.992188 316.296875 428.601562 315.054688 428.449219 C 313.039062 428.207031 310.171875 428.660156 308.59375 430.007812 C 308.535156 430.054688 308.472656 430.070312 308.398438 430.070312 Z M 308.398438 430.070312 " fill-opacity="1" fill-rule="nonzero"/><path fill="#d5e3ff" d="M 308.898438 427.222656 C 308.898438 427.222656 308.777344 427.222656 308.714844 427.164062 C 308.59375 427.054688 308.578125 426.890625 308.683594 426.769531 C 310.460938 424.632812 315.34375 424.269531 318.554688 426.011719 C 318.691406 426.085938 318.738281 426.253906 318.664062 426.390625 C 318.585938 426.527344 318.421875 426.570312 318.285156 426.496094 C 315.34375 424.875 310.71875 425.195312 309.125 427.117188 C 309.050781 427.191406 308.972656 427.222656 308.898438 427.222656 Z M 308.898438 427.222656 " fill-opacity="1" fill-rule="nonzero"/><path fill="#d5e3ff" d="M 312.429688 423.273438 C 311.066406 423.273438 309.15625 423.089844 308.292969 422.121094 C 307.851562 421.636719 307.714844 421.03125 307.882812 420.304688 C 308.035156 419.636719 308.351562 419.230469 308.851562 419.109375 C 310.597656 418.683594 313.808594 422.304688 314.160156 422.710938 C 314.234375 422.789062 314.25 422.910156 314.203125 423 C 314.160156 423.089844 314.082031 423.164062 313.976562 423.179688 C 313.917969 423.210938 313.28125 423.273438 312.429688 423.273438 Z M 309.1875 419.652344 C 309.1875 419.652344 309.050781 419.652344 309.003906 419.652344 C 308.898438 419.683594 308.59375 419.757812 308.441406 420.425781 C 308.320312 420.96875 308.414062 421.394531 308.714844 421.726562 C 309.578125 422.679688 312.007812 422.742188 313.371094 422.667969 C 312.128906 421.320312 310.21875 419.636719 309.1875 419.636719 Z M 309.1875 419.652344 " fill-opacity="1" fill-rule="nonzero"/><path fill="#d5e3ff" d="M 316.765625 423.378906 C 315.402344 423.378906 314.191406 423.226562 313.917969 423.195312 C 313.808594 423.195312 313.71875 423.121094 313.6875 423.015625 C 313.660156 422.910156 313.675781 422.800781 313.734375 422.726562 C 313.855469 422.574219 316.886719 419.03125 319.132812 419.199219 C 319.769531 419.246094 320.285156 419.5625 320.679688 420.136719 C 321.210938 420.941406 321.300781 421.636719 320.953125 422.183594 C 320.347656 423.152344 318.449219 423.378906 316.765625 423.378906 Z M 314.539062 422.695312 C 316.34375 422.878906 319.785156 422.984375 320.480469 421.894531 C 320.695312 421.546875 320.601562 421.078125 320.210938 420.472656 C 319.921875 420.03125 319.574219 419.804688 319.101562 419.789062 C 317.539062 419.683594 315.386719 421.789062 314.539062 422.695312 Z M 314.539062 422.695312 " fill-opacity="1" fill-rule="nonzero"/><path fill="#d5e3ff" d="M 334.21875 251.738281 L 384.167969 251.738281 C 384.167969 251.738281 387.03125 269.390625 385.183594 282.800781 C 384.105469 290.660156 374.582031 411.722656 374.582031 411.722656 L 370.730469 414.339844 C 368.882812 415.597656 366.609375 416.082031 364.394531 415.703125 L 347.988281 412.8125 C 347.988281 412.8125 354.839844 329.457031 356.996094 302.542969 C 347.230469 324.644531 342.121094 382.851562 332.414062 412.449219 L 316.34375 414.160156 C 315.355469 414.265625 314.339844 414.113281 313.429688 413.71875 L 303.96875 409.585938 C 310.019531 379.628906 320.847656 326.023438 326.972656 295.914062 C 330.503906 278.546875 327.367188 280.636719 334.21875 251.738281 Z M 334.21875 251.738281 " fill-opacity="1" fill-rule="nonzero"/><path fill="#22335a" d="M 359.664062 286.449219 C 359.511719 286.449219 359.390625 286.316406 359.390625 286.164062 C 359.390625 286.011719 359.496094 285.875 359.679688 285.890625 C 359.875 285.890625 364.425781 285.953125 365.957031 278.851562 C 367.003906 273.992188 370.050781 258.003906 370.082031 257.839844 C 370.109375 257.6875 370.261719 257.582031 370.414062 257.613281 C 370.566406 257.640625 370.671875 257.792969 370.640625 257.945312 C 370.609375 258.113281 367.5625 274.097656 366.5 278.957031 C 364.941406 286.316406 360.027344 286.449219 359.679688 286.449219 Z M 359.664062 286.449219 " fill-opacity="0.3" fill-rule="nonzero"/><path fill="#22335a" d="M 356.996094 301.195312 L 356.949219 301.195312 C 356.796875 301.164062 356.691406 301.015625 356.722656 300.863281 L 364.667969 256.960938 C 364.699219 256.808594 364.847656 256.703125 365 256.734375 C 365.152344 256.765625 365.257812 256.914062 365.226562 257.066406 L 357.28125 300.96875 C 357.238281 301.089844 357.132812 301.195312 356.996094 301.195312 Z M 356.996094 301.195312 " fill-opacity="0.3" fill-rule="nonzero"/><path fill="#22335a" d="M 367.957031 166.007812 C 369.777344 164.722656 371.808594 160.210938 370.65625 156.851562 C 369.503906 153.503906 370.65625 156.820312 370.65625 156.804688 C 370.503906 156.835938 370.367188 156.867188 370.230469 156.910156 C 367.578125 157.820312 367.167969 162.527344 367.972656 166.007812 Z M 367.957031 166.007812 " fill-opacity="1" fill-rule="nonzero"/><path fill="#f59dc0" d="M 352.566406 171.960938 L 366.972656 171.960938 L 366.972656 180.738281 C 366.972656 181.8125 364.832031 182.070312 364.152344 182.070312 L 356.238281 182.070312 C 353.78125 182.070312 352.566406 181.164062 352.566406 180.222656 Z M 352.566406 171.960938 " fill-opacity="1" fill-rule="nonzero"/><path fill="#22335a" d="M 352.644531 171.960938 L 366.972656 171.960938 L 366.972656 175.257812 C 366.972656 177.332031 365.304688 179.121094 363.226562 179.058594 C 359.753906 178.9375 356.265625 177.894531 352.644531 171.960938 Z M 352.644531 171.960938 " fill-opacity="0.3" fill-rule="nonzero"/><path fill="#f59dc0" d="M 363.832031 177.894531 L 363.273438 177.894531 C 357.480469 177.710938 354.417969 174.835938 352.902344 172.609375 C 352.492188 172.003906 352.203125 171.460938 352.007812 171.019531 C 351.71875 170.382812 351.597656 169.976562 351.597656 169.976562 C 351.597656 169.976562 347.441406 156.214844 353.960938 154.351562 C 365.773438 150.070312 367.078125 155.214844 367.078125 155.214844 C 369.15625 156.367188 372.808594 177.015625 363.832031 177.894531 Z M 363.832031 177.894531 " fill-opacity="1" fill-rule="nonzero"/><path fill="#22335a" d="M 374.3125 160.410156 L 373.992188 157.578125 C 373.660156 158.5 371.203125 160.421875 369.441406 160.242188 C 368.183594 162.542969 362.136719 155.429688 362.136719 155.429688 C 362.136719 155.429688 357.964844 155.550781 355.507812 155.988281 C 354.855469 156.109375 354.402344 156.261719 354.265625 156.425781 C 353.613281 157.257812 353.476562 161.210938 352.765625 162.875 C 352.050781 164.542969 349.640625 165.84375 349.640625 165.84375 C 349.640625 165.84375 347.125 161.527344 347.03125 157.894531 C 346.941406 154.261719 351.703125 153.476562 352.113281 152.71875 C 352.371094 149.585938 361.300781 145.753906 363.789062 145.359375 C 366.257812 144.96875 366.609375 147.3125 369.035156 149.433594 C 371.460938 151.550781 374.839844 152.371094 375.855469 155.472656 C 376.886719 158.5625 374.3125 160.410156 374.3125 160.410156 Z M 374.3125 160.410156 " fill-opacity="1" fill-rule="nonzero"/><path fill="#22335a" d="M 365.152344 161.605469 C 365.0625 161.605469 364.984375 161.558594 364.925781 161.5 C 364.832031 161.378906 364.847656 161.195312 364.984375 161.105469 C 366.0625 160.300781 367.046875 160.257812 368.167969 160.96875 C 368.304688 161.058594 368.335938 161.226562 368.261719 161.363281 C 368.167969 161.5 368.003906 161.527344 367.867188 161.453125 C 366.941406 160.878906 366.214844 160.90625 365.335938 161.574219 C 365.273438 161.574219 365.210938 161.605469 365.152344 161.605469 Z M 365.152344 161.605469 " fill-opacity="1" fill-rule="nonzero"/><path fill="#22335a" d="M 358.964844 161.9375 C 358.875 161.9375 358.785156 161.890625 358.738281 161.816406 C 358.648438 161.695312 358.675781 161.511719 358.8125 161.421875 C 361.074219 159.832031 362.679688 160.847656 362.742188 160.878906 C 362.878906 160.96875 362.90625 161.136719 362.816406 161.269531 C 362.726562 161.40625 362.558594 161.4375 362.421875 161.363281 C 362.363281 161.332031 361.058594 160.53125 359.132812 161.890625 C 359.085938 161.921875 359.027344 161.9375 358.964844 161.9375 Z M 358.964844 161.9375 " fill-opacity="1" fill-rule="nonzero"/><path fill="#22335a" d="M 366.773438 163.558594 C 367.03125 163.558594 367.230469 163.300781 367.230469 162.96875 C 367.230469 162.632812 367.03125 162.375 366.773438 162.375 C 366.515625 162.375 366.320312 162.632812 366.320312 162.96875 C 366.320312 163.300781 366.53125 163.558594 366.773438 163.558594 Z M 366.773438 163.558594 " fill-opacity="1" fill-rule="nonzero"/><path fill="#22335a" d="M 361.46875 163.785156 C 361.742188 163.785156 361.953125 163.496094 361.953125 163.164062 C 361.953125 162.832031 361.742188 162.542969 361.46875 162.542969 C 361.195312 162.542969 360.980469 162.832031 360.980469 163.164062 C 360.980469 163.496094 361.195312 163.785156 361.46875 163.785156 Z M 361.46875 163.785156 " fill-opacity="1" fill-rule="nonzero"/><path fill="#22335a" d="M 364.5625 168.824219 C 364.5625 168.824219 364.394531 168.796875 364.347656 168.71875 C 364.242188 168.597656 364.273438 168.417969 364.394531 168.324219 C 365.636719 167.3125 365.320312 166.707031 364.742188 165.632812 C 364.410156 164.996094 364.015625 164.285156 363.910156 163.332031 C 363.910156 163.179688 364 163.027344 364.152344 163.011719 C 364.316406 163.011719 364.453125 163.101562 364.46875 163.253906 C 364.574219 164.101562 364.925781 164.769531 365.242188 165.359375 C 365.820312 166.433594 366.363281 167.449219 364.757812 168.765625 C 364.683594 168.808594 364.621094 168.824219 364.5625 168.824219 Z M 364.5625 168.824219 " fill-opacity="0.4" fill-rule="nonzero"/><path fill="#22335a" d="M 364.210938 171.59375 C 363.816406 171.59375 363.410156 171.503906 363.015625 171.339844 C 362.105469 170.929688 361.363281 170.097656 361.074219 169.160156 C 361.027344 169.007812 361.117188 168.855469 361.253906 168.808594 C 361.40625 168.765625 361.558594 168.855469 361.605469 168.992188 C 361.847656 169.777344 362.46875 170.476562 363.242188 170.824219 C 363.863281 171.097656 364.53125 171.109375 365.089844 170.824219 C 365.226562 170.761719 365.410156 170.824219 365.46875 170.960938 C 365.53125 171.097656 365.46875 171.277344 365.335938 171.339844 C 365 171.488281 364.605469 171.582031 364.210938 171.582031 Z M 364.210938 171.59375 " fill-opacity="0.4" fill-rule="nonzero"/><path fill="#f59dc0" d="M 352.566406 166.007812 C 352.566406 166.007812 350.746094 160.136719 348.230469 164.359375 C 347.835938 165.101562 348.109375 169.855469 351.808594 170.492188 C 353.1875 167.855469 352.566406 166.007812 352.566406 166.007812 Z M 352.566406 166.007812 " fill-opacity="1" fill-rule="nonzero"/><path fill="#22335a" d="M 351.171875 167.949219 C 351.082031 167.949219 350.988281 167.871094 350.988281 167.78125 L 350.988281 167.707031 C 350.855469 166.796875 350.808594 166.464844 349.867188 165.796875 C 349.777344 165.738281 349.761719 165.617188 349.824219 165.539062 C 349.882812 165.449219 350.003906 165.433594 350.082031 165.496094 C 351.15625 166.25 351.21875 166.722656 351.355469 167.660156 L 351.355469 167.734375 C 351.382812 167.839844 351.308594 167.933594 351.203125 167.949219 C 351.1875 167.949219 351.171875 167.949219 351.171875 167.949219 Z M 351.171875 167.949219 " fill-opacity="1" fill-rule="nonzero"/><path fill="#6f8cf3" d="M 372.355469 196.4375 C 375.039062 188.503906 379.707031 186.234375 384.695312 189.65625 C 391.535156 194.574219 409.246094 207.292969 411.246094 217.964844 C 411.761719 225.671875 406.609375 225.898438 400.722656 224.59375 C 394.824219 223.292969 369.671875 204.386719 372.355469 196.4375 Z M 372.355469 196.4375 " fill-opacity="1" fill-rule="nonzero"/><path fill="#f59dc0" d="M 359.964844 179.753906 C 359.648438 179.753906 359.328125 179.753906 359.011719 179.710938 C 356.25 179.496094 354.023438 178.878906 353.976562 179.089844 C 350.792969 181.285156 348.457031 182.191406 341.375 184.222656 C 339.390625 185.582031 335.476562 186.550781 338.664062 186.824219 C 344.316406 196.953125 348.503906 207.640625 364.699219 208.09375 C 375.265625 209.472656 375.054688 186.976562 375.054688 186.976562 C 375.054688 186.976562 375.628906 188.324219 375.933594 186.21875 C 372.082031 184.191406 368.746094 181.558594 365.941406 179.089844 C 365.894531 178.878906 363.667969 179.484375 360.90625 179.710938 C 360.589844 179.710938 360.269531 179.753906 359.953125 179.753906 Z M 359.964844 179.753906 " fill-opacity="1" fill-rule="nonzero"/><path fill="#6f8cf3" d="M 346.167969 182.417969 C 347.394531 181.921875 350.382812 180.816406 350.808594 180.664062 C 350.839844 180.664062 350.867188 180.664062 350.898438 180.695312 C 350.929688 180.722656 350.945312 180.753906 350.976562 180.800781 C 353.113281 183.660156 356.917969 188.71875 363.058594 188.914062 C 369.035156 189.109375 368.835938 184.539062 368.699219 181.890625 C 368.699219 181.722656 368.699219 181.570312 368.699219 181.421875 C 368.699219 181.359375 368.761719 181.328125 368.820312 181.359375 L 368.851562 181.359375 C 370.292969 182.285156 372.082031 183.386719 374.78125 184.828125 C 375.84375 185.234375 376.539062 185.507812 377.070312 185.703125 C 378.601562 186.28125 378.800781 186.355469 382.164062 187.976562 C 386.578125 192.683594 386.957031 208.199219 387.304688 222.71875 C 387.546875 232.589844 387.773438 242.003906 389.261719 247.226562 C 390.582031 251.875 389.59375 256.703125 387.367188 257.777344 C 384.273438 258.730469 334.3125 262.714844 331.113281 261.09375 C 329.109375 260.230469 329.488281 258.261719 330.09375 255.054688 C 330.550781 252.617188 331.15625 249.453125 330.945312 245.5 C 329.988281 236.570312 329.320312 226.5625 328.699219 217.191406 C 328.078125 207.820312 327.503906 199.085938 326.714844 192.730469 C 326.410156 190.335938 330.445312 187.6875 332.535156 186.808594 C 334.066406 186.175781 341.484375 183.765625 346.183594 182.417969 Z M 346.167969 182.417969 " fill-opacity="1" fill-rule="nonzero"/><path fill="#22335a" d="M 386.289062 231.242188 C 386.121094 231.242188 386 231.105469 386 230.9375 C 386.046875 229.757812 386.09375 228.621094 386.152344 227.515625 C 386.699219 214.816406 387.0625 206.429688 382.816406 195.089844 C 382.757812 194.9375 382.816406 194.773438 382.984375 194.726562 C 383.136719 194.667969 383.300781 194.726562 383.347656 194.894531 C 387.625 206.339844 387.257812 214.785156 386.714844 227.546875 C 386.667969 228.652344 386.621094 229.789062 386.5625 230.96875 C 386.5625 231.136719 386.441406 231.242188 386.289062 231.242188 Z M 386.289062 231.242188 " fill-opacity="0.3" fill-rule="nonzero"/><path fill="#22335a" d="M 400.300781 211.652344 C 400.300781 211.652344 400.238281 211.652344 400.207031 211.636719 C 400.058594 211.589844 399.980469 211.425781 400.027344 211.273438 C 400.464844 210.03125 401.769531 207.324219 403.636719 206.050781 C 403.773438 205.960938 403.9375 205.988281 404.03125 206.125 C 404.121094 206.261719 404.089844 206.429688 403.953125 206.519531 C 402.210938 207.714844 400.980469 210.273438 400.574219 211.457031 C 400.527344 211.589844 400.421875 211.652344 400.300781 211.652344 Z M 400.300781 211.652344 " fill-opacity="0.3" fill-rule="nonzero"/><path fill="#ffffff" d="M 371.703125 189.230469 L 444.242188 409.675781 C 444.683594 411.023438 445.441406 412.265625 446.441406 413.296875 L 460.511719 427.632812 L 472.113281 439.4375 L 474.429688 423.058594 L 477.25 403.167969 C 477.464844 401.746094 477.328125 400.308594 476.871094 398.945312 L 404.363281 178.527344 C 402.378906 172.488281 395.886719 169.1875 389.882812 171.171875 L 379.011719 174.746094 C 372.992188 176.699219 369.714844 183.207031 371.703125 189.230469 Z M 371.703125 189.230469 " fill-opacity="1" fill-rule="nonzero"/><path fill="#22335a" d="M 472.125 439.636719 C 472.125 439.636719 472.019531 439.636719 471.992188 439.574219 L 446.320312 413.417969 C 445.304688 412.371094 444.53125 411.101562 444.074219 409.722656 L 371.535156 189.292969 C 370.566406 186.324219 370.792969 183.160156 372.1875 180.375 C 373.582031 177.589844 375.980469 175.515625 378.933594 174.546875 L 389.808594 170.976562 C 395.902344 168.976562 402.511719 172.335938 404.53125 178.453125 L 477.070312 398.898438 C 477.523438 400.292969 477.660156 401.773438 477.449219 403.199219 L 472.308594 439.46875 C 472.292969 439.546875 472.246094 439.605469 472.1875 439.621094 C 472.171875 439.621094 472.15625 439.621094 472.125 439.621094 Z M 393.414062 170.777344 C 392.261719 170.777344 391.082031 170.960938 389.929688 171.339844 L 379.054688 174.910156 C 376.207031 175.847656 373.886719 177.847656 372.519531 180.542969 C 371.171875 183.238281 370.945312 186.308594 371.882812 189.171875 L 444.425781 409.617188 C 444.863281 410.933594 445.605469 412.160156 446.578125 413.160156 L 471.992188 439.046875 L 477.085938 403.152344 C 477.28125 401.789062 477.160156 400.351562 476.722656 399.019531 L 404.179688 178.589844 C 402.605469 173.820312 398.160156 170.777344 393.414062 170.777344 Z M 393.414062 170.777344 " fill-opacity="1" fill-rule="nonzero"/><path fill="#f59dc0" d="M 371.703125 189.230469 L 379.601562 213.257812 L 412.25 202.554688 L 404.363281 178.527344 C 402.378906 172.488281 395.902344 169.1875 389.882812 171.171875 L 379.011719 174.746094 C 372.976562 176.710938 369.714844 183.191406 371.703125 189.230469 Z M 371.703125 189.230469 " fill-opacity="1" fill-rule="nonzero"/><path fill="#22335a" d="M 379.617188 213.453125 C 379.617188 213.453125 379.558594 213.453125 379.527344 213.4375 C 379.480469 213.421875 379.449219 213.378906 379.4375 213.332031 L 371.535156 189.308594 C 370.550781 186.339844 370.792969 183.160156 372.1875 180.390625 C 373.582031 177.605469 375.980469 175.546875 378.949219 174.5625 L 389.824219 170.988281 C 395.933594 168.992188 402.527344 172.351562 404.546875 178.46875 L 412.445312 202.492188 C 412.476562 202.597656 412.429688 202.707031 412.324219 202.734375 L 379.679688 213.4375 C 379.679688 213.4375 379.632812 213.4375 379.617188 213.4375 Z M 393.414062 170.777344 C 392.261719 170.777344 391.082031 170.960938 389.929688 171.339844 L 379.054688 174.910156 C 376.191406 175.847656 373.871094 177.847656 372.519531 180.542969 C 371.171875 183.238281 370.945312 186.296875 371.882812 189.171875 L 379.722656 213.015625 L 412.003906 202.417969 L 404.179688 178.589844 C 402.605469 173.820312 398.160156 170.777344 393.414062 170.777344 Z M 393.414062 170.777344 " fill-opacity="1" fill-rule="nonzero"/><path fill="#d5e3ff" d="M 379.617188 213.257812 L 442.664062 404.832031 C 443.605469 404.210938 443.910156 403.105469 444.195312 402.003906 C 444.546875 400.671875 444.894531 399.414062 446.273438 398.960938 C 447.667969 398.503906 448.667969 399.308594 449.761719 400.171875 C 450.824219 401.003906 451.914062 401.867188 453.355469 401.398438 C 454.796875 400.925781 455.160156 399.578125 455.507812 398.277344 C 455.855469 396.945312 456.207031 395.691406 457.601562 395.234375 C 458.996094 394.78125 459.996094 395.582031 461.089844 396.445312 C 462.148438 397.277344 463.242188 398.140625 464.683594 397.671875 C 466.121094 397.203125 466.484375 395.855469 466.835938 394.554688 C 467.183594 393.222656 467.53125 391.964844 468.925781 391.511719 C 470.324219 391.058594 471.324219 391.859375 472.414062 392.722656 C 473.292969 393.417969 474.1875 394.144531 475.324219 394.085938 L 412.277344 202.539062 L 379.632812 213.257812 Z M 379.617188 213.257812 " fill-opacity="1" fill-rule="nonzero"/><path fill="#22335a" d="M 442.664062 405.015625 C 442.664062 405.015625 442.621094 405.015625 442.605469 405.015625 C 442.542969 405.015625 442.5 404.953125 442.484375 404.894531 L 379.4375 213.332031 C 379.4375 213.332031 379.4375 213.226562 379.4375 213.179688 C 379.4375 213.136719 379.496094 213.105469 379.542969 213.089844 L 412.1875 202.386719 C 412.292969 202.355469 412.398438 202.402344 412.429688 202.507812 L 475.476562 394.085938 C 475.476562 394.085938 475.492188 394.207031 475.449219 394.25 C 475.417969 394.296875 475.355469 394.328125 475.296875 394.328125 C 474.113281 394.386719 473.171875 393.644531 472.261719 392.917969 C 471.171875 392.054688 470.230469 391.316406 468.941406 391.738281 C 467.636719 392.164062 467.320312 393.375 466.972656 394.644531 C 466.636719 395.933594 466.242188 397.386719 464.695312 397.882812 C 463.148438 398.382812 461.96875 397.445312 460.921875 396.628906 C 459.84375 395.765625 458.917969 395.023438 457.617188 395.449219 C 456.3125 395.871094 455.992188 397.082031 455.644531 398.355469 C 455.28125 399.714844 454.902344 401.09375 453.371094 401.59375 C 451.824219 402.109375 450.703125 401.199219 449.59375 400.335938 C 448.503906 399.472656 447.578125 398.730469 446.273438 399.15625 C 444.96875 399.578125 444.667969 400.730469 444.316406 402.0625 C 444.046875 403.121094 443.726562 404.320312 442.695312 405 C 442.695312 405.03125 442.664062 405.03125 442.636719 405.03125 Z M 379.84375 213.378906 L 442.757812 404.515625 C 443.5 403.894531 443.773438 402.863281 444.015625 401.957031 C 444.363281 400.640625 444.726562 399.277344 446.214844 398.777344 C 447.699219 398.292969 448.761719 399.125 449.882812 400.019531 C 450.960938 400.867188 451.960938 401.652344 453.308594 401.214844 C 454.644531 400.777344 454.976562 399.550781 455.324219 398.261719 C 455.691406 396.914062 456.039062 395.554688 457.554688 395.070312 C 459.042969 394.570312 460.148438 395.460938 461.210938 396.308594 C 462.269531 397.15625 463.273438 397.945312 464.621094 397.507812 C 465.984375 397.066406 466.320312 395.765625 466.652344 394.523438 C 467 393.207031 467.367188 391.84375 468.867188 391.34375 C 470.351562 390.859375 471.414062 391.691406 472.519531 392.585938 C 473.308594 393.222656 474.113281 393.859375 475.054688 393.917969 L 412.15625 202.78125 Z M 379.84375 213.378906 " fill-opacity="1" fill-rule="nonzero"/><path fill="#22335a" d="M 460.542969 427.632812 L 472.140625 439.441406 L 474.460938 423.058594 C 470.488281 419.652344 461.726562 422.53125 460.542969 427.632812 Z M 460.542969 427.632812 " fill-opacity="1" fill-rule="nonzero"/><path fill="#22335a" d="M 407.058594 204.242188 L 407.417969 204.125 L 469.074219 391.460938 L 468.714844 391.582031 Z M 407.058594 204.242188 " fill-opacity="1" fill-rule="nonzero"/><path fill="#22335a" d="M 395.742188 207.960938 L 396.101562 207.84375 L 457.761719 395.179688 L 457.398438 395.300781 Z M 395.742188 207.960938 " fill-opacity="1" fill-rule="nonzero"/><path fill="#22335a" d="M 384.441406 211.664062 L 384.800781 211.546875 L 446.460938 398.882812 L 446.097656 399.003906 Z M 384.441406 211.664062 " fill-opacity="1" fill-rule="nonzero"/><path fill="#6f8cf3" d="M 377.875 207.957031 L 410.519531 197.253906 L 412.261719 202.554688 L 379.617188 213.257812 Z M 377.875 207.957031 " fill-opacity="1" fill-rule="nonzero"/><path fill="#22335a" d="M 379.496094 213.5 L 377.632812 207.851562 L 377.8125 207.792969 L 410.640625 197.027344 L 412.507812 202.675781 L 412.324219 202.734375 Z M 378.117188 208.078125 L 379.738281 213.015625 L 412.019531 202.417969 L 410.398438 197.480469 Z M 378.117188 208.078125 " fill-opacity="1" fill-rule="nonzero"/><g clip-path="url(#c67c65f96f)"><g clip-path="url(#6c27d7e216)"><path fill="#f59dc0" d="M 409.050781 192.941406 L 409.65625 192.457031 C 409.65625 192.457031 407.109375 195.226562 408.777344 196.679688 C 408.941406 196.816406 409.15625 196.863281 409.351562 196.769531 L 410.367188 196.332031 C 410.367188 196.332031 409.945312 197.4375 409.59375 197.574219 C 409.246094 197.710938 407.503906 198.664062 407.503906 198.664062 C 405.121094 199.691406 406.820312 201.949219 407.152344 201.84375 L 407.441406 201.796875 L 405.910156 202.839844 C 404.894531 203.355469 405.089844 205.535156 407.109375 205.25 C 405.273438 206.671875 406.699219 207.671875 407.835938 207.535156 C 407.835938 207.535156 410.71875 207.625 411.460938 207.109375 C 412.203125 206.59375 414.25 204.75 414.234375 203.808594 C 414.21875 202.855469 413.386719 202.3125 413.386719 202.3125 C 413.976562 201.359375 414.566406 200.539062 414.824219 199.691406 C 415.054688 198.964844 414.160156 197.859375 413.78125 197.816406 L 414.128906 196.269531 C 414.28125 195.621094 413.414062 194.320312 412.476562 194.273438 C 412.476562 194.273438 412.597656 193 412.003906 192.015625 C 411.414062 191.046875 411.097656 191.003906 410.898438 190.914062 C 410.71875 190.820312 408.277344 190.519531 408.261719 190.609375 C 408.261719 190.699219 409.050781 192.941406 409.050781 192.941406 Z M 409.050781 192.941406 " fill-opacity="1" fill-rule="nonzero"/></g></g><g clip-path="url(#92537973b6)"><g clip-path="url(#c5f7576128)"><path fill="#22335a" d="M 407.125 205.460938 C 407.03125 205.460938 406.957031 205.398438 406.941406 205.324219 C 406.910156 205.21875 406.972656 205.113281 407.078125 205.097656 C 407.109375 205.097656 409.777344 204.402344 411.050781 203.976562 C 412.261719 203.566406 413.25 202.265625 413.265625 202.25 C 413.324219 202.160156 413.445312 202.144531 413.539062 202.207031 C 413.628906 202.265625 413.644531 202.386719 413.582031 202.464844 C 413.539062 202.523438 412.507812 203.886719 411.1875 204.324219 C 409.867188 204.765625 407.214844 205.445312 407.199219 205.460938 C 407.152344 205.460938 407.136719 205.460938 407.125 205.460938 Z M 407.125 205.460938 " fill-opacity="1" fill-rule="nonzero"/></g></g><g clip-path="url(#fd69ed6d33)"><g clip-path="url(#5cc2e81dab)"><path fill="#22335a" d="M 407.457031 202.007812 C 407.367188 202.007812 407.289062 201.949219 407.273438 201.855469 C 407.246094 201.75 407.320312 201.660156 407.410156 201.628906 L 411.382812 200.707031 C 412.765625 200.253906 413.613281 197.800781 413.628906 197.785156 C 413.660156 197.679688 413.765625 197.632812 413.871094 197.664062 C 413.976562 197.695312 414.023438 197.800781 413.992188 197.90625 C 413.960938 198.011719 413.066406 200.554688 411.488281 201.070312 L 407.503906 201.992188 C 407.503906 201.992188 407.472656 202.007812 407.457031 202.007812 Z M 407.457031 202.007812 " fill-opacity="1" fill-rule="nonzero"/></g></g><g clip-path="url(#f075141f4d)"><g clip-path="url(#cda5c638b7)"><path fill="#22335a" d="M 410.382812 196.527344 C 410.308594 196.527344 410.246094 196.484375 410.214844 196.421875 C 410.171875 196.332031 410.214844 196.210938 410.308594 196.164062 C 411.367188 195.664062 412.355469 194.226562 412.355469 194.210938 C 412.414062 194.121094 412.535156 194.105469 412.613281 194.167969 C 412.703125 194.226562 412.71875 194.347656 412.65625 194.425781 C 412.613281 194.484375 411.613281 195.96875 410.460938 196.511719 C 410.460938 196.511719 410.414062 196.511719 410.382812 196.511719 Z M 410.382812 196.527344 " fill-opacity="1" fill-rule="nonzero"/></g></g><g clip-path="url(#d7f0a4ec77)"><g clip-path="url(#59ed1031c9)"><path fill="#22335a" d="M 408.882812 194.015625 C 408.882812 194.015625 408.835938 194.015625 408.804688 194.015625 C 408.714844 193.984375 408.65625 193.863281 408.699219 193.773438 L 408.777344 193.59375 C 408.941406 193.152344 409.140625 192.609375 409.550781 192.320312 C 409.625 192.273438 409.640625 192.246094 409.640625 192.246094 C 409.59375 192.183594 409.261719 192.046875 408.941406 191.988281 C 408.835938 191.988281 408.777344 191.867188 408.792969 191.761719 C 408.804688 191.652344 408.914062 191.59375 409.019531 191.609375 C 409.292969 191.667969 409.945312 191.835938 410.019531 192.183594 C 410.035156 192.289062 410.019531 192.472656 409.777344 192.621094 C 409.472656 192.835938 409.292969 193.320312 409.140625 193.714844 L 409.0625 193.910156 C 409.0625 193.910156 408.957031 194.03125 408.882812 194.03125 Z M 408.882812 194.015625 " fill-opacity="1" fill-rule="nonzero"/></g></g><path fill="#6f8cf3" d="M 325.835938 202.085938 C 322.726562 186.128906 335.75 185.492188 340.726562 188.929688 C 347.546875 193.878906 359.300781 216.511719 361.253906 227.199219 C 361.742188 234.90625 358.707031 241.019531 350.867188 237.585938 C 343 234.117188 328.929688 218.039062 325.835938 202.085938 Z M 325.835938 202.085938 " fill-opacity="1" fill-rule="nonzero"/><path fill="#f59dc0" d="M 375.917969 236.707031 L 381.105469 230.410156 C 386.472656 231.015625 392.355469 230.90625 397.117188 230.652344 C 398.722656 230.574219 405.304688 232.179688 406.351562 232.4375 C 406.441406 232.453125 406.5 232.542969 406.488281 232.632812 C 406.457031 233.074219 406.199219 234.300781 404.363281 234.464844 C 402.132812 234.664062 400.011719 234.421875 400.011719 234.421875 C 401.164062 235.433594 402.46875 236.238281 403.878906 236.796875 C 404.347656 236.976562 404.820312 237.175781 405.289062 237.402344 L 410.808594 240.113281 C 412.871094 240.792969 413.28125 243.09375 410.640625 242.578125 L 404.394531 240.339844 C 404.242188 240.308594 404.152344 240.519531 404.304688 240.597656 L 411.097656 244.273438 C 413.582031 245.757812 412.824219 248.363281 409.699219 246.804688 L 402.878906 243.398438 L 408.882812 247.332031 C 410.792969 248.589844 409.746094 250.722656 407.273438 249.40625 L 399.980469 245.273438 C 402.695312 246.953125 402.058594 246.832031 405 248.648438 C 406.789062 250.117188 404.667969 251.449219 403.636719 250.679688 L 397.191406 247.167969 C 397.191406 247.167969 391.460938 245.335938 388.425781 243.730469 C 384.347656 241.929688 380.042969 242.140625 375.722656 240.988281 Z M 375.917969 236.707031 " fill-opacity="1" fill-rule="nonzero"/><path fill="#22335a" d="M 401.089844 246.046875 C 401.089844 246.046875 401.042969 246.046875 401.011719 246.03125 L 399.617188 245.425781 C 399.527344 245.378906 399.480469 245.273438 399.527344 245.183594 C 399.570312 245.09375 399.679688 245.046875 399.769531 245.09375 L 401.164062 245.699219 C 401.253906 245.742188 401.300781 245.847656 401.253906 245.941406 C 401.226562 246 401.164062 246.046875 401.089844 246.046875 Z M 402.589844 242.835938 C 402.589844 242.835938 402.542969 242.835938 402.511719 242.820312 L 401.117188 242.214844 C 401.027344 242.171875 400.980469 242.066406 401.027344 241.972656 C 401.074219 241.882812 401.179688 241.835938 401.269531 241.882812 L 402.664062 242.488281 C 402.757812 242.535156 402.800781 242.640625 402.757812 242.730469 C 402.726562 242.792969 402.664062 242.835938 402.589844 242.835938 Z M 402.589844 242.835938 " fill-opacity="1" fill-rule="nonzero"/><path fill="#22335a" d="M 403.589844 239.960938 C 403.589844 239.960938 403.542969 239.960938 403.515625 239.945312 L 402.121094 239.339844 C 402.027344 239.292969 401.984375 239.1875 402.027344 239.097656 C 402.074219 239.007812 402.179688 238.960938 402.269531 239.007812 L 403.667969 239.613281 C 403.757812 239.65625 403.800781 239.765625 403.757812 239.855469 C 403.726562 239.914062 403.667969 239.960938 403.589844 239.960938 Z M 403.589844 239.960938 " fill-opacity="1" fill-rule="nonzero"/><path fill="#6f8cf3" d="M 383.667969 230.5 C 383.667969 230.5 383.742188 230.574219 383.710938 230.621094 C 380.074219 236.007812 381.40625 241.671875 382.332031 242.503906 C 382.363281 242.535156 382.363281 242.59375 382.332031 242.59375 C 380.269531 242.761719 355.871094 244.578125 349.808594 236.78125 C 344.289062 229.695312 347.304688 225.941406 352.671875 222.097656 C 354.296875 220.933594 356.265625 220.339844 358.253906 220.554688 C 369.640625 221.71875 373.6875 228.347656 383.679688 230.5 Z M 383.667969 230.5 " fill-opacity="1" fill-rule="nonzero"/><path fill="#22335a" d="M 383.03125 230.695312 C 383.03125 230.695312 382.953125 230.679688 382.90625 230.664062 C 374.234375 226.578125 369.140625 224.625 359.207031 221.597656 C 359.058594 221.550781 358.980469 221.386719 359.027344 221.25 C 359.070312 221.097656 359.238281 221.023438 359.375 221.066406 C 369.320312 224.09375 374.433594 226.046875 383.152344 230.152344 C 383.285156 230.210938 383.347656 230.394531 383.285156 230.53125 C 383.242188 230.636719 383.136719 230.695312 383.03125 230.695312 Z M 383.03125 230.695312 " fill-opacity="0.3" fill-rule="nonzero"/><path fill="#22335a" d="M 375.507812 243.050781 C 360.269531 243.050781 350.839844 241.050781 346.730469 236.976562 C 342.058594 231.753906 335.21875 223.140625 329.125 211.667969 L 328.867188 211.183594 C 328.792969 211.046875 328.835938 210.878906 328.972656 210.804688 C 329.109375 210.726562 329.292969 210.773438 329.351562 210.910156 L 329.609375 211.394531 C 335.675781 222.824219 342.484375 231.40625 347.125 236.585938 C 351.671875 241.097656 363.136719 242.988281 382.179688 242.367188 C 382.332031 242.367188 382.46875 242.488281 382.46875 242.640625 C 382.46875 242.792969 382.347656 242.929688 382.195312 242.929688 C 379.859375 243.003906 377.632812 243.050781 375.507812 243.050781 Z M 375.507812 243.050781 " fill-opacity="0.3" fill-rule="nonzero"/><path fill="#22335a" d="M 354.613281 213.121094 C 354.492188 213.121094 354.386719 213.042969 354.339844 212.9375 C 352.65625 208.171875 350.566406 202.644531 347.941406 197.785156 C 347.867188 197.648438 347.910156 197.480469 348.0625 197.40625 C 348.199219 197.332031 348.367188 197.40625 348.441406 197.527344 C 351.082031 202.417969 353.171875 207.972656 354.871094 212.757812 C 354.917969 212.910156 354.839844 213.058594 354.703125 213.121094 C 354.675781 213.121094 354.644531 213.121094 354.613281 213.121094 Z M 354.613281 213.121094 " fill-opacity="0.3" fill-rule="nonzero"/><g clip-path="url(#37e1f54d5d)"><path fill="#6f8cf3" d="M 497.417969 392.117188 C 497.417969 392.117188 497.417969 392.164062 497.417969 392.175781 C 497.417969 392.238281 497.417969 392.285156 497.464844 392.328125 C 501.859375 396.644531 504.574219 405.9375 504.574219 416.550781 C 504.574219 418.578125 504.46875 420.546875 504.289062 422.453125 C 503.484375 430.523438 501.011719 437.257812 497.464844 440.757812 C 497.433594 440.785156 497.417969 440.832031 497.417969 440.863281 C 497.417969 440.894531 497.417969 440.921875 497.417969 440.953125 C 497.449219 441.027344 497.523438 441.074219 497.601562 441.074219 L 701.222656 441.074219 C 714.765625 441.074219 725.800781 430.070312 725.800781 416.535156 C 725.800781 403 714.777344 392.011719 701.222656 392.011719 L 497.601562 392.011719 C 497.523438 392.011719 497.449219 392.054688 497.417969 392.132812 C 497.417969 392.132812 497.417969 392.117188 497.417969 392.117188 Z M 497.417969 392.117188 " fill-opacity="1" fill-rule="nonzero"/></g><path fill="#ffffff" d="M 497.585938 392.175781 L 663.316406 392.175781 C 676.78125 392.175781 687.714844 403.078125 687.714844 416.535156 C 687.714844 429.992188 676.796875 440.878906 663.316406 440.878906 L 497.585938 440.878906 C 507.152344 431.460938 507.152344 401.609375 497.585938 392.175781 Z M 497.585938 392.175781 " fill-opacity="1" fill-rule="nonzero"/><g clip-path="url(#3fbb7e05c5)"><path fill="#22335a" d="M 663.316406 441.074219 L 497.585938 441.074219 C 497.507812 441.074219 497.433594 441.027344 497.402344 440.953125 C 497.371094 440.878906 497.402344 440.800781 497.449219 440.742188 C 501.832031 436.425781 504.558594 427.148438 504.558594 416.535156 C 504.558594 405.921875 501.832031 396.644531 497.449219 392.328125 C 497.417969 392.296875 497.386719 392.238281 497.386719 392.191406 C 497.386719 392.085938 497.480469 391.996094 497.570312 391.996094 L 663.300781 391.996094 C 676.855469 391.996094 687.878906 403 687.878906 416.535156 C 687.894531 430.070312 676.871094 441.074219 663.316406 441.074219 Z M 498.039062 440.695312 L 663.316406 440.695312 C 676.660156 440.695312 687.515625 429.855469 687.515625 416.535156 C 687.515625 403.214844 676.660156 392.375 663.316406 392.375 L 498.023438 392.375 C 502.300781 396.886719 504.9375 406.074219 504.9375 416.535156 C 504.9375 426.996094 502.316406 436.183594 498.039062 440.695312 Z M 498.039062 440.695312 " fill-opacity="1" fill-rule="nonzero"/></g><path fill="#22335a" d="M 594.78125 426.027344 L 504.257812 426.027344 C 504.152344 426.027344 504.074219 425.9375 504.074219 425.84375 C 504.074219 425.753906 504.164062 425.664062 504.257812 425.664062 L 594.78125 425.664062 C 594.886719 425.664062 594.960938 425.753906 594.960938 425.84375 C 594.960938 425.9375 594.886719 426.027344 594.78125 426.027344 Z M 594.78125 426.027344 " fill-opacity="0.3" fill-rule="nonzero"/><path fill="#22335a" d="M 682.4375 431.824219 L 510.988281 431.824219 C 510.882812 431.824219 510.808594 431.734375 510.808594 431.644531 C 510.808594 431.550781 510.898438 431.460938 510.988281 431.460938 L 682.4375 431.460938 C 682.542969 431.460938 682.617188 431.550781 682.617188 431.644531 C 682.617188 431.734375 682.527344 431.824219 682.4375 431.824219 Z M 682.4375 431.824219 " fill-opacity="0.3" fill-rule="nonzero"/><path fill="#22335a" d="M 627.425781 410.253906 L 504.605469 410.253906 C 504.5 410.253906 504.421875 410.160156 504.421875 410.070312 C 504.421875 409.980469 504.515625 409.890625 504.605469 409.890625 L 627.425781 409.890625 C 627.53125 409.890625 627.609375 409.980469 627.609375 410.070312 C 627.609375 410.160156 627.53125 410.253906 627.425781 410.253906 Z M 627.425781 410.253906 " fill-opacity="0.3" fill-rule="nonzero"/><path fill="#ffffff" d="M 500.859375 351.273438 C 491.082031 351.273438 485.742188 359.71875 484.847656 368.941406 C 483.773438 380.007812 489.109375 392.191406 500.859375 392.191406 L 703.863281 392.191406 C 697.449219 392.191406 697.449219 351.273438 703.863281 351.273438 Z M 500.859375 351.273438 " fill-opacity="1" fill-rule="nonzero"/><path fill="#22335a" d="M 703.863281 392.375 L 500.859375 392.375 C 496.570312 392.375 492.792969 390.722656 489.941406 387.589844 C 485.984375 383.246094 483.96875 376.085938 484.652344 368.925781 C 485.121094 364.082031 486.804688 359.675781 489.367188 356.527344 C 492.277344 352.96875 496.25 351.078125 500.859375 351.078125 L 703.878906 351.078125 C 703.984375 351.078125 704.058594 351.167969 704.058594 351.257812 C 704.058594 351.347656 703.96875 351.441406 703.878906 351.441406 C 701.191406 351.441406 699.253906 359.960938 699.253906 371.710938 C 699.253906 383.457031 701.191406 391.980469 703.878906 391.980469 C 703.984375 391.980469 704.058594 392.070312 704.058594 392.164062 C 704.058594 392.253906 703.96875 392.375 703.863281 392.375 Z M 500.859375 351.453125 C 494.339844 351.453125 486.289062 356.042969 485.03125 368.953125 C 484.347656 376.023438 486.335938 383.0625 490.214844 387.332031 C 492.992188 390.375 496.675781 391.996094 500.859375 391.996094 L 702.832031 391.996094 C 700.722656 390.4375 698.859375 384.003906 698.859375 371.726562 C 698.859375 359.449219 700.722656 353.015625 702.832031 351.453125 Z M 500.859375 351.453125 " fill-opacity="1" fill-rule="nonzero"/><path fill="#6f8cf3" d="M 667.335938 392.175781 L 500.859375 392.175781 C 479.328125 392.175781 479.328125 351.257812 500.859375 351.257812 L 667.335938 351.257812 C 660.90625 351.273438 660.90625 392.175781 667.335938 392.175781 Z M 667.335938 392.175781 " fill-opacity="1" fill-rule="nonzero"/><path fill="#22335a" d="M 667.335938 392.375 L 500.859375 392.375 C 495.8125 392.375 491.566406 390.132812 488.59375 385.894531 C 485.96875 382.15625 484.515625 377.113281 484.515625 371.726562 C 484.515625 366.335938 485.957031 361.296875 488.59375 357.554688 C 491.566406 353.316406 495.8125 351.078125 500.859375 351.078125 L 667.335938 351.078125 C 667.441406 351.078125 667.515625 351.167969 667.515625 351.257812 C 667.515625 351.347656 667.425781 351.441406 667.335938 351.441406 C 664.652344 351.441406 662.710938 359.960938 662.710938 371.710938 C 662.710938 383.457031 664.652344 391.980469 667.335938 391.980469 C 667.441406 391.980469 667.515625 392.070312 667.515625 392.164062 C 667.515625 392.253906 667.441406 392.375 667.335938 392.375 Z M 500.859375 351.453125 C 493.171875 351.453125 484.894531 357.796875 484.894531 371.726562 C 484.894531 385.652344 493.171875 391.996094 500.859375 391.996094 L 666.289062 391.996094 C 664.179688 390.4375 662.316406 384.003906 662.316406 371.726562 C 662.316406 359.449219 664.179688 353.015625 666.289062 351.453125 Z M 500.859375 351.453125 " fill-opacity="1" fill-rule="nonzero"/><path fill="#22335a" d="M 695.976562 369.273438 L 662.617188 369.273438 C 662.511719 369.273438 662.4375 369.183594 662.4375 369.089844 C 662.4375 369 662.527344 368.910156 662.617188 368.910156 L 695.976562 368.910156 C 696.082031 368.910156 696.160156 369 696.160156 369.089844 C 696.160156 369.183594 696.082031 369.273438 695.976562 369.273438 Z M 695.976562 369.273438 " fill-opacity="0.3" fill-rule="nonzero"/><path fill="#22335a" d="M 699.859375 360.324219 L 666.5 360.324219 C 666.394531 360.324219 666.320312 360.234375 666.320312 360.144531 C 666.320312 360.054688 666.410156 359.960938 666.5 359.960938 L 699.859375 359.960938 C 699.964844 359.960938 700.039062 360.054688 700.039062 360.144531 C 700.039062 360.234375 699.964844 360.324219 699.859375 360.324219 Z M 699.859375 360.324219 " fill-opacity="0.3" fill-rule="nonzero"/><path fill="#22335a" d="M 699.222656 380.597656 L 679.796875 380.597656 C 679.691406 380.597656 679.617188 380.503906 679.617188 380.414062 C 679.617188 380.324219 679.707031 380.234375 679.796875 380.234375 L 699.222656 380.234375 C 699.328125 380.234375 699.402344 380.324219 699.402344 380.414062 C 699.402344 380.503906 699.328125 380.597656 699.222656 380.597656 Z M 699.222656 380.597656 " fill-opacity="0.3" fill-rule="nonzero"/><path fill="#ffffff" d="M 532.640625 366.320312 L 510.050781 366.320312 L 510.050781 377.71875 L 532.640625 377.71875 Z M 532.640625 366.320312 " fill-opacity="1" fill-rule="nonzero"/><path fill="#22335a" d="M 532.640625 377.902344 L 510.035156 377.902344 C 509.929688 377.902344 509.851562 377.8125 509.851562 377.71875 L 509.851562 366.320312 C 509.851562 366.214844 509.941406 366.140625 510.035156 366.140625 L 532.640625 366.140625 C 532.75 366.140625 532.824219 366.230469 532.824219 366.320312 L 532.824219 377.71875 C 532.824219 377.824219 532.75 377.902344 532.640625 377.902344 Z M 510.230469 377.523438 L 532.460938 377.523438 L 532.460938 366.503906 L 510.230469 366.503906 Z M 510.230469 377.523438 " fill-opacity="1" fill-rule="nonzero"/><path fill="#ffffff" d="M 560.816406 366.320312 L 538.222656 366.320312 L 538.222656 377.71875 L 560.816406 377.71875 Z M 560.816406 366.320312 " fill-opacity="1" fill-rule="nonzero"/><path fill="#22335a" d="M 560.816406 377.902344 L 538.207031 377.902344 C 538.101562 377.902344 538.023438 377.8125 538.023438 377.71875 L 538.023438 366.320312 C 538.023438 366.214844 538.117188 366.140625 538.207031 366.140625 L 560.816406 366.140625 C 560.921875 366.140625 560.996094 366.230469 560.996094 366.320312 L 560.996094 377.71875 C 560.996094 377.824219 560.90625 377.902344 560.816406 377.902344 Z M 538.402344 377.523438 L 560.632812 377.523438 L 560.632812 366.503906 L 538.402344 366.503906 Z M 538.402344 377.523438 " fill-opacity="1" fill-rule="nonzero"/><path fill="#ffffff" d="M 588.761719 366.320312 L 566.167969 366.320312 L 566.167969 377.71875 L 588.761719 377.71875 Z M 588.761719 366.320312 " fill-opacity="1" fill-rule="nonzero"/><path fill="#22335a" d="M 588.761719 377.902344 L 566.152344 377.902344 C 566.046875 377.902344 565.96875 377.8125 565.96875 377.71875 L 565.96875 366.320312 C 565.96875 366.214844 566.0625 366.140625 566.152344 366.140625 L 588.761719 366.140625 C 588.867188 366.140625 588.941406 366.230469 588.941406 366.320312 L 588.941406 377.71875 C 588.941406 377.824219 588.867188 377.902344 588.761719 377.902344 Z M 566.347656 377.523438 L 588.578125 377.523438 L 588.578125 366.503906 L 566.347656 366.503906 Z M 566.347656 377.523438 " fill-opacity="1" fill-rule="nonzero"/><path fill="#f59dc0" d="M 703.179688 350.59375 L 498.859375 350.59375 C 492.597656 350.59375 489.746094 342.265625 490.320312 334.710938 C 490.808594 328.429688 493.644531 322.648438 498.859375 322.648438 L 703.179688 322.648438 C 702.601562 322.648438 702.148438 323.417969 701.769531 324.707031 C 701.648438 325.082031 701.558594 325.507812 701.449219 325.960938 C 700.34375 331.320312 700.34375 341.917969 701.449219 347.277344 C 701.558594 347.730469 701.648438 348.140625 701.769531 348.519531 C 702.132812 349.820312 702.601562 350.59375 703.179688 350.59375 Z M 703.179688 350.59375 " fill-opacity="1" fill-rule="nonzero"/><path fill="#22335a" d="M 498.859375 350.789062 C 496.902344 350.789062 495.191406 350 493.75 348.472656 C 491.125 345.640625 489.699219 340.238281 490.125 334.710938 C 490.808594 325.691406 495.25 322.480469 498.84375 322.480469 L 703.164062 322.480469 C 703.269531 322.480469 703.347656 322.570312 703.347656 322.660156 C 703.347656 322.753906 703.253906 322.84375 703.164062 322.84375 C 702.722656 322.84375 702.285156 323.523438 701.9375 324.765625 C 701.828125 325.097656 701.738281 325.476562 701.632812 326.007812 C 700.527344 331.367188 700.527344 341.886719 701.632812 347.230469 C 701.738281 347.730469 701.828125 348.125 701.9375 348.457031 C 702.300781 349.699219 702.738281 350.378906 703.179688 350.378906 C 703.285156 350.378906 703.363281 350.472656 703.363281 350.5625 C 703.363281 350.652344 703.269531 350.742188 703.179688 350.742188 L 607.683594 350.742188 Z M 498.859375 322.859375 C 495.417969 322.859375 491.171875 325.976562 490.503906 334.742188 C 490.09375 340.175781 491.472656 345.476562 494.023438 348.214844 C 495.371094 349.667969 496.992188 350.410156 498.84375 350.410156 L 702.40625 350.410156 C 702.085938 350.0625 701.800781 349.457031 701.558594 348.59375 C 701.449219 348.246094 701.34375 347.835938 701.238281 347.335938 C 700.117188 341.949219 700.117188 331.351562 701.238281 325.945312 C 701.359375 325.417969 701.449219 325.023438 701.558594 324.675781 C 701.816406 323.8125 702.085938 323.207031 702.40625 322.859375 Z M 498.859375 322.859375 " fill-opacity="1" fill-rule="nonzero"/><path fill="#ffffff" d="M 701.449219 347.292969 L 611.761719 347.292969 C 611.382812 347.292969 611.050781 346.972656 610.945312 346.519531 C 609.851562 341.707031 609.851562 331.5625 610.945312 326.765625 C 611.050781 326.308594 611.382812 325.992188 611.761719 325.992188 L 701.449219 325.992188 C 700.328125 331.351562 700.328125 341.933594 701.449219 347.292969 Z M 701.449219 347.292969 " fill-opacity="1" fill-rule="nonzero"/><path fill="#22335a" d="M 701.449219 347.488281 L 611.761719 347.488281 C 611.292969 347.488281 610.882812 347.109375 610.761719 346.566406 C 609.667969 341.734375 609.667969 331.53125 610.761719 326.71875 C 610.882812 326.175781 611.308594 325.796875 611.761719 325.796875 L 701.449219 325.796875 C 701.449219 325.796875 701.558594 325.824219 701.601562 325.871094 C 701.632812 325.917969 701.648438 325.976562 701.648438 326.023438 C 700.542969 331.382812 700.542969 341.902344 701.648438 347.246094 C 701.632812 347.351562 701.558594 347.488281 701.449219 347.488281 Z M 611.761719 326.175781 C 611.472656 326.175781 611.214844 326.429688 611.125 326.808594 C 610.035156 331.578125 610.035156 341.691406 611.125 346.472656 C 611.214844 346.851562 611.472656 347.109375 611.761719 347.109375 L 701.222656 347.109375 C 700.160156 341.78125 700.160156 331.578125 701.222656 326.175781 Z M 611.761719 326.175781 " fill-opacity="1" fill-rule="nonzero"/><path fill="#22335a" d="M 607.683594 350.804688 L 498.859375 350.804688 C 496.128906 350.804688 493.839844 349.261719 492.234375 346.339844 C 490.824219 343.78125 490.0625 340.328125 490.0625 336.648438 C 490.0625 332.972656 490.835938 329.519531 492.234375 326.960938 C 493.839844 324.039062 496.128906 322.496094 498.859375 322.496094 L 607.683594 322.496094 C 607.789062 322.496094 607.867188 322.585938 607.867188 322.675781 C 607.867188 322.769531 607.773438 322.859375 607.683594 322.859375 C 607.378906 322.859375 606.910156 323.191406 606.441406 324.78125 C 604.9375 329.867188 604.9375 343.386719 606.441406 348.488281 C 606.863281 349.957031 607.304688 350.351562 607.609375 350.410156 L 607.683594 350.410156 C 607.683594 350.410156 607.773438 350.410156 607.820312 350.472656 C 607.820312 350.472656 607.894531 350.605469 607.867188 350.683594 C 607.835938 350.757812 607.757812 350.804688 607.683594 350.804688 Z M 498.859375 322.859375 C 494.808594 322.859375 490.445312 327.171875 490.445312 336.632812 C 490.445312 346.097656 494.808594 350.410156 498.859375 350.410156 L 606.941406 350.410156 C 606.621094 350.0625 606.332031 349.457031 606.089844 348.59375 C 604.542969 343.339844 604.542969 329.914062 606.089844 324.660156 C 606.347656 323.796875 606.636719 323.191406 606.957031 322.84375 L 498.859375 322.84375 Z M 498.859375 322.859375 " fill-opacity="1" fill-rule="nonzero"/><path fill="#22335a" d="M 698.980469 335.015625 L 612.761719 335.015625 C 612.65625 335.015625 612.582031 334.925781 612.582031 334.832031 C 612.582031 334.742188 612.671875 334.652344 612.761719 334.652344 L 698.980469 334.652344 C 699.085938 334.652344 699.160156 334.742188 699.160156 334.832031 C 699.160156 334.925781 699.070312 335.015625 698.980469 335.015625 Z M 698.980469 335.015625 " fill-opacity="0.3" fill-rule="nonzero"/><path fill="#22335a" d="M 701.042969 328.898438 L 611.914062 328.898438 C 611.808594 328.898438 611.730469 328.808594 611.730469 328.71875 C 611.730469 328.625 611.824219 328.535156 611.914062 328.535156 L 701.042969 328.535156 C 701.148438 328.535156 701.222656 328.625 701.222656 328.71875 C 701.222656 328.808594 701.148438 328.898438 701.042969 328.898438 Z M 701.042969 328.898438 " fill-opacity="0.3" fill-rule="nonzero"/><path fill="#22335a" d="M 700.691406 342.75 L 614.308594 342.75 C 614.203125 342.75 614.128906 342.660156 614.128906 342.570312 C 614.128906 342.476562 614.21875 342.386719 614.308594 342.386719 L 700.691406 342.386719 C 700.800781 342.386719 700.875 342.476562 700.875 342.570312 C 700.875 342.660156 700.800781 342.75 700.691406 342.75 Z M 700.691406 342.75 " fill-opacity="0.3" fill-rule="nonzero"/><path fill="#ffffff" d="M 515.78125 332.941406 L 503.742188 332.941406 L 503.742188 340.738281 L 515.78125 340.738281 Z M 515.78125 332.941406 " fill-opacity="1" fill-rule="nonzero"/><path fill="#22335a" d="M 515.78125 340.917969 L 503.742188 340.917969 C 503.636719 340.917969 503.558594 340.828125 503.558594 340.738281 L 503.558594 332.941406 C 503.558594 332.835938 503.652344 332.757812 503.742188 332.757812 L 515.78125 332.757812 C 515.886719 332.757812 515.960938 332.851562 515.960938 332.941406 L 515.960938 340.738281 C 515.976562 340.828125 515.886719 340.917969 515.78125 340.917969 Z M 503.9375 340.539062 L 515.597656 340.539062 L 515.597656 333.121094 L 503.9375 333.121094 Z M 503.9375 340.539062 " fill-opacity="1" fill-rule="nonzero"/><path fill="#ffffff" d="M 530.792969 332.941406 L 518.753906 332.941406 L 518.753906 340.738281 L 530.792969 340.738281 Z M 530.792969 332.941406 " fill-opacity="1" fill-rule="nonzero"/><path fill="#22335a" d="M 530.792969 340.917969 L 518.753906 340.917969 C 518.648438 340.917969 518.570312 340.828125 518.570312 340.738281 L 518.570312 332.941406 C 518.570312 332.835938 518.660156 332.757812 518.753906 332.757812 L 530.792969 332.757812 C 530.898438 332.757812 530.972656 332.851562 530.972656 332.941406 L 530.972656 340.738281 C 530.972656 340.828125 530.882812 340.917969 530.792969 340.917969 Z M 518.933594 340.539062 L 530.59375 340.539062 L 530.59375 333.121094 L 518.933594 333.121094 Z M 518.933594 340.539062 " fill-opacity="1" fill-rule="nonzero"/><path fill="#ffffff" d="M 545.667969 332.941406 L 533.628906 332.941406 L 533.628906 340.738281 L 545.667969 340.738281 Z M 545.667969 332.941406 " fill-opacity="1" fill-rule="nonzero"/><path fill="#22335a" d="M 545.667969 340.917969 L 533.628906 340.917969 C 533.519531 340.917969 533.445312 340.828125 533.445312 340.738281 L 533.445312 332.941406 C 533.445312 332.835938 533.535156 332.757812 533.628906 332.757812 L 545.667969 332.757812 C 545.773438 332.757812 545.847656 332.851562 545.847656 332.941406 L 545.847656 340.738281 C 545.847656 340.828125 545.773438 340.917969 545.667969 340.917969 Z M 533.824219 340.539062 L 545.484375 340.539062 L 545.484375 333.121094 L 533.824219 333.121094 Z M 533.824219 340.539062 " fill-opacity="1" fill-rule="nonzero"/></svg>