<svg xmlns="http://www.w3.org/2000/svg" xmlns:xlink="http://www.w3.org/1999/xlink" width="1366" zoomAndPan="magnify" viewBox="0 0 1024.5 576" height="768" preserveAspectRatio="xMidYMid meet" version="1.0"><defs><clipPath id="e58920c2a3"><path d="M 20 30.214844 L 57.441406 30.214844 L 57.441406 56.453125 L 20 56.453125 Z M 20 30.214844 " clip-rule="nonzero"/></clipPath></defs><g clip-path="url(#e58920c2a3)"><path fill="#ffffff" d="M 22.019531 30.277344 C 21.769531 30.273438 21.527344 30.316406 21.292969 30.410156 C 21.0625 30.503906 20.855469 30.636719 20.679688 30.8125 C 20.5 30.988281 20.363281 31.195312 20.265625 31.425781 C 20.167969 31.65625 20.121094 31.894531 20.121094 32.148438 C 20.121094 32.398438 20.167969 32.636719 20.265625 32.867188 C 20.363281 33.101562 20.5 33.304688 20.679688 33.480469 C 20.855469 33.65625 21.0625 33.789062 21.292969 33.882812 C 21.527344 33.976562 21.769531 34.023438 22.019531 34.019531 L 55.699219 34.019531 C 55.949219 34.023438 56.191406 33.976562 56.421875 33.882812 C 56.65625 33.789062 56.863281 33.65625 57.039062 33.480469 C 57.21875 33.304688 57.355469 33.101562 57.453125 32.867188 C 57.550781 32.636719 57.597656 32.398438 57.597656 32.148438 C 57.597656 31.894531 57.550781 31.65625 57.453125 31.425781 C 57.355469 31.195312 57.21875 30.988281 57.039062 30.8125 C 56.863281 30.636719 56.65625 30.503906 56.421875 30.410156 C 56.191406 30.316406 55.949219 30.273438 55.699219 30.277344 Z M 22.019531 41.503906 C 21.769531 41.5 21.527344 41.542969 21.292969 41.636719 C 21.0625 41.730469 20.855469 41.867188 20.679688 42.042969 C 20.5 42.21875 20.363281 42.421875 20.265625 42.652344 C 20.167969 42.882812 20.121094 43.125 20.121094 43.375 C 20.121094 43.625 20.167969 43.863281 20.265625 44.097656 C 20.363281 44.328125 20.5 44.53125 20.679688 44.707031 C 20.855469 44.882812 21.0625 45.015625 21.292969 45.109375 C 21.527344 45.203125 21.769531 45.25 22.019531 45.246094 L 55.699219 45.246094 C 55.949219 45.25 56.191406 45.203125 56.421875 45.109375 C 56.65625 45.015625 56.863281 44.882812 57.039062 44.707031 C 57.21875 44.53125 57.355469 44.328125 57.453125 44.097656 C 57.550781 43.863281 57.597656 43.625 57.597656 43.375 C 57.597656 43.125 57.550781 42.882812 57.453125 42.652344 C 57.355469 42.421875 57.21875 42.21875 57.039062 42.042969 C 56.863281 41.867188 56.65625 41.730469 56.421875 41.636719 C 56.191406 41.542969 55.949219 41.5 55.699219 41.503906 Z M 22.019531 52.730469 C 21.769531 52.726562 21.527344 52.769531 21.292969 52.863281 C 21.0625 52.957031 20.855469 53.09375 20.679688 53.269531 C 20.5 53.445312 20.363281 53.648438 20.265625 53.878906 C 20.167969 54.109375 20.121094 54.351562 20.121094 54.601562 C 20.121094 54.851562 20.167969 55.09375 20.265625 55.324219 C 20.363281 55.554688 20.5 55.757812 20.679688 55.933594 C 20.855469 56.109375 21.0625 56.242188 21.292969 56.335938 C 21.527344 56.429688 21.769531 56.476562 22.019531 56.472656 L 55.699219 56.472656 C 55.949219 56.476562 56.191406 56.429688 56.421875 56.335938 C 56.65625 56.242188 56.863281 56.109375 57.039062 55.933594 C 57.21875 55.757812 57.355469 55.554688 57.453125 55.324219 C 57.550781 55.09375 57.597656 54.851562 57.597656 54.601562 C 57.597656 54.351562 57.550781 54.109375 57.453125 53.878906 C 57.355469 53.648438 57.21875 53.445312 57.039062 53.269531 C 56.863281 53.09375 56.65625 52.957031 56.421875 52.863281 C 56.191406 52.769531 55.949219 52.726562 55.699219 52.730469 Z M 22.019531 52.730469 " fill-opacity="1" fill-rule="nonzero"/></g><path stroke-linecap="butt" transform="matrix(0.749634, 0, 0, 0.749634, 304.08413, 241.836911)" fill="none" stroke-linejoin="miter" d="M 2.998665 1.999678 L 516.837881 1.999678 " stroke="#000000" stroke-width="4" stroke-opacity="1" stroke-miterlimit="4"/><path stroke-linecap="round" transform="matrix(0.749634, 0, 0, 0.749634, 304.08413, 241.836911)" fill="none" stroke-linejoin="round" d="M 1.998176 -3.99804 L 1.998176 7.997396 " stroke="#000000" stroke-width="4" stroke-opacity="1" stroke-miterlimit="4"/><path stroke-linecap="round" transform="matrix(0.749634, 0, 0, 0.749634, 304.08413, 241.836911)" fill="none" stroke-linejoin="round" d="M 517.838369 -3.99804 L 517.838369 7.997396 " stroke="#000000" stroke-width="4" stroke-opacity="1" stroke-miterlimit="4"/></svg>